<svg width="480" height="731" viewBox="0 0 480 731" fill="none" xmlns="http://www.w3.org/2000/svg">
<g opacity="0.5" filter="url(#filter0_d_25_3787)">
<path d="M63.2719 94.7392C13.2048 48.1018 -49.3478 35.7487 -86.8683 164.164C-137.097 336.073 -129.695 459.632 -68.2009 592.095C-20.0774 695.756 11.6811 606.138 70.3524 606.508C146.555 606.99 190.976 644.448 267.16 649.749C332.24 654.277 396.392 612.564 461.07 635.335C504.81 650.734 527.031 684.441 568.083 635.335C635.886 554.231 610.002 414.907 558.588 256.112C524.634 151.242 508.181 164.164 448.84 164.164C379.939 164.164 348.516 196.815 282.447 187.524C196.49 175.435 129.96 156.859 63.2719 94.7392Z" fill="url(#paint0_linear_25_3787)"/>
</g>
<path d="M225.722 195.835C226.14 189.809 224.222 184.629 218.754 181.716C212.519 178.394 205.438 177.059 199.255 173.624C193.238 170.284 188.259 164.45 184.029 159.095C179.817 153.758 176.233 147.95 173.347 141.803C167.704 129.76 163.562 115.135 164.87 101.749C166.335 86.7415 174.306 73.1113 184.073 61.9578C204.496 38.648 242.422 29.8665 270.51 43.8018C277.295 47.1679 283.321 51.6241 289.181 56.3854C291.588 58.3388 293.942 60.3882 295.957 62.7514C297.326 64.3647 298.302 66.0565 299.41 67.8529C300.5 69.6144 301.904 71.0969 302.977 72.9108C307.319 80.2185 308.872 87.9361 310.049 96.2642C310.633 100.398 311.06 104.557 311.348 108.717C311.653 113.121 312.212 117.865 311.688 122.251C310.808 129.629 307.119 137.477 303.788 144.026C300.465 150.549 296.436 156.715 291.823 162.392C286.887 168.47 281.271 173.981 275.167 178.882C269.682 183.286 263.856 185.972 264.886 194.047C264.964 194.701 266.935 194.256 266.839 193.524C266.202 188.509 268.348 185.475 272.263 182.623C275.08 180.574 277.801 178.402 280.425 176.118C285.597 171.6 290.367 166.621 294.614 161.232C302.837 150.793 309.063 138.811 312.726 126.036C314.985 118.17 313.546 109.031 312.665 100.982C311.732 92.4621 310.72 83.5149 306.779 75.7972C305.017 72.3526 302.828 69.4749 300.788 66.257C298.895 63.2746 296.802 60.6934 294.178 58.3127C288.814 53.4379 282.867 48.9469 276.606 45.3017C251.796 30.8432 218.388 34.2267 195.104 50.3771C183.209 58.6266 173.565 70.9748 167.748 84.1863C161.574 98.1827 161.897 112.406 165.812 126.96C169.754 141.619 177.236 155.18 187.718 166.176C190.334 168.923 193.072 171.722 196.308 173.737C199.831 175.934 203.737 177.321 207.627 178.708C211.368 180.042 215.318 181.324 218.684 183.486C222.94 186.216 224.109 191.335 223.786 196.088C223.716 196.872 225.678 196.489 225.722 195.835Z" fill="#272525"/>
<path d="M223.879 196.105C225.85 198.721 230.524 198.835 233.472 199.122C237.911 199.55 242.149 199.916 246.527 198.93C251.262 197.867 256.075 197.579 260.802 196.48C262.965 195.974 265.59 195.46 266.479 193.219C266.732 192.591 264.779 192.817 264.526 193.463C263.688 195.582 258.91 195.765 257.026 196.227C253.895 197.003 250.608 196.951 247.442 197.683C243.44 198.608 239.908 198.486 235.879 198.154C232.923 197.91 227.69 197.997 225.685 195.346C225.301 194.814 223.409 195.486 223.879 196.105Z" fill="#272525"/>
<path d="M223.68 195.111C221.378 197.91 222.381 204.145 222.712 207.416C223.122 211.462 223.192 217.139 225.337 220.732C227.456 224.263 231.529 225.589 235.287 226.548C239.83 227.708 244.845 228.885 249.554 228.667C253.443 228.484 257.873 227.35 261.222 225.327C265.181 222.929 267.082 220.261 268.076 215.744C268.992 211.601 269.044 207.023 268.713 202.82C268.486 199.898 268.399 195.652 266.655 193.227C266.288 192.713 264.919 193.21 264.771 193.733C264.745 193.829 264.719 193.925 264.693 194.021C264.972 193.82 265.259 193.611 265.538 193.41C265.486 193.428 265.434 193.437 265.381 193.454C264.213 193.759 264.466 194.736 265.643 194.431C266.236 194.274 266.559 194.082 266.733 193.489C266.105 193.655 265.477 193.829 264.85 193.995C266.245 195.939 266.489 199.602 266.681 201.913C266.969 205.506 266.794 208.994 266.576 212.587C266.315 216.86 265.216 221.019 261.623 223.644C257.341 226.775 251.394 228.057 246.162 227.394C242.577 226.941 238.749 226.156 235.287 225.144C231.581 224.063 227.814 222.389 226.471 218.438C225.337 215.09 225.102 211.026 224.744 207.546C224.404 204.285 223.183 197.997 225.511 195.163C226.043 194.492 224.09 194.614 223.68 195.111Z" fill="#272525"/>
<path d="M227.78 223.863C227.083 225.877 227.693 229.287 228.225 231.319C228.739 233.281 229.768 234.632 231.713 235.243C234.268 236.045 237.181 236.01 239.814 236.202C242.884 236.429 246.058 236.655 249.128 236.403C251.718 236.185 254.229 235.356 256.776 234.868C258.485 234.545 260.578 234.292 262.113 233.411C266.342 230.996 265.88 225.842 265.88 221.691C265.88 221.089 263.926 221.456 263.926 222.214C263.926 227.028 264.293 232.138 258.389 233.464C254.552 234.327 250.506 235.382 246.59 235.339C242.71 235.295 238.454 235.33 234.652 234.484C231.713 233.83 230.44 232.627 230.004 229.67C229.734 227.865 229.123 225.371 229.725 223.618C229.96 222.956 228.007 223.2 227.78 223.863Z" fill="#272525"/>
<path d="M236.815 229.906C236.78 229.88 236.745 229.854 236.711 229.827C236.152 230.115 235.586 230.394 235.028 230.682C236.266 231.353 237.583 231.728 238.987 231.545C239.379 231.493 239.955 231.301 240.094 230.883C240.129 230.778 240.164 230.673 240.199 230.577C240.225 230.481 240.199 230.394 240.129 230.316C239.126 229.304 237.452 228.886 236.222 228.17C234.958 227.429 233.842 226.348 232.507 225.781C231.993 226.095 231.47 226.409 230.955 226.723C232.734 227.421 234.4 228.729 236.388 228.284C236.711 228.214 237.286 227.944 237.234 227.534C237.094 226.461 234.6 225.24 233.859 224.813C233.057 224.351 232.202 223.863 231.278 224.351C228.513 225.816 232.725 229.208 234.094 230.072C234.522 230.342 236.231 229.88 235.778 229.217C234.67 227.577 232.952 226.304 231.304 225.24C230.877 224.961 230.083 225.275 229.743 225.554C227.772 227.15 232.071 232.33 233.868 232.609C234.208 232.662 235.69 232.443 235.446 231.816C234.687 229.871 233.501 227.665 231.365 227.063C230.833 226.915 230.022 227.203 229.787 227.717C228.496 230.551 232.656 234.222 235.35 234.301C237.888 234.371 237.513 232.592 236.292 231.101C234.966 229.479 232.996 228.842 231.862 231.057C230.859 233.01 232.132 234.231 234.068 233.542C234.365 233.438 234.661 233.211 234.661 232.88C234.653 231.746 232.9 230.944 232.246 230.028C231.286 228.65 231.208 226.915 230.318 225.624C229.987 225.144 228.173 225.685 228.435 226.269C229.691 229.034 237.129 239.027 240.138 232.696C242.344 228.048 233.807 228.886 231.653 230.49C231.33 230.726 231.443 231.127 231.836 231.179C233.597 231.414 235.315 231.868 237.077 232.103C238.673 232.313 240.26 232.208 241.838 232.627C242.161 232.269 242.492 231.903 242.815 231.545C240.286 231.327 237.19 229.287 235.01 228.031C234.574 227.778 232.882 228.197 233.327 228.886C234.225 230.281 236.868 230.752 238.324 230.935C239.527 231.083 242.588 230.569 243.425 231.284C243.687 230.996 243.94 230.699 244.201 230.412C242.693 230.769 236.946 228.554 235.481 227.368C235.054 227.682 234.626 227.996 234.19 228.301C235.987 228.223 237.923 228.92 239.684 229.252C240.923 229.487 242.719 229.409 243.835 230.037C244.053 229.714 244.263 229.4 244.481 229.077C241.925 229.749 238.664 227.752 236.144 227.412C235.769 227.359 233.868 228.057 234.766 228.415C238.367 229.862 242.614 229.016 246.181 230.368C246.53 230.438 246.879 230.508 247.219 230.577C247.82 231.458 247.681 231.85 246.809 231.763C246.129 232.295 243.992 232.164 243.207 232.234C240.583 232.444 238.123 232.173 235.507 231.938C235.254 232.304 235.001 232.679 234.749 233.045C238.507 233.342 242.449 233.237 246.164 233.664C246.321 233.324 246.478 232.984 246.635 232.644C242.466 233.952 237.888 232.574 233.65 232.975C233.318 233.01 232.22 233.385 232.612 233.9C233.554 235.156 236.257 234.981 237.635 235.025C239.379 235.086 241.141 234.972 242.876 234.868C243.513 234.833 245.326 234.345 245.937 234.632C246.068 234.345 246.198 234.048 246.329 233.76C243.521 234.824 240.033 234.519 237.443 236.167C236.719 236.629 237.269 237.048 237.914 236.996C241.803 236.673 245.448 234.571 249.102 233.342C250.995 232.705 254.37 232.374 255.617 230.699C255.904 230.316 255.364 230.15 255.085 230.124C250.315 229.749 245.492 231.728 240.757 232.13C240.757 232.47 240.757 232.819 240.757 233.159C246.225 231.833 251.841 231.074 257.317 229.775C258.503 229.496 258.233 228.528 257.056 228.798C254.029 229.479 251.073 229.949 248.004 230.342C247.097 230.455 242.736 231.51 242.091 230.926C241.83 231.214 241.577 231.51 241.315 231.798C245.1 230.996 249.19 231.144 253.009 231.458C253.759 231.519 255.085 230.455 253.768 230.351C249.608 230.01 245.161 229.949 241.045 230.822C240.835 230.865 239.859 231.319 240.269 231.694C241.385 232.723 244.856 231.781 246.137 231.624C249.913 231.17 253.593 230.612 257.308 229.775C257.221 229.452 257.134 229.121 257.047 228.798C251.57 230.098 245.963 230.856 240.487 232.182C239.58 232.4 239.318 233.307 240.487 233.211C245.047 232.827 249.739 230.874 254.317 231.24C254.143 231.048 253.968 230.856 253.785 230.665C253.977 230.412 254.326 230.665 253.881 230.595C253.567 230.542 252.913 230.926 252.634 231.031C250.986 231.615 249.329 232.173 247.672 232.757C244.603 233.847 241.455 235.644 238.167 235.923C238.324 236.202 238.481 236.481 238.638 236.751C241.001 235.252 244.446 235.565 247.079 234.563C247.358 234.458 248.021 233.943 247.472 233.691C246.547 233.263 245.544 233.603 244.576 233.699C242.684 233.891 235.769 234.964 234.4 233.141C234.051 233.446 233.702 233.76 233.362 234.066C237.801 233.638 242.51 234.999 246.879 233.629C247.236 233.516 248.291 232.723 247.35 232.609C243.478 232.156 239.414 232.252 235.498 231.938C234.748 231.877 233.423 232.932 234.74 233.045C238.769 233.403 242.51 233.542 246.53 232.845C248.108 232.574 249.922 232.382 250.594 230.734C250.62 230.638 250.594 230.551 250.524 230.473C249.477 229.147 246.783 229.208 245.274 228.99C242.37 228.572 239.056 228.58 236.309 227.473C235.847 227.804 235.394 228.144 234.932 228.476C238.176 228.92 241.411 230.926 244.733 230.063C245.065 229.976 246.015 229.461 245.379 229.104C244.114 228.38 242.274 228.467 240.87 228.205C238.917 227.839 236.937 227.115 234.94 227.211C234.705 227.22 233.074 227.673 233.65 228.144C235.228 229.418 237.731 230.054 239.597 230.848C241.315 231.58 242.623 231.833 244.446 231.406C244.638 231.362 245.649 230.9 245.222 230.534C242.71 228.406 237.312 231.563 235.115 228.144C234.557 228.432 233.99 228.711 233.432 228.999C236.039 230.499 238.969 232.417 242.03 232.679C242.545 232.723 244.097 231.885 243.007 231.598C240.888 231.031 238.664 231.144 236.501 230.769C235.568 230.612 234.731 230.298 233.894 230.56C232.847 230.883 234.81 230.665 234.905 230.682C235.769 230.821 238.01 230.734 238.542 231.789C237.792 233.35 237.016 233.691 236.214 232.81C235.839 232.566 235.507 232.287 235.202 231.955C233.44 230.316 231.356 227.979 230.362 225.781C229.734 225.999 229.106 226.208 228.478 226.426C229.159 227.42 229.298 228.964 229.935 230.063C230.467 230.987 232.664 232.496 232.673 233.446C232.874 233.228 233.065 233.002 233.266 232.784C234.6 232.313 232.76 230.665 234.443 231.903C234.966 232.287 235.551 233.185 235.272 233.839C235.638 233.621 236.013 233.394 236.379 233.176C234.164 233.455 230.693 229.731 231.705 227.516C231.182 227.734 230.659 227.952 230.127 228.17C231.801 228.641 232.891 230.952 233.449 232.382C233.972 232.121 234.496 231.851 235.028 231.589C233.955 231.423 230.223 226.758 231.269 225.912C230.746 226.017 230.231 226.121 229.708 226.226C231.225 227.203 232.908 228.519 233.92 230.019C234.478 229.731 235.045 229.452 235.603 229.165C234.966 228.763 231.993 226.078 232.577 225.947C232.786 225.903 235.228 228.022 235.237 228.092C235.516 227.839 235.804 227.595 236.083 227.342C235.246 227.534 233.275 226.13 232.472 225.816C231.906 225.598 230.092 226.409 230.92 226.758C231.784 227.124 238.106 231.153 238.106 231.162C238.472 230.944 238.847 230.717 239.213 230.499C238.254 230.551 237.365 230.307 236.536 229.775C236.091 229.531 234.278 230.194 234.853 230.63C234.888 230.656 234.923 230.682 234.958 230.708C235.551 231.092 237.347 230.324 236.815 229.906Z" fill="#272525"/>
<path d="M254.652 231.789C252.376 232.443 250.074 232.896 247.719 233.14C246.446 233.271 245.156 233.158 243.935 233.533C243.56 233.646 242.531 234.414 243.464 234.553C248.4 235.286 254.251 234.475 259.117 233.568C259.492 233.498 260.922 232.722 259.85 232.495C257.565 232.016 254.835 232.05 252.516 232.103C251.033 232.138 249.69 232.173 248.522 233.149C248.435 233.219 248.269 233.428 248.33 233.568C250.091 237.44 262.597 234.431 261.097 231.737C260.19 230.106 254.391 230.795 253.283 230.908C250.571 231.187 245.853 231.92 244.022 234.274C243.813 234.544 244.074 234.78 244.336 234.824C247.475 235.417 250.737 233.943 253.623 232.853C256.056 231.928 259.85 230.995 261.629 228.902C261.847 228.649 261.568 228.388 261.315 228.353C258.297 227.882 255.01 228.955 252.01 229.391C250.161 229.661 247.746 229.373 246.097 230.385C245.365 230.83 245.923 231.283 246.568 231.213C249.56 230.899 252.612 230.385 255.585 229.853C256.675 229.661 258.542 229.469 259.091 228.318C259.187 228.126 259.196 227.917 258.96 227.821C255.376 226.382 250.702 227.786 247.013 227.969C246.926 228.318 246.847 228.667 246.76 229.016C250.763 228.074 254.879 227.603 258.969 227.28C258.812 227.001 258.655 226.722 258.498 226.452C256.082 228.083 251.609 228.501 250.1 231.266C249.812 231.789 250.527 231.867 250.876 231.824C253.344 231.571 255.707 230.359 257.818 229.112C258.733 228.562 261.193 227.498 261.271 226.208C261.306 225.658 260.486 225.772 260.164 225.841C257.199 226.504 254.835 228.894 251.905 229.591C252.08 229.888 252.254 230.184 252.42 230.481C255.481 228.963 261.001 228.231 263.172 225.318C263.364 225.057 263.129 224.804 262.858 224.769C261.568 224.586 260.504 225.283 259.911 226.443C259.64 226.975 260.329 227.027 260.687 227.001C262.152 226.914 262.902 225.868 263.53 224.621C263.966 223.74 262.047 224.124 261.707 224.577C260.399 226.347 259.562 228.414 258.271 230.21C258.882 230.228 259.483 230.237 260.094 230.254C260.765 228.955 262.553 225.545 263.913 224.865C263.46 224.821 263.006 224.769 262.553 224.725C263.024 227.341 260.338 230.114 258.795 231.981C259.422 231.946 260.05 231.911 260.678 231.876C261.166 230.027 262.614 226.6 264.288 225.432C263.783 225.467 263.277 225.493 262.771 225.528C263.704 226.984 261.951 230.847 261.071 232.016C261.681 232.033 262.283 232.042 262.893 232.059C263.181 231.501 263.46 230.943 263.722 230.367C264.079 229.626 262.78 229.792 262.422 229.949C259.667 231.144 257.155 232.957 254.173 233.585C254.539 233.664 254.914 233.734 255.28 233.812C254.766 232.574 263.669 228.423 263.826 228.362C263.434 228.179 263.05 227.987 262.658 227.804C261.498 228.85 260.068 229.687 258.716 230.472C257.853 231.327 256.867 231.641 255.751 231.405C256.466 230.585 257.303 229.931 258.254 229.443C259.414 228.772 257.661 228.536 257.042 228.867C255.306 229.774 253.266 230.646 251.373 231.135C249.464 231.632 248.339 231.78 250.632 231.388C253.92 230.821 257.059 229.487 260.408 229.242C260.408 228.902 260.408 228.554 260.408 228.213C256.867 229.068 253.466 230.027 249.812 230.394C248.548 230.524 245.583 230.96 248.129 230.115C248.984 229.827 249.882 229.635 250.763 229.426C253.745 228.737 256.789 228.353 259.78 227.673C259.536 227.411 259.292 227.15 259.039 226.897C257.033 227.969 254.896 228.266 252.69 228.58C251.208 228.789 248.496 229.574 247.092 228.841C246.961 229.129 246.83 229.426 246.699 229.713C248.565 228.981 250.972 229.242 252.952 228.963C255.289 228.632 257.609 228.1 259.989 228.266C259.815 228.074 259.64 227.882 259.457 227.69C258.097 230.263 251.783 231.693 249.263 232.46C248.147 232.8 247.004 232.957 246.211 233.873C245.984 234.126 246.272 234.388 246.525 234.422C249.778 234.954 252.856 233.856 256.065 233.446C255.978 233.132 255.899 232.818 255.812 232.504C252.35 233.829 248.112 234.135 244.441 234.117C243.961 234.117 242.348 235.05 243.464 235.199C245.757 235.521 248.077 235.556 250.37 235.233C250.214 234.954 250.057 234.684 249.9 234.405C248.914 234.911 246.377 235.111 245.269 235.103C244.781 235.103 243.185 236.053 244.292 236.184C248.295 236.681 252.036 235.992 255.725 234.388C257.818 233.481 262.283 231.658 262.754 229.059C262.911 228.17 261.114 228.885 260.87 229.164C260.713 229.338 260.556 229.513 260.408 229.687C259.85 230.315 261.812 230.202 262.23 229.731C262.387 229.556 262.544 229.382 262.693 229.208C262.065 229.242 261.437 229.277 260.809 229.312C260.443 231.353 256.545 232.905 254.966 233.594C251.931 234.911 248.81 235.547 245.505 235.137C245.182 235.495 244.85 235.861 244.528 236.219C246.664 236.236 249.211 235.983 251.129 234.998C251.897 234.606 251.277 234.082 250.658 234.17C248.714 234.44 246.621 234.422 244.676 234.152C244.353 234.51 244.022 234.876 243.699 235.233C247.955 235.26 252.603 234.85 256.597 233.315C257.46 232.984 257.234 232.26 256.344 232.373C254.365 232.626 252.411 233.106 250.44 233.42C246.978 233.969 248.993 233.707 249.725 233.402C250.623 233.027 251.583 232.792 252.498 232.469C255.167 231.527 259.832 230.481 261.289 227.751C261.498 227.35 261.105 227.202 260.757 227.176C258.018 226.984 255.385 227.612 252.69 227.969C250.449 228.266 248.06 228.091 245.932 228.928C245.635 229.051 245.007 229.521 245.539 229.801C247.484 230.821 250.414 229.966 252.429 229.678C255.184 229.286 257.783 228.815 260.26 227.49C261.245 226.966 260.094 226.583 259.518 226.714C257.495 227.176 244.484 228.292 244.833 231.205C244.85 231.362 245.095 231.449 245.208 231.475C250.283 232.452 255.786 230.376 260.669 229.199C261.576 228.981 261.829 228.083 260.669 228.17C257.582 228.397 254.513 229.382 251.513 230.132C250.022 230.498 247.99 230.777 247.048 232.129C246.865 232.391 247.074 232.643 247.362 232.678C250.955 233.097 255.176 231.074 258.254 229.46C257.853 229.269 257.443 229.077 257.042 228.885C255.899 229.548 251.923 232.007 254.181 233.193C255.202 233.733 257.94 232.164 258.716 231.763C260.626 230.769 262.623 229.6 264.227 228.152C265.03 227.42 263.434 227.455 263.059 227.594C261.882 228.039 252.437 232.242 253.327 234.379C253.492 234.78 254.112 234.675 254.434 234.606C257.626 233.934 260.251 232.077 263.19 230.795C262.754 230.655 262.326 230.516 261.89 230.376C261.629 230.943 261.35 231.51 261.062 232.068C260.617 232.949 262.544 232.556 262.884 232.111C264.097 230.507 265.832 226.775 264.576 224.812C264.323 224.411 263.329 224.717 263.059 224.908C260.87 226.434 259.379 229.644 258.707 232.173C258.481 233.018 260.355 232.356 260.591 232.068C262.318 229.984 265.012 227.167 264.489 224.246C264.402 223.757 263.364 223.984 263.129 224.106C260.983 225.179 259.309 228.213 258.263 230.254C257.818 231.117 259.745 230.76 260.085 230.298C261.376 228.501 262.204 226.434 263.521 224.664C262.911 224.647 262.309 224.638 261.698 224.621C261.637 224.751 261.079 225.955 260.948 225.964C261.21 226.147 261.463 226.339 261.725 226.522C262.483 225.057 257.748 227.272 257.408 227.411C255.489 228.213 253.51 228.789 251.644 229.713C250.615 230.219 251.234 230.83 252.158 230.603C255.097 229.897 257.469 227.507 260.417 226.853C260.05 226.731 259.675 226.609 259.309 226.487C259.196 228.336 252.097 230.673 251.138 230.777C251.4 230.96 251.652 231.152 251.914 231.335C253.266 228.867 257.513 228.545 259.701 227.062C260.408 226.583 259.885 226.182 259.231 226.234C254.957 226.574 250.667 227.097 246.49 228.074C245.879 228.213 245.164 229.173 246.237 229.12C247.911 229.042 249.56 228.798 251.225 228.632C252.446 228.519 254.129 228.353 255.402 228.492C255.96 228.554 256.963 228.301 256.021 228.763C255.263 229.138 253.981 229.059 253.126 229.181C251.025 229.469 248.923 229.94 246.813 230.167C246.97 230.446 247.126 230.725 247.283 230.995C248.042 230.533 250.894 230.62 251.713 230.498C253.562 230.228 255.472 229.801 257.338 229.678C258.201 229.617 258.951 229.12 258.018 229.897C257.434 230.385 256.466 230.585 255.768 230.891C253.44 231.893 250.911 233.062 248.417 233.55C246.516 233.925 246.76 233.655 248.382 233.062C249.673 232.591 251.016 232.26 252.385 232.085C252.769 232.033 258.603 231.449 258.986 232.329C259.318 233.097 256.492 234.004 256.004 234.082C254.774 234.344 253.519 234.37 252.254 234.143C252.254 233.838 252.254 233.542 252.263 233.236C253.414 232.748 257.469 233.359 258.638 233.594C258.882 233.236 259.126 232.879 259.37 232.521C254.792 233.376 249.263 234.213 244.641 233.533C244.484 233.873 244.327 234.213 244.17 234.553C245.627 234.108 247.519 234.283 249.028 234.074C251.016 233.803 252.952 233.359 254.879 232.809C256.074 232.434 255.83 231.449 254.652 231.789Z" fill="#272525"/>
<path d="M222.204 201.424C223.773 201.721 225.404 203.23 226.991 203.683C229.023 204.267 231.221 204.503 233.314 204.703C237.717 205.122 242.2 204.581 246.621 204.747C250.371 204.895 254.26 205.497 257.975 204.764C260.705 204.224 264.751 204.302 267.123 202.706C268.265 201.948 266.512 201.817 265.911 202.131C265.745 202.218 265.571 202.305 265.405 202.392C264.245 202.994 265.972 203.299 266.617 202.968C266.783 202.881 266.957 202.794 267.123 202.706C266.722 202.514 266.312 202.323 265.911 202.131C264.934 202.785 263.39 202.628 262.292 202.802C260.208 203.142 258.184 203.805 256.065 203.962C252.403 204.224 248.679 203.631 245.008 203.622C240.961 203.613 236.872 203.918 232.86 203.43C230.863 203.186 228.727 202.968 226.878 202.131C225.526 201.52 224.863 200.64 223.407 200.369C222.779 200.247 221.105 201.215 222.204 201.424Z" fill="#272525"/>
<path d="M224.413 209.107C231.607 212.84 241.156 211.872 249.014 212.343C252.946 212.578 256.365 212.142 260.228 211.61C262.774 211.261 265.452 211.375 267.806 210.215C268.617 209.822 268.478 209.195 267.553 209.273C267.3 209.29 267.047 209.317 266.795 209.334C266.446 209.36 265.766 209.587 265.687 209.997C265.67 210.075 265.652 210.163 265.635 210.241C265.487 210.982 267.457 210.668 267.588 209.997C267.606 209.918 267.623 209.831 267.64 209.753C267.274 209.971 266.899 210.197 266.533 210.415C266.786 210.398 267.039 210.372 267.292 210.354C267.204 210.04 267.126 209.726 267.039 209.413C265.199 210.311 262.522 210.224 260.498 210.529C256.862 211.069 253.478 211.453 249.781 211.235C242.185 210.79 232.916 211.767 225.983 208.166C225.399 207.869 223.611 208.697 224.413 209.107Z" fill="#272525"/>
<path d="M224.113 217.156C227.514 219.249 231.22 220.304 235.214 220.531C239.365 220.767 243.569 220.976 247.72 221.142C251.6 221.299 255.673 221.185 259.51 220.601C261.943 220.226 265.038 220.217 267.123 218.813C267.515 218.552 267.681 218.142 267.114 217.993C267.044 217.976 266.974 217.959 266.905 217.932C266.285 217.767 264.611 218.7 265.71 218.996C265.78 219.014 265.849 219.031 265.919 219.057C265.919 218.787 265.91 218.508 265.91 218.238C264.315 219.302 261.001 219.424 259.074 219.65C255.08 220.13 250.868 220.235 246.865 219.903C239.644 219.302 232.066 220.156 225.657 216.206C225.125 215.874 223.32 216.668 224.113 217.156Z" fill="#272525"/>
<path d="M304.953 47.5864C305.136 47.7347 315.234 39.1624 316.202 38.3514C317.423 37.3224 318.592 36.2324 319.778 35.1685C320.379 34.6278 321.487 33.1191 322.176 32.9709C323.397 32.7093 323.187 33.3371 323.894 34.497C324.53 35.5434 325.228 36.5114 325.925 37.5143C326.501 38.334 328.367 40.4356 328.045 41.3862C328.175 41.4646 328.315 41.5518 328.446 41.6303C327.704 41.6827 326.972 41.7873 326.248 41.953C324.007 42.4326 321.801 43.2087 319.594 43.8715C314.537 45.3888 309.252 47.7695 303.95 48.0747C303.27 48.1184 302.215 49.1735 303.435 49.1735C303.723 49.1735 304.02 49.1735 304.307 49.1735C305.04 49.1735 306.383 48.066 305.066 48.066C304.778 48.066 304.482 48.066 304.194 48.066C304.02 48.4323 303.854 48.7985 303.68 49.1648C310.342 48.7724 317.004 45.7028 323.362 43.8192C325.114 43.2959 327.303 43.2436 328.969 42.5634C329.292 42.4326 329.667 42.3977 329.876 42.0664C330.818 40.6362 328.507 37.8631 327.731 36.7556C326.763 35.3603 325.42 31.6105 323.754 31.1134C322.254 30.6687 320.885 32.4128 320.013 33.2412C314.615 38.3427 308.415 42.5111 303.087 47.6823C302.964 47.8044 302.764 48.066 302.964 48.223C303.017 48.2666 303.069 48.3102 303.13 48.3538C303.671 48.7898 305.485 48.0224 304.953 47.5864Z" fill="#272525"/>
<path d="M160.93 62.4467C160.965 63.0833 160.921 62.9525 161.366 63.4059C161.924 63.1181 162.491 62.8391 163.049 62.5513C160.511 60.9206 157.834 59.6387 155.34 57.8597C153.221 56.3423 151.111 54.7901 148.948 53.3425C146.812 51.9123 144.536 50.6653 142.286 49.4095C141.3 48.8601 139.835 48.7817 140.367 47.2294C140.542 46.7149 142.495 45.7295 142.922 45.433C145.233 43.7936 147.98 41.9535 150.675 41.0292C152.393 40.4449 152.541 41.2559 153.535 42.7645C154.381 44.0464 155.07 45.4766 155.715 46.8719C158.078 51.9995 159.221 57.5283 161.584 62.6559C161.889 63.31 163.599 62.8478 163.537 62.1327C163.529 62.0629 163.529 61.9932 163.52 61.9234C163.468 61.2868 161.506 61.6967 161.567 62.4467C161.575 62.5164 161.575 62.5862 161.584 62.6559C162.238 62.4815 162.883 62.3071 163.537 62.1327C161.959 58.7056 161.017 55.1651 159.77 51.6245C158.471 47.9271 156.762 44.5697 154.869 41.1512C154.102 39.7647 153.718 38.8142 151.983 39.1543C150.544 39.4333 148.957 40.7065 147.675 41.3606C146.097 42.1628 144.527 42.9738 143.036 43.9244C141.701 44.779 138.187 46.2876 138.013 48.0143C137.856 49.5491 141.213 50.6479 142.155 51.1885C145.931 53.3425 149.48 55.7057 152.994 58.2521C155.724 60.2317 158.671 61.6967 161.479 63.5018C161.898 63.7722 163.703 63.1966 163.163 62.6472C163.067 62.4118 162.962 62.1676 162.866 61.9322C162.849 61.2956 160.886 61.6967 160.93 62.4467Z" fill="#272525"/>
<path d="M151.124 130.179C142.787 133.021 134.162 132.149 125.625 133.789C124.195 134.068 120.227 134.155 119.268 135.542C118.701 136.361 119.154 136.623 119.521 137.338C120.428 139.117 121.588 140.608 122.259 142.597C122.896 144.489 123.009 147.184 125.547 146.974C127.901 146.782 130.648 144.253 132.488 142.945C136.029 140.425 139.787 138.28 143.363 135.821C145.229 134.53 147.112 133.379 149.223 132.516C150.269 132.088 151.132 131.836 152.039 131.138C152.911 130.466 150.976 130.432 150.47 130.815C148.734 132.141 145.935 132.777 144.025 133.981C141.453 135.603 138.81 137.199 136.308 138.908C133.901 140.556 131.529 142.326 129.044 143.844C127.744 144.637 126.201 145.989 124.849 144.288C124.064 143.303 123.768 140.774 123.271 139.571C122.852 138.559 122.399 137.922 121.814 137.042C120.777 135.481 121.343 135.76 122.974 135.393C126.349 134.635 129.715 134.155 133.16 133.902C139.456 133.44 145.342 133.196 151.385 131.138C152.519 130.772 152.292 129.786 151.124 130.179Z" fill="#272525"/>
<path d="M335.441 123.655C334.822 123.655 334.203 123.655 333.592 123.655C333.339 124.022 333.086 124.397 332.834 124.763C339.304 124.667 345.749 124.152 352.193 123.594C353.815 123.455 355.446 123.324 357.059 123.089C358.358 122.897 358.882 122.321 359.021 123.516C359.117 124.327 358.385 126.097 358.14 126.899C357.591 128.713 356.763 130.483 355.96 132.193C355.315 133.57 354.617 134.887 353.641 136.065C352.725 137.163 352.812 137.268 351.766 136.422C349.725 134.765 347.702 133.073 345.522 131.574C343.56 130.231 341.598 128.6 339.435 127.58C337.7 126.76 334.168 125.827 333.13 123.995C332.677 124.266 332.223 124.536 331.77 124.815C332.092 124.798 332.406 124.78 332.729 124.763C333.453 124.728 334.796 123.586 333.488 123.655C333.165 123.673 332.851 123.69 332.528 123.708C332.293 123.716 330.871 123.995 331.168 124.527C332.842 127.484 338.031 128.434 340.63 130.292C342.539 131.661 344.51 132.96 346.42 134.373C347.554 135.21 348.722 135.986 349.743 136.963C350.222 137.425 350.536 138.149 351.147 138.471C353.178 139.561 354.617 137.268 355.62 135.881C358.541 131.8 360.007 126.917 361.445 122.182C361.472 122.086 361.445 121.998 361.376 121.92C360.722 121.301 360.286 121.388 359.405 121.51C356.885 121.859 354.408 122.356 351.835 122.574C345.757 123.097 339.679 123.568 333.575 123.664C332.851 123.673 331.491 124.772 332.816 124.772C333.435 124.772 334.054 124.772 334.665 124.772C335.415 124.763 336.758 123.655 335.441 123.655Z" fill="#272525"/>
<path d="M164.958 187.358C165.011 187.306 165.072 187.253 165.124 187.192C164.601 187.088 164.078 186.974 163.554 186.87C158.941 191.5 154.651 196.811 150.962 202.2C150.23 203.273 148.555 204.782 149.663 205.968C150.509 206.875 152.724 206.761 153.857 206.866C156.255 207.093 158.68 207.947 161.06 208.06C161.985 208.104 162.7 208.06 163.284 207.18C163.851 206.325 163.711 204.459 163.79 203.491C163.929 201.86 163.956 200.221 164.078 198.59C164.217 196.767 164.374 194.936 164.583 193.122C164.775 191.431 164.636 189.468 165.429 187.977C164.801 188.012 164.174 188.047 163.546 188.082C163.537 188.152 163.537 188.221 163.528 188.291C163.467 189.076 165.429 188.701 165.482 188.047C165.49 187.977 165.49 187.908 165.499 187.838C165.56 187.027 163.842 187.498 163.615 187.942C162.682 189.695 162.804 191.404 162.63 193.375C162.429 195.756 162.116 198.128 161.993 200.517C161.941 201.468 162.229 206.247 161.557 206.761C160.964 207.215 156.909 205.968 156.22 205.88C155.183 205.758 153.787 205.976 152.837 205.566C151.093 204.816 151.546 204.075 152.453 202.732C153.168 201.668 153.91 200.631 154.677 199.602C157.86 195.311 161.374 190.977 165.142 187.201C165.944 186.399 164.034 186.425 163.572 186.878C163.52 186.931 163.458 186.983 163.406 187.044C162.578 187.838 164.496 187.812 164.958 187.358Z" fill="#272525"/>
<path d="M316.956 168.722C318.657 171.958 322.058 173.937 325.345 175.289C327.185 176.039 329.104 176.588 330.996 177.19C332.61 177.705 335.714 178.202 336.961 179.518C337.066 179.292 337.162 179.074 337.266 178.847C336.795 179.161 335.88 179.021 335.304 179.283C334.336 179.728 333.726 180.504 333.002 181.28C331.729 182.649 325.136 189.373 323.593 187.803C322.93 187.131 323.095 184.271 322.703 183.286C321.944 181.393 321.072 179.597 320.444 177.643C319.843 175.812 319.136 173.998 318.901 172.08C318.753 170.842 318.988 169.795 318.195 168.74C317.793 168.208 315.91 168.879 316.381 169.507C317.052 170.397 316.869 171.304 316.948 172.307C317.052 173.649 317.392 174.74 317.802 176.013C318.474 178.132 319.136 180.242 320.035 182.283C320.497 183.338 321.046 184.315 321.29 185.457C321.491 186.416 321.099 187.724 321.473 188.588C321.866 189.477 321.892 189.564 322.895 189.591C325.45 189.652 329.156 186.591 331.031 185.152C332.583 183.957 333.595 182.283 335.095 181.062C336.202 180.164 337.362 180.164 338.478 179.431C338.67 179.3 339.019 179.004 338.784 178.76C337.101 176.981 333.377 176.519 331.092 175.795C326.671 174.391 321.229 172.612 318.918 168.217C318.561 167.536 316.668 168.173 316.956 168.722Z" fill="#272525"/>
<path d="M182.266 99.4826C183.687 106.433 185.248 113.357 187.027 120.229C187.873 123.499 188.824 126.743 189.696 130.013C190.28 132.193 190.76 135.149 192.294 136.911C192.608 137.268 193.794 136.937 193.742 136.414C193.655 135.551 193.315 134.87 192.844 134.155C192.573 133.737 191.117 134.225 191.449 134.74C191.928 135.463 192.155 135.987 192.242 136.815C192.722 136.649 193.201 136.484 193.69 136.318C192.033 134.417 191.623 131.112 190.978 128.766C190.079 125.461 189.129 122.182 188.283 118.868C186.6 112.31 185.126 105.709 183.766 99.0815C183.652 98.567 182.153 98.9332 182.266 99.4826Z" fill="#272525"/>
<path d="M181.541 90.6834C180.66 90.9276 180.302 91.5467 180.311 92.4275C180.329 93.3868 180.791 94.0059 181.628 94.4506C182.012 94.6512 182.674 94.4332 182.919 94.1018C183.485 93.3519 184.148 91.9828 183.817 91.0322C183.346 89.698 181.236 90.4218 181.349 91.7124C181.393 92.2008 182.901 91.8781 182.849 91.3113C182.84 91.2241 182.84 91.1369 182.849 91.0409C182.552 91.0584 182.256 91.0758 181.959 91.0933C183.014 91.5031 181.968 93.5001 181.532 94.067C181.959 93.9536 182.395 93.8315 182.823 93.7181C182.299 93.4391 181.959 93.099 181.855 92.506C181.82 92.2792 181.802 92.0525 181.829 91.8258C181.837 91.7299 181.863 91.6426 181.872 91.5467C181.898 91.2764 182.134 91.3113 181.741 91.4159C181.959 91.3549 182.474 91.1543 182.387 90.8404C182.308 90.5526 181.741 90.6311 181.541 90.6834Z" fill="#272525"/>
<path d="M199.617 96.1768C198.884 97.7814 199.451 98.4093 199.966 99.9615C200.576 101.775 200.812 103.825 201.248 105.691C202.163 109.606 202.887 113.504 203.402 117.498C203.881 121.24 204.317 124.981 204.701 128.73C204.989 131.556 205.355 134.931 206.881 137.39C207.125 137.782 208.25 137.399 208.329 137.006C208.486 136.204 208.459 135.524 208.425 134.695C208.407 134.224 206.898 134.521 206.925 135.096C206.986 135.794 206.959 136.492 206.829 137.189C207.308 137.058 207.788 136.928 208.276 136.806C206.715 134.294 206.436 130.719 206.157 127.858C205.808 124.257 205.364 120.681 204.91 117.097C204.465 113.6 203.916 110.147 203.096 106.711C202.678 104.967 202.277 103.214 201.893 101.461C201.474 99.5866 200.253 97.8773 201.125 95.9763C201.317 95.5402 199.835 95.6885 199.617 96.1768Z" fill="#272525"/>
<path d="M200.069 95.5922C203.078 95.5661 206.069 95.3742 208.946 96.4381C211.179 97.2578 213.342 98.4962 215.112 100.101C218.312 103.005 220.152 108.708 220.553 112.946C221.068 118.361 219.193 123.69 216.001 128.024C214.615 129.907 213.246 132.323 211.441 133.84C209.941 135.105 208.013 135.148 206.557 136.456C207.011 136.465 207.455 136.474 207.909 136.483C207.926 136.378 207.952 136.282 207.97 136.177C208.083 135.61 206.575 135.855 206.47 136.369C206.452 136.474 206.426 136.57 206.409 136.674C206.287 137.285 207.569 136.875 207.761 136.701C208.842 135.733 210.141 135.741 211.318 135.096C212.077 134.677 212.705 134.05 213.298 133.422C215.086 131.503 216.743 129.149 218.19 126.96C221.173 122.434 222.734 117.01 221.949 111.603C221.269 106.842 219.193 101.426 215.251 98.4962C210.726 95.13 206.13 94.7115 200.671 94.7551C200.095 94.7463 199.066 95.601 200.069 95.5922Z" fill="#272525"/>
<path d="M241.769 97.9391C238.307 97.6426 234.897 97.6339 231.426 97.4507C230.249 97.3897 228.173 96.945 227.284 98.1397C226.804 98.7937 226.996 99.657 227.014 100.407C227.066 102.395 226.944 104.392 227.057 106.381C227.284 110.191 227.485 113.95 227.537 117.769C227.589 121.685 227.04 125.574 227.014 129.498C227.005 131.19 226.456 134.181 227.598 135.69C228.993 137.521 232.403 136.702 234.33 136.702C236.092 136.702 237.871 136.806 239.632 136.78C240.949 136.763 242.161 136.283 243.46 136.248C244.019 136.231 245.048 135.367 244.045 135.402C243.042 135.428 242.17 135.664 241.167 135.803C239.746 135.995 238.324 135.864 236.894 135.864C234.74 135.856 229.333 136.702 228.618 134.225C228.034 132.228 228.496 128.993 228.54 127.013C228.601 124.31 229.028 121.633 229.046 118.929C229.098 112.964 228.514 107.069 228.514 101.113C228.514 99.9361 228.217 98.4972 229.752 98.2094C230.633 98.0438 231.915 98.3402 232.821 98.3402C235.647 98.3402 238.368 98.5582 241.176 98.7937C241.76 98.8373 242.772 98.0263 241.769 97.9391Z" fill="#272525"/>
<path d="M227.02 117.063C229.008 117.237 230.979 117.813 232.993 117.97C235.104 118.135 237.231 117.996 239.35 117.978C239.909 117.97 240.938 117.124 239.935 117.133C237.702 117.15 235.47 117.29 233.246 117.08C231.336 116.906 229.488 116.383 227.604 116.217C227.028 116.156 226.017 116.967 227.02 117.063Z" fill="#272525"/>
<path d="M251.736 129.865C251.413 130.283 251.413 130.301 251.195 130.78C251.692 130.719 252.198 130.658 252.695 130.588C253.14 124.066 252.73 117.386 252.73 110.845C252.73 107 252.591 103.145 252.73 99.3081C252.791 97.7035 252.913 96.1077 253.157 94.5205C253.218 94.1281 253.314 92.7764 253.55 92.3666C253.916 91.7387 253.341 91.8957 253.942 92.3317C254.98 93.0904 255.808 95.035 256.48 96.1164C257.518 97.782 258.494 99.4738 259.436 101.192C260.988 104.017 262.445 106.904 263.91 109.773C265.418 112.729 266.936 115.685 268.34 118.702C269.543 121.284 270.52 124.013 272.133 126.376C272.595 126.185 273.058 125.984 273.528 125.792C273.433 125.688 273.337 125.574 273.241 125.47C272.901 125.086 271.462 125.626 271.845 126.054C271.941 126.158 272.037 126.272 272.133 126.376C272.456 126.743 273.877 126.298 273.528 125.792C271.357 122.609 270.084 118.729 268.401 115.275C266.692 111.778 264.904 108.325 263.108 104.872C261.538 101.846 259.916 98.8372 258.119 95.9245C257.256 94.5293 255.651 90.5615 253.602 90.7969C251.884 90.9975 251.858 93.4479 251.666 94.7037C251.134 98.2355 251.178 101.82 251.221 105.378C251.265 109.319 251.248 113.261 251.248 117.203C251.248 121.702 251.518 126.289 251.213 130.772C251.169 131.452 252.53 130.972 252.713 130.58C252.861 130.344 253.009 130.118 253.149 129.882C253.541 129.368 252.041 129.481 251.736 129.865Z" fill="#272525"/>
<path d="M251.225 115.231C254.033 115.196 256.798 114.9 259.562 114.376C260.591 114.185 261.611 113.975 262.632 113.748C263.8 113.487 265.623 112.536 266.756 112.493C267.315 112.467 268.344 111.603 267.341 111.647C265.379 111.725 263.573 112.763 261.646 113.173C258.385 113.862 255.15 114.35 251.81 114.385C251.251 114.394 250.222 115.248 251.225 115.231Z" fill="#272525"/>
<path d="M294.174 95.8891C291.313 91.3196 286.77 88.7558 281.86 89.2267C277.831 89.6104 273.21 92.4097 273.14 97.6507C273.035 104.889 279.767 107.862 284.468 110.278C288.662 112.441 292.839 115.318 293.345 121.126C293.999 128.652 288.026 134.503 281.564 131.905C280.971 131.669 279.61 132.315 280.683 132.742C289.229 136.178 299.205 126.646 293.694 116.339C290.659 110.662 284.415 109.659 279.863 106.354C276.044 103.581 272.974 98.139 276.366 93.4038C280.849 87.1599 288.994 90.5522 292.491 96.1333C292.831 96.6914 294.505 96.4298 294.174 95.8891Z" fill="#272525"/>
<path d="M230.53 23.2738C229.126 22.3407 228.464 18.8787 227.801 17.4137C226.816 15.251 225.673 13.1755 224.496 11.1175C223.406 9.21642 222.272 7.34152 221.226 5.42302C220.014 3.20802 221.836 3.68765 223.502 3.25163C224.714 2.93769 227.984 0.975579 228.882 1.368C229.972 1.85635 229.833 5.24862 229.868 6.14683C230.077 12.0506 229.24 17.8759 229.109 23.7622C229.763 23.6314 230.408 23.5093 231.062 23.3785C231.062 23.3087 231.062 23.2302 231.062 23.1605C231.062 22.5588 229.109 22.925 229.109 23.6837C229.109 23.7535 229.109 23.8319 229.109 23.9017C229.109 24.4947 231.054 24.1284 231.062 23.518C231.219 16.6114 232.684 9.41702 231.568 2.52784C231.376 1.32441 231.289 0.277934 230.025 0.0250399C229.327 -0.114488 228.708 0.365143 228.106 0.574434C226.048 1.28079 224.086 2.15286 221.923 2.52784C220.903 2.70225 219.011 2.65863 218.592 3.93182C218.165 5.23117 220.223 7.64675 220.746 8.5624C222.804 12.1291 225.002 15.6696 226.528 19.5066C227.191 21.1635 227.409 23.1779 228.978 24.2244C229.501 24.5732 231.307 23.7883 230.53 23.2738Z" fill="#272525"/>
<path d="M63.2187 224.993C62.8004 223.812 63.7544 222.245 64.1434 221.137C64.657 219.669 65.2551 218.242 65.9046 216.829C67.2328 213.934 68.6785 211.061 70.4324 208.397C73.8227 203.249 78.0606 198.978 82.4416 194.696C84.4157 192.766 86.4081 190.807 88.5179 189.028C88.8407 188.756 89.7507 187.919 89.9672 187.927C90.5946 187.938 90.4038 187.982 90.5286 188.521C90.635 188.972 90.5396 189.626 90.5542 190.081C90.6129 191.633 90.723 193.185 90.7634 194.737C90.9248 201.129 90.2057 207.509 89.2003 213.817C88.683 217.075 88.0188 220.164 87.2079 223.364C86.375 226.651 85.9824 230.034 85.1862 233.34C85.0945 233.722 86.1439 233.568 86.232 233.208C87.0282 229.902 87.4208 226.519 88.2537 223.232C89.0939 219.922 89.7617 216.712 90.3011 213.34C91.4055 206.423 92.0586 199.448 91.7358 192.44C91.6991 191.669 91.644 190.899 91.611 190.128C91.5816 189.405 91.7577 188.451 91.5706 187.74C91.4238 187.182 91.2734 186.976 90.6533 187.002C89.8534 187.035 89.0315 187.795 88.4408 188.246C87.0868 189.273 85.876 190.499 84.6285 191.651C79.7632 196.138 75.0446 200.696 71.1002 206.034C68.8143 209.127 66.976 212.47 65.3358 215.941C64.558 217.585 63.8205 219.251 63.2077 220.968C62.7601 222.226 61.707 223.947 62.1767 225.276C62.3014 225.635 63.3398 225.338 63.2187 224.993Z" fill="#272525"/>
<path d="M62.0363 225.624C64.8433 226.24 67.2466 227.598 69.8811 228.732C72.5229 229.869 75.1647 231.003 77.7956 232.163C79.7622 233.032 82.1215 234.955 84.3377 235.006C85.4862 235.036 85.6696 234.43 85.8898 233.406C85.9742 233.018 84.9248 233.179 84.8441 233.539C84.5836 234.735 84.1359 234.371 83.0168 233.858C82.0922 233.436 81.2262 232.871 80.3053 232.427C78.2725 231.447 76.1737 230.607 74.1043 229.708C70.3507 228.079 66.6522 225.929 62.6674 225.055C62.3409 224.986 61.4456 225.496 62.0363 225.624Z" fill="#272525"/>
<path d="M74.2028 201.664C74.1698 201.738 74.1405 201.811 74.1074 201.881C74.3863 201.763 74.6688 201.65 74.9477 201.532C72.4637 201.257 69.9649 200.806 67.4772 201.451C65.195 202.042 63.1585 203.308 61.5184 204.985C59.5444 207.007 57.9813 209.524 56.5246 211.931C55.1267 214.25 53.1967 217.001 53.0389 219.783C53.0352 219.871 53.0609 219.933 53.1453 219.97C54.5396 220.594 56.066 220.274 57.5447 220.249C58.3336 220.234 59.1224 220.227 59.9113 220.172C61.1368 220.084 62.377 219.607 63.5952 219.599C63.9878 219.596 64.7033 219.001 64.0025 219.009C62.421 219.02 60.9387 219.57 59.3536 219.636C58.1685 219.684 56.8365 219.856 55.655 219.772C54.2864 219.673 54.0076 219.181 54.3672 217.996C54.6423 217.086 55.1193 216.253 55.567 215.42C56.2935 214.07 57.0237 212.723 57.8309 211.417C59.4307 208.834 61.1442 206.023 63.5292 204.086C66.8094 201.422 70.3722 201.672 74.3093 202.105C74.6065 202.138 75.0174 202.061 75.1495 201.756C75.1825 201.683 75.2119 201.609 75.2449 201.539C75.388 201.213 74.3533 201.323 74.2028 201.664Z" fill="#272525"/>
<path d="M90.5946 207.469C93.5116 209.938 96.3809 212.936 97.9147 216.477C99.4667 220.062 98.9897 223.98 98.5494 227.76C98.3403 229.572 97.966 231.245 97.4854 233.007C97.3863 233.366 97.3019 234.753 97.0377 235.072C96.2892 235.971 95.2068 234.632 94.6784 234.203C91.8458 231.91 89.193 229.444 87.2336 226.347C87.0502 226.057 86.0338 226.391 86.265 226.754C87.4795 228.67 88.9398 230.368 90.591 231.921C92.055 233.296 93.6804 234.94 95.3756 236.023C98.1788 237.81 98.5384 232.926 98.9677 231.348C99.5548 229.176 99.841 226.806 99.9731 224.56C100.098 222.436 100.237 219.944 99.6245 217.897C98.3256 213.545 94.9573 209.931 91.5706 207.065C91.2844 206.823 90.3084 207.227 90.5946 207.469Z" fill="#272525"/>
<path d="M85.2926 202.941C83.7368 201.217 80.541 201.965 78.8825 203.18C76.3397 205.04 77.2277 208.5 79.576 210.074C81.7335 211.52 84.6064 211.923 85.8429 209.113C86.419 207.806 86.5584 206.309 86.2025 204.933C85.986 204.101 85.6852 202.611 84.8083 202.207C84.5 202.064 83.546 202.515 83.9753 202.714C84.9403 203.158 85.41 205.869 85.366 206.775C85.3256 207.557 85.1421 208.397 84.8339 209.116C84.7495 209.373 84.6248 209.612 84.4597 209.828C83.6891 210.048 82.9186 210.268 82.1481 210.489C81.8032 210.448 81.3115 210.085 81.0143 209.924C79.4549 209.061 78.0973 207.432 78.3872 205.535C78.7504 203.165 82.5333 201.367 84.3239 203.352C84.5661 203.62 85.5604 203.242 85.2926 202.941Z" fill="#272525"/>
<path d="M80.9397 216.47C80.1838 214.767 76.6908 214.697 75.2194 215.314C74.0196 215.816 72.7941 216.932 72.3097 218.15C71.6529 219.805 72.9592 221.353 74.104 222.465C75.9276 224.237 79.1197 225.525 81.0094 223.151C82.0257 221.871 82.1615 220.392 81.7212 218.906C81.402 217.824 81.2479 216.382 80.0774 215.883C79.7655 215.75 78.8152 216.205 79.2482 216.389C80.3086 216.84 81.0938 219.669 80.9984 220.73C80.969 221.071 80.8186 221.474 80.7085 221.797C80.3122 222.942 80.2389 222.938 78.9143 223.324C77.6374 223.694 77.5677 223.716 76.5917 223.144C76.0523 222.828 75.5313 222.491 75.0763 222.054C74.4856 221.485 73.9866 220.796 73.5646 220.091C72.761 218.752 73.4325 217.457 74.5296 216.488C75.5533 215.582 79.1051 214.954 79.8976 216.748C80.0554 217.112 81.0791 216.789 80.9397 216.47Z" fill="#272525"/>
<path d="M67.4374 227.536C66.5165 229.007 65.4964 230.354 64.3627 231.667C63.849 232.262 62.0291 234.137 62.2859 235.061C62.5061 235.85 64.1902 235.968 64.814 236.162C66.9348 236.826 69.0262 237.564 71.1397 238.25C72.7908 238.786 74.3759 239.457 76.0087 240.015C76.5518 240.198 77.1902 240.488 77.7039 240.099C78.5001 239.494 78.3973 237.564 78.4964 236.72C78.6872 235.094 79.0395 233.48 78.8487 231.84C78.8083 231.484 77.8506 231.752 77.8029 232.045C77.7993 232.078 77.792 232.108 77.7883 232.141C77.7259 232.544 78.7753 232.364 78.834 232.009C78.8377 231.976 78.845 231.946 78.8487 231.913C78.5001 231.983 78.1515 232.049 77.8029 232.119C77.9791 233.612 77.6745 235.058 77.4874 236.533C77.4067 237.171 77.37 237.813 77.2709 238.448C77.2709 238.448 76.7646 240.077 77.359 239.618C77.0618 239.85 74.3722 238.529 73.8549 238.356C72.3945 237.876 70.9269 237.421 69.4739 236.922C68.197 236.485 66.9165 236.059 65.6359 235.637C65.2176 235.502 64.381 235.362 64.0031 235.102C63.6582 235.157 63.5224 235.006 63.5995 234.65C63.4747 234.357 63.5334 234.104 63.7719 233.884C64.2196 232.713 65.3167 231.763 66.0982 230.823C66.9568 229.796 67.7053 228.692 68.4135 227.558C68.663 227.151 67.6172 227.246 67.4374 227.536Z" fill="#272525"/>
<path d="M67.5248 239.149C64.6225 237.978 61.1074 242.007 60.0727 244.282C59.97 244.506 60.4396 244.513 60.524 244.506C60.9863 244.462 61.1515 244.37 61.5954 244.227C61.445 244.275 63.4741 243.614 63.6098 243.732C64.1786 244.209 62.8283 247.496 62.7182 248.171C62.5017 249.489 62.7109 250.677 62.909 251.984C63.0154 252.681 63.0301 254.794 63.6135 255.315C64.6152 256.207 65.9361 254.068 66.3434 253.609C67.2974 252.538 68.3431 251.426 69.2054 250.288C69.9832 249.261 70.3611 248.105 70.8969 246.957C70.585 247.063 70.2731 247.17 69.9575 247.276C71.3371 247.779 70.8234 249.867 71.9279 250.432C72.1627 250.553 72.5847 250.439 72.7608 250.266C73.5754 249.463 73.6561 247.812 73.546 246.744C73.3295 244.605 72.3425 242.264 70.695 240.855C69.9355 240.206 68.4091 238.874 67.3414 239.141C66.1342 239.446 65.5325 241.512 65.4297 242.539C65.4077 242.767 65.7233 242.789 65.881 242.763C66.7983 242.613 67.5322 242.202 68.3468 241.739C68.0643 241.71 67.7817 241.681 67.4992 241.651C67.4772 243.596 65.3967 245.133 65.1912 247.148C65.1802 247.247 65.2206 247.283 65.2977 247.335C67.6569 248.938 71.8949 241.758 69.4475 240.202C69.1613 240.018 68.1963 240.44 68.6146 240.708C70.4786 241.89 66.9781 247.206 66.2627 246.707C65.8957 246.451 68.5302 242.378 68.5375 241.519C68.5412 241.13 67.8771 241.325 67.69 241.431C67.5395 241.515 66.369 242.125 66.0131 242.187C66.1636 242.26 66.314 242.337 66.4645 242.411C66.5525 241.504 66.9488 240.011 67.7927 239.538C67.5469 239.571 67.301 239.604 67.0515 239.637C69.1577 240.583 70.9042 242.029 71.7371 244.22C72.2838 245.651 73.2562 248.777 71.9096 250.101C72.1884 250.046 72.4673 249.991 72.7425 249.936C72.3425 249.731 72.082 248.432 71.8838 248.036C71.5976 247.463 71.4069 247.012 70.7721 246.781C70.4602 246.667 69.9832 246.781 69.8328 247.1C69.0696 248.74 68.3908 249.977 67.2277 251.342C66.237 252.508 65.272 254.244 63.9987 255.073C64.2446 255.04 64.4904 255.007 64.7399 254.974C64.2262 254.754 64.1235 253.044 64.0428 252.585C63.819 251.338 63.5364 249.9 63.6502 248.637C63.8043 246.953 65.0665 244.975 64.7509 243.321C64.7326 243.233 64.6188 243.2 64.5491 243.178C63.2466 242.778 61.9146 243.831 60.6488 243.948C60.7992 244.021 60.9497 244.099 61.1001 244.172C61.7863 242.664 64.7032 238.877 66.6773 239.674C67.0075 239.78 67.9578 239.325 67.5248 239.149Z" fill="#272525"/>
<path d="M79.3865 202.728C78.715 203.356 78.8838 204.625 78.8801 205.462C78.8764 206.463 78.6122 208.104 79.192 208.984C79.3204 209.179 79.9955 208.951 79.8378 208.713C79.3791 208.016 79.5919 206.691 79.5809 205.909C79.5699 205.194 79.3204 203.425 79.9405 202.846C80.2377 202.567 79.5552 202.57 79.3865 202.728Z" fill="#272525"/>
<path d="M81.4531 202.794C81.4604 202.761 81.4678 202.728 81.4788 202.691C81.5411 202.435 80.8403 202.541 80.7816 202.779C80.1945 205.157 79.7689 207.821 80.1982 210.268C80.2386 210.499 80.7302 210.32 80.8256 210.232C81.0091 210.066 81.0165 210.055 81.0752 209.813C81.1375 209.556 80.4367 209.663 80.378 209.901C80.3413 209.975 80.3046 210.044 80.2643 210.118C80.4734 210.107 80.6826 210.092 80.8917 210.081C80.4661 207.659 80.8954 205.047 81.4751 202.691C81.2439 202.721 81.0128 202.75 80.778 202.779C80.7706 202.812 80.7633 202.846 80.7523 202.882C80.6972 203.139 81.3981 203.033 81.4531 202.794Z" fill="#272525"/>
<path d="M82.466 202.424C81.6074 204.772 80.9543 207.773 81.3286 210.279C81.3653 210.518 81.9963 210.338 82.0257 210.144C82.0293 210.114 82.0367 210.081 82.0404 210.052C82.0807 209.78 81.3799 209.901 81.3432 210.14C81.3395 210.169 81.3322 210.202 81.3286 210.232C81.5597 210.188 81.7908 210.14 82.0257 210.096C81.6551 207.619 82.3156 204.654 83.1632 202.339C83.2439 202.104 82.5504 202.189 82.466 202.424Z" fill="#272525"/>
<path d="M83.7638 202.442C83.4152 204.174 83.1106 205.917 82.9345 207.674C82.8465 208.555 82.4025 209.957 82.6447 210.789C82.7144 211.032 83.4116 210.844 83.3418 210.602C83.2024 210.118 83.4703 209.351 83.5216 208.856C83.5803 208.25 83.6244 207.641 83.6904 207.036C83.8665 205.465 84.149 203.906 84.4609 202.358C84.5123 202.093 83.8115 202.207 83.7638 202.442Z" fill="#272525"/>
<path d="M84.5298 203.499C84.2619 204.658 84.0711 205.832 83.9463 207.017C83.8179 208.236 83.9096 209.446 83.6858 210.657C83.6345 210.925 84.3279 210.8 84.383 210.569C84.3903 210.536 84.3976 210.503 84.405 210.47C84.4673 210.213 83.7666 210.32 83.7079 210.558C83.7005 210.591 83.6932 210.624 83.6858 210.657C83.917 210.628 84.1481 210.599 84.383 210.569C84.6105 209.347 84.5114 208.151 84.6435 206.929C84.7719 205.748 84.9591 204.57 85.2269 203.411C85.2856 203.154 84.5848 203.26 84.5298 203.499Z" fill="#272525"/>
<path d="M74.0565 216.697C74.0639 216.664 74.0712 216.631 74.0822 216.598C73.8511 216.627 73.6199 216.657 73.3851 216.686C73.0805 218.007 73.4144 219.335 73.3227 220.671C73.319 220.729 73.3374 220.77 73.3924 220.795C73.4291 220.814 73.4658 220.828 73.5025 220.847C73.7079 220.942 74.3427 220.645 74.0565 220.509C73.9721 220.469 73.9942 218.961 73.9868 218.821C73.9355 218.069 73.9098 217.335 74.0822 216.598C74.1409 216.341 73.4438 216.451 73.3851 216.686C73.3777 216.719 73.3704 216.752 73.3594 216.785C73.297 217.042 73.9978 216.935 74.0565 216.697Z" fill="#272525"/>
<path d="M75.065 215.915C74.4413 216.568 74.4963 217.482 74.4009 218.33C74.2505 219.694 73.9239 220.997 74.2175 222.362C74.2688 222.601 74.8816 222.421 74.9146 222.226C74.9182 222.197 74.9256 222.164 74.9293 222.135C74.9733 221.867 74.2725 221.984 74.2321 222.223C74.2284 222.252 74.2211 222.285 74.2175 222.314C74.4486 222.27 74.6798 222.223 74.9146 222.179C74.6577 220.982 74.8889 219.852 75.043 218.663C75.1494 217.864 75.021 216.66 75.6228 216.033C75.9016 215.735 75.2228 215.746 75.065 215.915Z" fill="#272525"/>
<path d="M75.7811 215.82C75.7958 217.108 75.7298 218.396 75.8178 219.68C75.9022 220.894 75.6673 222.186 75.9682 223.371C76.0306 223.613 76.559 223.423 76.6397 223.287C76.6581 223.257 76.6764 223.228 76.6948 223.195C76.8599 222.916 76.1627 222.982 76.0453 223.18C76.027 223.21 76.0086 223.239 75.9903 223.272C76.2141 223.243 76.4379 223.213 76.6617 223.188C76.3718 222.054 76.5957 220.682 76.5113 219.496C76.4196 218.212 76.4856 216.924 76.4746 215.636C76.4746 215.416 75.7774 215.548 75.7811 215.82Z" fill="#272525"/>
<path d="M77.3551 215.857C76.8927 218.377 76.9038 221.452 77.311 223.98C77.3514 224.226 77.9678 224.032 78.0082 223.844C78.0229 223.767 78.0412 223.687 78.0559 223.61C78.1109 223.349 77.4101 223.459 77.3587 223.698C77.3441 223.775 77.3257 223.855 77.311 223.932C77.5422 223.888 77.7734 223.841 78.0082 223.797C77.6046 221.28 77.5862 218.297 78.0522 215.772C78.0999 215.504 77.3991 215.618 77.3551 215.857Z" fill="#272525"/>
<path d="M78.8919 215.501C78.8442 218.22 78.4149 220.858 78.591 223.58C78.602 223.617 78.6277 223.639 78.6607 223.654C78.6974 223.672 78.7304 223.687 78.7671 223.705C78.9726 223.801 79.6074 223.507 79.3212 223.368C78.8112 223.125 79.2515 219.893 79.2845 219.482C79.3982 218.121 79.5633 216.778 79.589 215.409C79.5927 215.127 78.8956 215.27 78.8919 215.501Z" fill="#272525"/>
<path d="M80.2057 216.686C80.0919 218.671 80.2387 220.751 79.9195 222.714C79.8754 222.982 80.5763 222.865 80.6166 222.626C80.9322 220.667 80.7854 218.583 80.9028 216.598C80.9175 216.315 80.2204 216.451 80.2057 216.686Z" fill="#272525"/>
<path d="M83.7285 192.506C84.8292 193.673 85.9887 194.722 87.4564 195.39C88.5388 195.885 89.8047 195.97 90.8174 196.557C90.9788 196.652 91.243 196.546 91.3751 196.447C91.4264 196.406 91.4742 196.37 91.5255 196.329C91.8374 196.087 91.1439 196.076 90.9678 196.216C90.9164 196.256 90.8688 196.293 90.8174 196.333C91.0045 196.296 91.188 196.26 91.3751 196.223C90.4137 195.665 89.258 195.595 88.2269 195.148C86.7042 194.491 85.5117 193.431 84.3816 192.234C84.2092 192.058 83.5487 192.311 83.7285 192.506Z" fill="#272525"/>
<path d="M87.0491 190.656C86.429 190.884 86.1501 191.258 85.7612 191.79C85.9777 191.794 86.1942 191.801 86.4107 191.805C86.7189 191.262 87.0674 190.737 87.4564 190.245C87.6582 189.989 86.9684 190.073 86.8546 190.179C86.2419 190.752 85.6108 191.284 85.0604 191.915C85.2769 191.919 85.4934 191.926 85.7098 191.93C85.996 191.522 86.3593 191.192 86.7996 190.935C86.6124 190.917 86.4253 190.895 86.2346 190.877C86.2456 191.229 86.1391 191.544 85.908 191.831C85.7245 192.15 86.4107 191.97 86.5097 191.897C87.0124 191.515 87.3206 190.928 87.8086 190.565C87.5995 190.561 87.3903 190.557 87.1812 190.55C86.9647 191.221 86.5464 191.856 86.1905 192.462C86.0107 192.766 86.7152 192.619 86.8399 192.476C87.5591 191.643 88.0324 190.631 88.7406 189.82C88.5168 189.831 88.293 189.846 88.0691 189.857C88.0618 190.638 87.6362 191.174 87.3243 191.86C87.0197 192.52 86.8803 193.243 86.418 193.819C86.6345 193.823 86.8509 193.83 87.0674 193.834C87.5444 192.95 88.0398 192.08 88.5168 191.188C88.869 190.528 89.2176 189.438 89.6983 188.881C89.4744 188.892 89.2506 188.906 89.0268 188.917C88.8177 190.8 87.6545 192.37 87.0931 194.138C87.0785 194.19 87.1188 194.245 87.1628 194.263C88.7112 194.872 89.757 190.08 90.2853 189.453C90.0615 189.464 89.8377 189.479 89.6139 189.49C89.6102 191.174 88.1352 192.575 87.9517 194.245C87.9187 194.546 88.5351 194.344 88.6232 194.208C89.5074 192.854 89.7349 191.214 90.5275 189.813C90.3037 189.824 90.0799 189.838 89.856 189.849C89.6102 190.833 89.2616 191.779 89.0084 192.752C89.2396 192.722 89.4708 192.693 89.7056 192.663C89.8634 191.996 91.0228 189.453 89.4855 189.655C88.9021 189.732 88.4471 190.363 88.0875 190.752C87.3206 191.588 86.8326 192.579 86.1428 193.467C86.3593 193.471 86.5757 193.478 86.7922 193.482C87.2069 192.869 87.6692 192.054 87.1555 191.361C86.9023 191.016 86.4693 190.807 86.0657 191.056C84.3999 192.095 88.0434 194.542 88.6232 195.004C88.825 194.902 89.0231 194.803 89.2249 194.7C88.1315 193.966 87.0454 192.583 85.7135 192.278C85.5667 192.245 85.1778 192.311 85.1521 192.509C85.0347 193.419 86.7776 194.384 87.4637 193.614C88.2232 192.759 86.1318 191.948 85.5227 191.911C85.3723 191.904 85.1484 191.97 85.0641 192.102C84.2568 193.328 86.3483 193.977 87.2362 194.08C87.394 194.098 87.7646 194.058 87.7976 193.849C88.0361 192.381 83.3469 192.278 86.1795 194.773C86.6932 195.225 87.7132 195.878 88.2709 195.137C88.8763 194.329 87.3316 192.109 86.5574 191.878C85.6181 191.599 85.464 192.399 85.7465 193.118C86.1538 194.153 87.6545 195.79 88.9277 195.525C90.9238 195.111 89.313 191.552 88.3663 193.24C87.9627 193.962 88.4177 195.368 89.3901 195.111C90.7073 194.762 90.5825 192.359 90.1202 191.464C90.0358 191.302 89.768 191.357 89.6359 191.412C88.7112 191.809 88.6635 194.344 89.6432 194.678C89.834 194.744 90.1202 194.693 90.245 194.516C90.9164 193.577 91.1146 191.996 90.9091 190.88C90.8651 190.649 90.2266 190.814 90.2119 191.016C90.1606 191.75 90.2156 192.436 90.2743 193.173C90.3293 193.83 90.1789 194.623 90.4651 195.217C90.5678 195.43 90.9605 195.294 91.0926 195.181C91.4778 194.843 91.5035 194.491 91.0999 194.142C90.9348 194.003 90.6449 194.109 90.4982 194.223C90.1643 194.476 89.7753 194.924 89.335 194.858C89.1919 194.982 89.0525 195.111 88.9094 195.236C89.5992 195.331 90.2376 195.214 90.9384 195.269C91.1219 195.283 91.6759 194.968 91.287 194.883C90.5091 194.711 89.8597 194.201 89.0892 194.098C88.9644 194.083 88.3737 194.186 88.5535 194.425C89.0195 195.045 91.0522 195.933 91.7347 195.232C91.7897 195.177 91.8374 195.111 91.7787 195.037C91.2687 194.41 90.1276 193.841 89.4267 194.571C88.6195 195.412 89.8707 195.797 90.5385 195.896C90.711 195.922 90.9678 195.87 91.0742 195.713C91.309 195.364 91.2136 194.887 91.2833 194.458C91.32 194.234 90.8981 194.311 90.799 194.359C90.234 194.634 89.3644 195.096 88.7883 194.568C88.2856 194.109 89.1699 192.44 89.3093 192.157C89.757 191.24 90.3404 190.389 90.1679 189.332C90.1239 189.068 89.5808 189.313 89.4964 189.416C88.8873 190.15 88.8213 191.067 88.6122 191.97C88.5498 192.245 89.2029 192.087 89.2836 191.933C89.9441 190.678 90.6486 189.339 90.8247 187.916C90.854 187.684 90.4468 187.776 90.3404 187.816C89.0635 188.312 88.5424 190.058 87.4894 190.862C87.6912 190.884 87.893 190.906 88.0911 190.928C88.436 190.301 88.9754 189.629 89.4708 189.137C89.7937 188.814 90.1165 188.631 90.322 188.213C90.4651 187.919 89.8964 188.026 89.7826 188.103C88.891 188.693 88.1168 189.49 87.1665 189.989C87.3463 190.025 87.5261 190.062 87.7059 190.099C87.9664 189.589 88.5461 189.126 88.9828 188.789C88.7736 188.785 88.5645 188.781 88.3553 188.774C88.1645 189.24 87.6765 189.618 87.3059 189.941C86.994 190.212 87.6985 190.179 87.8637 190.055C88.2929 189.732 88.5828 189.321 88.9828 188.983C89.5442 188.51 89.9001 188.048 89.8303 189.13C89.7826 189.89 89.5038 190.59 89.5111 191.361C89.5148 191.592 90.1679 191.416 90.2083 191.225C90.3697 190.458 90.5715 189.702 90.7476 188.939C90.5165 188.969 90.2853 188.998 90.0505 189.027C89.9477 190.194 90.0285 191.508 90.2119 192.678C90.2486 192.92 90.8724 192.733 90.9091 192.542C91.0485 191.798 91.5328 190.04 90.9164 189.372C90.755 189.2 90.322 189.361 90.245 189.552C89.757 190.744 89.9037 192.131 89.7313 193.394C89.6946 193.676 90.3697 193.526 90.4284 193.306C90.744 192.128 91.2907 190.634 90.4871 189.523C90.3844 189.383 90.0505 189.486 89.9478 189.556C89.4891 189.86 89.5221 190.143 89.346 190.675C88.9571 191.864 88.6489 193.034 88.3627 194.256C88.304 194.513 89.0048 194.406 89.0598 194.168C89.2616 193.306 89.4267 192.421 89.6946 191.577C89.8193 191.181 90.0175 190 90.3807 189.757C90.2009 189.768 90.0211 189.779 89.8414 189.79C90.5935 190.833 90.0248 192.289 89.7313 193.386C89.9624 193.357 90.1936 193.328 90.4284 193.298C90.6009 192.04 90.4541 190.645 90.9421 189.457C90.7183 189.515 90.4945 189.578 90.2707 189.636C90.7844 190.19 90.333 192.003 90.2156 192.623C90.4468 192.579 90.6779 192.531 90.9128 192.487C90.755 191.471 90.6596 189.967 90.7513 188.936C90.777 188.649 90.1055 188.8 90.0542 189.024C89.878 189.787 89.6799 190.543 89.5148 191.31C89.746 191.266 89.9771 191.218 90.2119 191.174C90.2046 190.598 91.1072 188.169 90.1642 187.831C89.1662 187.472 87.8343 189.548 87.3133 189.941C87.5004 189.978 87.6839 190.018 87.871 190.055C88.3223 189.662 88.8287 189.251 89.0598 188.686C89.1699 188.415 88.5021 188.616 88.4324 188.671C87.9444 189.049 87.3499 189.523 87.0637 190.08C86.9096 190.385 87.4931 190.249 87.6032 190.19C88.5571 189.691 89.324 188.899 90.2193 188.304C90.0395 188.268 89.8597 188.231 89.6799 188.194C89.4267 188.712 88.9094 188.969 88.5388 189.38C88.1462 189.813 87.7279 190.396 87.449 190.91C87.2729 191.232 87.948 191.053 88.0508 190.976C88.9607 190.282 89.5441 188.517 90.6192 188.103C90.4578 188.07 90.2964 188.037 90.1349 188.004C89.9625 189.391 89.2836 190.697 88.6415 191.919C88.8653 191.908 89.0891 191.893 89.313 191.882C89.5111 191.027 89.5698 190.132 90.1496 189.431C89.9257 189.46 89.7019 189.49 89.4781 189.515C89.7239 191.038 87.0308 193.537 88.2416 194.997C89.0085 195.925 90.3147 195.015 91.0815 194.641C90.9201 194.608 90.7586 194.575 90.5972 194.542C90.5165 194.751 90.4358 194.96 90.3551 195.17C90.333 195.206 90.311 195.28 90.3551 195.313C90.3807 195.441 90.4101 195.569 90.4358 195.698C90.6156 195.636 90.7953 195.577 90.9715 195.514C90.4614 195.437 91.0779 195.206 91.0008 195.037C90.9898 195.012 90.5201 194.865 90.322 194.788C89.9477 194.645 89.4561 194.472 89.2066 194.146C89.0268 194.256 88.8506 194.362 88.6709 194.472C89.3864 194.564 90.1349 195.092 90.8687 195.258C90.9862 195.129 91.0999 195.001 91.2173 194.872C90.5899 194.821 89.9698 194.942 89.3424 194.854C89.1259 194.825 88.5204 195.173 88.9167 195.232C89.9331 195.386 90.3073 194.913 91.0632 194.337C90.8614 194.362 90.6632 194.388 90.4614 194.417C90.4871 194.634 90.5165 194.85 90.5422 195.067C90.7513 195.056 90.9605 195.041 91.1696 195.03C90.9605 194.597 91.0522 194.039 91.0228 193.581C90.9715 192.682 90.8504 191.834 90.9128 190.924C90.6816 190.968 90.4504 191.016 90.2156 191.06C90.3991 192.062 90.2083 193.639 89.5992 194.494C89.801 194.439 89.9991 194.388 90.2009 194.333C89.6689 194.153 89.3607 191.93 89.9147 191.691C89.7533 191.673 89.5919 191.658 89.4304 191.64C89.7533 192.26 89.8487 193.008 89.6726 193.695C89.5111 194.329 89.1479 195.026 88.9938 193.97C88.8617 193.074 89.0378 193.232 89.0965 193.904C89.1148 194.098 89.2616 194.59 89.1332 194.766C88.6672 195.408 87.7866 194.586 87.4454 194.285C87.2729 194.135 86.1208 192.509 86.2969 192.465C86.5501 192.399 87.5004 193.959 87.5518 194.157C87.8967 195.415 86.7409 194.524 86.363 194.01C85.4347 192.759 87.2216 193.221 87.1041 193.929C87.2913 193.852 87.4784 193.775 87.6655 193.698C87.6215 193.695 84.9833 192.942 85.6951 192.447C85.7172 192.432 86.2896 192.7 86.3263 192.737C87.0491 193.485 85.7502 193.247 85.8566 192.421C85.6695 192.498 85.4823 192.575 85.2952 192.652C86.5758 192.946 87.6215 194.322 88.6819 195.034C88.847 195.144 89.4744 194.88 89.2836 194.729C88.5388 194.138 87.6986 193.673 87.0968 192.917C86.7849 192.528 86.5171 192.007 86.5501 191.805C86.8179 191.889 86.851 192.128 86.6492 192.517C86.5354 192.862 86.3703 193.177 86.1538 193.463C85.9703 193.735 86.6712 193.647 86.8032 193.478C87.2802 192.865 88.2379 190.638 89.0342 190.484C89.1736 190.176 89.291 190.165 89.3901 190.451C89.5515 190.579 89.5772 190.733 89.4597 190.91C89.4891 191.445 89.1442 192.22 89.0195 192.748C88.9571 193.005 89.6542 192.895 89.7166 192.66C89.9698 191.684 90.3183 190.744 90.5642 189.757C90.6339 189.482 89.9735 189.647 89.8927 189.794C89.1039 191.192 88.8727 192.84 87.9884 194.19C88.2122 194.179 88.4361 194.164 88.6599 194.153C88.8433 192.48 90.3183 191.097 90.322 189.398C90.322 189.082 89.7533 189.31 89.6506 189.435C89.1185 190.066 88.9754 190.939 88.6636 191.687C88.4728 192.142 87.7793 193.067 87.7316 193.544C87.6692 194.172 88.0361 193.397 88.2086 193.137C88.4471 192.774 88.5571 192.249 88.7296 191.849C89.1552 190.866 89.6139 189.908 89.7349 188.829C89.7716 188.514 89.1552 188.756 89.0635 188.866C88.5131 189.504 88.282 190.44 87.882 191.174C87.4014 192.058 86.906 192.939 86.4327 193.819C86.2639 194.131 86.961 193.984 87.0821 193.834C87.5077 193.302 87.6288 192.715 87.893 192.098C88.2416 191.288 88.7773 190.686 88.7846 189.768C88.7883 189.453 88.2196 189.684 88.1132 189.805C87.405 190.616 86.9317 191.629 86.2125 192.462C86.429 192.465 86.6455 192.473 86.862 192.476C87.2436 191.827 87.6692 191.181 87.9003 190.466C87.9921 190.179 87.3463 190.396 87.2729 190.451C86.7702 190.825 86.484 191.394 85.974 191.783C86.1758 191.805 86.3776 191.827 86.5758 191.849C86.7812 191.489 86.9097 191.218 86.95 190.796C86.9757 190.528 86.4987 190.678 86.385 190.737C85.8126 191.031 85.4824 191.42 85.0787 191.922C84.8806 192.172 85.5888 192.098 85.7282 191.937C86.2492 191.339 86.8546 190.84 87.4343 190.301C87.2325 190.278 87.0308 190.256 86.8326 190.234C86.4474 190.726 86.0951 191.251 85.7869 191.794C85.6181 192.091 86.3116 191.974 86.4363 191.809C86.6638 191.445 86.9684 191.159 87.3536 190.946C87.7793 190.774 87.3647 190.539 87.0491 190.656Z" fill="#272525"/>
<path d="M56.62 237.542C53.1342 239.703 51.3363 244.098 49.5347 247.603C47.4176 251.719 45.3739 255.924 43.5319 260.173C42.9669 261.479 39.3381 269.893 41.9138 270.065C42.123 270.08 42.5853 269.963 42.6403 269.702C42.6623 269.607 42.6807 269.508 42.7027 269.412C42.7834 269.023 41.734 269.185 41.657 269.544C41.635 269.64 41.6166 269.739 41.5946 269.834C41.8368 269.713 42.0789 269.592 42.3211 269.471C41.1103 269.39 44.2254 260.848 44.6254 259.935C46.3903 255.877 48.3386 251.87 50.353 247.929C52.0885 244.539 53.9048 239.938 57.2694 237.85C57.8675 237.483 56.9575 237.332 56.62 237.542Z" fill="#272525"/>
<path d="M55.4946 250.85C52.6913 255.972 49.2239 260.999 47.5691 266.638C47.47 266.976 48.1745 266.844 48.2956 266.789C48.6185 266.642 48.7542 266.576 48.7946 266.205C48.8386 265.791 47.7892 265.982 47.7489 266.338C47.7929 266.345 47.8369 266.352 47.881 266.36C48.1231 266.411 48.3653 266.459 48.6075 266.51C50.2439 260.937 53.6857 255.939 56.4596 250.876C56.7054 250.439 55.6597 250.545 55.4946 250.85Z" fill="#272525"/>
<path d="M405.967 194.79C402.573 187.298 398.475 180.062 392.784 174.059C387.493 168.479 381.079 164.061 374.02 161.026C373.854 160.957 373.528 161.026 373.466 161.214C372.724 163.4 373.117 165.874 373.341 168.123C373.587 170.592 373.961 173.047 374.46 175.476C375.432 180.213 376.882 184.851 378.79 189.29C380.65 193.624 382.95 197.774 385.658 201.637C386.33 202.595 387.023 203.538 387.75 204.455C388.219 205.05 388.568 205.534 389.379 205.501C391.221 205.431 393.452 204.308 395.106 203.563C397.381 202.543 399.546 201.281 401.553 199.803C403.549 198.335 405.435 196.68 406.375 194.332C406.452 194.134 405.839 194.203 405.758 194.409C404.081 198.617 398.999 201.421 395.084 203.211C394.009 203.703 392.909 204.143 391.786 204.518C390.601 204.914 389.449 205.405 388.469 204.4C387.045 202.94 385.897 200.966 384.796 199.26C380.184 192.112 376.944 184.095 375.179 175.78C374.698 173.513 374.328 171.22 374.067 168.915C373.785 166.424 373.271 163.555 374.089 161.137C373.906 161.199 373.719 161.261 373.535 161.324C380.565 164.343 386.95 168.743 392.215 174.298C397.888 180.282 401.972 187.485 405.355 194.952C405.446 195.168 406.052 194.978 405.967 194.79Z" fill="#272525"/>
<path d="M382.218 178.617C384.732 176.246 388.647 175.843 391.186 178.404C392.081 179.31 392.745 180.517 392.921 181.791C393.156 183.471 392.294 184.803 391.27 186.032C389.938 187.632 388.221 188.909 386.005 188.494C384.57 188.223 383.348 187.349 382.519 186.161C381.121 184.161 380.156 180.136 382.471 178.433C382.75 178.228 382.137 178.217 381.976 178.331C379.07 180.466 380.739 185.706 383.066 187.628C385.689 189.797 389.098 189.026 391.27 186.7C392.58 185.298 393.835 183.643 393.538 181.622C393.292 179.967 392.297 178.452 390.958 177.472C388.093 175.38 384.181 176.195 381.726 178.51C381.462 178.76 382.071 178.756 382.218 178.617Z" fill="#272525"/>
<path d="M384.229 179.684C385.95 177.791 389.149 178.338 390.782 180.15C392.429 181.985 390.881 183.926 389.252 185.063C388.144 185.838 386.588 186.37 385.297 185.779C384.669 185.493 384.053 185.034 383.594 184.528C382.178 182.957 383.345 181.218 384.306 179.754C384.46 179.519 383.844 179.571 383.73 179.739C383.099 180.697 382.137 182.036 382.258 183.251C382.372 184.399 383.378 185.199 384.284 185.771C386.544 187.195 388.423 186.289 390.367 184.707C392.444 183.012 392.749 180.627 390.32 179.101C388.225 177.784 385.487 177.648 383.73 179.582C383.491 179.849 384.089 179.838 384.229 179.684Z" fill="#272525"/>
<path d="M381.33 165.096C380.775 166.446 380.078 167.716 379.08 168.791C378.548 169.363 377.961 169.866 377.282 170.266C376.394 170.787 375.323 170.776 374.468 171.245C374.831 171.043 374.288 170.952 374.087 171.062C373.987 171.117 373.892 171.172 373.793 171.223C373.617 171.322 373.665 171.491 373.863 171.491C377.818 171.487 380.544 168.449 381.95 165.015C382.027 164.824 381.414 164.894 381.33 165.096Z" fill="#272525"/>
<path d="M398.218 180.44C401.736 178.918 405.706 179.974 408.524 182.425C411.052 184.631 412.641 187.654 413.955 190.688C414.12 190.604 414.285 190.523 414.454 190.439C412.183 189.756 409.908 188.927 407.592 188.414C406.051 188.072 404.609 188.087 403.193 188.828C402.826 189.019 403.373 189.118 403.575 189.012C405.497 188.006 407.658 188.843 409.555 189.415C411.06 189.867 412.568 190.322 414.072 190.773C414.179 190.806 414.648 190.707 414.571 190.523C413.019 186.939 411.034 183.258 407.651 181.097C404.749 179.244 401.153 178.811 397.975 180.187C397.579 180.356 397.939 180.561 398.218 180.44Z" fill="#272525"/>
<path d="M380.057 191.268C377.122 192.292 374.99 194.724 373.878 197.583C372.356 201.505 373.049 205.813 374.175 209.739C374.234 209.948 374.766 209.797 374.792 209.618C375.1 207.544 375.948 205.658 377.181 203.967C378.597 202.026 381.231 198.896 383.902 199.219C384.097 199.241 384.625 198.926 384.28 198.885C381.76 198.581 379.712 200.441 378.101 202.158C376.116 204.272 374.605 206.796 374.175 209.695C374.381 209.654 374.586 209.614 374.792 209.574C373.783 206.058 373.119 202.294 374.106 198.691C374.972 195.524 377.129 192.626 380.299 191.521C380.707 191.378 380.336 191.169 380.057 191.268Z" fill="#272525"/>
<path d="M403.363 198.948C403.356 198.926 404.534 199.597 404.706 199.729C405.121 200.052 405.514 200.393 405.888 200.76C406.53 201.391 407.117 202.081 407.631 202.822C408.056 203.435 408.915 204.316 408.398 205.101C408.177 205.435 407.231 205.728 406.897 205.908C405.814 206.492 404.732 207.071 403.646 207.655C402.564 208.238 401.481 208.818 400.395 209.401C399.896 209.669 399.397 209.937 398.894 210.208C398.168 210.597 397.694 211.056 397.159 210.153C396.7 209.383 395.442 203.332 396.436 202.98C396.843 202.837 396.473 202.628 396.194 202.727C395.177 203.087 395.566 204.785 395.629 205.618C395.702 206.627 395.853 207.629 396.076 208.616C396.212 209.214 396.377 210.616 396.799 211.06C397.291 211.577 397.676 211.254 398.282 210.931C400.285 209.86 402.281 208.781 404.281 207.71C405.279 207.174 406.28 206.635 407.278 206.099C407.796 205.82 408.702 205.552 409.08 205.09C409.726 204.297 408.394 202.837 407.939 202.224C406.956 200.9 405.726 199.7 404.328 198.819C403.697 198.423 403.191 198.177 402.674 198.797C402.652 198.823 402.648 198.852 402.652 198.885C402.681 198.966 402.714 199.047 402.743 199.127C402.828 199.329 403.437 199.146 403.363 198.948Z" fill="#272525"/>
<path d="M407.159 206.646C409.629 206.697 411.764 210.165 412.979 211.999C413.136 211.904 413.294 211.808 413.456 211.709C412.366 211.581 411.221 211.331 410.124 211.309C409.852 211.306 409.537 211.247 409.284 211.383C408.267 211.918 409.309 213.647 409.519 214.435C410.656 218.728 411.082 223.168 410.861 227.601C411.045 227.538 411.232 227.476 411.415 227.413C406.968 225.069 403.982 220.647 403.303 215.687C403.274 215.481 402.657 215.621 402.686 215.852C402.775 216.578 402.58 217.129 402.019 217.602C402.202 217.591 402.389 217.58 402.573 217.569C402.371 217.008 400.279 209.812 400.867 209.794C401.098 209.787 401.52 209.431 401.105 209.445C400.125 209.475 400.103 210.271 400.232 211.122C400.573 213.379 401.182 215.591 401.956 217.734C402.03 217.932 402.408 217.789 402.51 217.701C403.152 217.158 403.398 216.516 403.299 215.687C403.094 215.742 402.888 215.797 402.683 215.852C403.373 220.879 406.422 225.34 410.924 227.714C411.049 227.78 411.467 227.714 411.478 227.527C411.628 224.493 411.493 221.455 411.016 218.45C410.777 216.956 410.462 215.478 410.065 214.017C409.841 213.192 409.1 212.032 410.304 211.713C410.997 211.529 412.347 211.959 413.081 212.043C413.202 212.058 413.701 211.973 413.558 211.753C412.212 209.721 410.157 206.352 407.405 206.293C407.167 206.29 406.745 206.638 407.159 206.646Z" fill="#272525"/>
<path d="M406.223 208.836C406.542 208.521 407.804 209.871 407.944 210.135C408.637 210.711 408.23 211.005 406.711 211.019C406.571 211.001 406.428 211.001 406.289 211.012C405.988 211.188 405.893 211.034 405.717 211.471C405.581 211.815 405.885 212.564 405.951 212.905C406.094 213.617 406.238 214.325 406.381 215.037C406.579 216.031 407.566 218.49 406.821 219.374C407.019 219.348 407.217 219.323 407.415 219.297C406.37 217.007 405.324 214.721 404.282 212.432C404.197 212.245 403.761 212.355 403.687 212.509C403.35 213.217 403.012 213.925 402.675 214.633C402.873 214.608 403.071 214.582 403.269 214.556C402.473 212.597 402.484 210.564 403.324 208.623C403.405 208.432 402.796 208.498 402.708 208.7C401.857 210.674 401.846 212.729 402.653 214.721C402.73 214.912 403.177 214.795 403.247 214.644C403.585 213.936 403.922 213.228 404.26 212.52C404.062 212.546 403.864 212.571 403.665 212.597C404.711 214.887 405.757 217.172 406.799 219.462C406.894 219.675 407.291 219.51 407.393 219.385C407.867 218.824 407.658 218.203 407.529 217.532C407.276 216.196 406.993 214.868 406.726 213.536C406.663 213.224 406.201 211.911 406.351 211.672C406.634 211.232 406.854 211.507 407.239 211.412C407.9 211.247 408.413 211.151 409 210.77C409.067 210.729 409.166 210.638 409.096 210.557C408.417 209.779 406.942 207.533 405.724 208.733C405.474 208.986 406.08 208.979 406.223 208.836Z" fill="#272525"/>
<path d="M381.294 165.617C379.129 171.414 377.569 177.402 376.623 183.515C376.586 183.753 377.206 183.647 377.239 183.438C378.189 177.325 379.745 171.337 381.91 165.539C381.987 165.338 381.371 165.411 381.294 165.617Z" fill="#272525"/>
<path d="M379.084 168.967C377.598 172.863 376.563 176.892 375.972 181.02C375.939 181.262 376.56 181.152 376.589 180.943C377.176 176.815 378.214 172.786 379.7 168.89C379.777 168.688 379.161 168.761 379.084 168.967Z" fill="#272525"/>
<path d="M377.555 170.353C376.66 173.01 375.93 175.707 375.357 178.448C375.309 178.679 375.93 178.58 375.974 178.371C376.546 175.626 377.276 172.929 378.171 170.276C378.245 170.067 377.628 170.144 377.555 170.353Z" fill="#272525"/>
<path d="M376.229 171.304C375.594 173.157 375.103 175.043 374.747 176.965C374.703 177.2 375.323 177.097 375.363 176.888C375.719 174.962 376.215 173.08 376.846 171.227C376.919 171.018 376.299 171.098 376.229 171.304Z" fill="#272525"/>
<path d="M375.701 171.41C375.668 171.329 375.635 171.245 375.602 171.164C375.518 170.955 375.033 171.106 374.986 171.285C374.718 172.276 374.494 173.274 374.318 174.283C374.277 174.518 374.898 174.415 374.934 174.206C375.11 173.197 375.334 172.199 375.602 171.208C375.397 171.249 375.191 171.289 374.986 171.329C375.019 171.41 375.052 171.495 375.085 171.575C375.173 171.788 375.782 171.605 375.701 171.41Z" fill="#272525"/>
<path d="M382.428 166.16C380.201 172.471 378.421 178.925 377.096 185.485C377.049 185.716 377.669 185.617 377.713 185.408C379.037 178.848 380.813 172.394 383.044 166.083C383.118 165.877 382.501 165.954 382.428 166.16Z" fill="#272525"/>
<path d="M383.407 166.769C381.106 173.458 379.341 180.308 378.112 187.276C378.072 187.511 378.692 187.408 378.729 187.199C379.958 180.231 381.723 173.38 384.023 166.692C384.093 166.482 383.477 166.563 383.407 166.769Z" fill="#272525"/>
<path d="M384.67 167.664C383.628 171.3 382.586 174.94 381.544 178.576C381.482 178.793 382.102 178.708 382.16 178.499C383.202 174.863 384.244 171.223 385.287 167.587C385.349 167.367 384.729 167.455 384.67 167.664Z" fill="#272525"/>
<path d="M380.328 182.081C379.796 184.488 379.268 186.895 378.736 189.302C378.685 189.529 379.305 189.434 379.352 189.224C379.884 186.817 380.413 184.41 380.945 182.003C380.996 181.776 380.376 181.871 380.328 182.081Z" fill="#272525"/>
<path d="M386.232 168.6C386.246 168.596 386.261 168.592 386.272 168.589C386.353 168.567 386.58 168.475 386.54 168.35C386.532 168.328 386.525 168.31 386.518 168.288C386.444 168.064 386.015 168.255 385.923 168.365C385.611 168.728 385.578 169.381 385.461 169.836C385.241 170.702 385.021 171.568 384.797 172.43C384.375 174.074 383.957 175.718 383.535 177.362C383.476 177.586 384.096 177.494 384.151 177.285C384.529 175.813 384.903 174.346 385.281 172.874C385.457 172.181 385.633 171.491 385.813 170.798C385.975 170.159 386.074 168.875 386.499 168.38C386.301 168.405 386.103 168.431 385.905 168.457C385.912 168.479 385.92 168.497 385.927 168.519C386.015 168.438 386.107 168.361 386.195 168.28C386.18 168.284 386.165 168.288 386.154 168.291C385.78 168.394 385.861 168.706 386.232 168.6Z" fill="#272525"/>
<path d="M381.312 185.346C381.055 187.302 380.119 189.07 379.818 191.015C379.782 191.253 380.402 191.147 380.435 190.938C380.739 188.993 381.671 187.225 381.928 185.269C381.961 185.027 381.341 185.137 381.312 185.346Z" fill="#272525"/>
<path d="M387.638 169.748C387.645 169.737 387.656 169.73 387.663 169.719C387.696 169.682 387.693 169.627 387.663 169.59C387.652 169.576 387.641 169.565 387.627 169.55C387.498 169.403 387.15 169.535 387.054 169.664C386.522 170.372 386.445 171.858 386.236 172.72C386.086 173.34 385.935 173.96 385.788 174.581C385.653 175.153 385.594 176.342 385.205 176.789C385.403 176.764 385.601 176.738 385.799 176.712C385.796 176.694 385.792 176.676 385.788 176.654C385.671 176.738 385.553 176.822 385.436 176.907C385.447 176.907 385.462 176.907 385.473 176.903C385.777 176.885 385.986 176.536 385.557 176.562C385.546 176.562 385.531 176.562 385.52 176.566C385.414 176.573 385.143 176.665 385.168 176.819C385.172 176.837 385.176 176.855 385.179 176.877C385.22 177.112 385.697 176.892 385.774 176.8C386.335 176.147 386.386 174.544 386.588 173.704C386.735 173.084 386.885 172.463 387.04 171.847C387.186 171.256 387.256 170.163 387.623 169.675C387.432 169.712 387.241 169.752 387.051 169.789C387.054 169.77 387.054 169.752 387.058 169.734C386.889 169.932 387.505 169.895 387.638 169.748Z" fill="#272525"/>
<path d="M382.5 186.564C382.1 189.147 381.329 191.69 380.856 194.266C380.812 194.5 381.435 194.398 381.472 194.189C381.945 191.613 382.716 189.066 383.116 186.487C383.156 186.245 382.533 186.351 382.5 186.564Z" fill="#272525"/>
<path d="M388.989 170.324C388.96 170.13 388.978 170.166 388.828 170.038C388.677 169.913 388.292 170.005 388.233 170.196C387.87 171.381 387.525 172.566 387.199 173.762C387.008 174.456 386.333 175.872 386.545 176.558C386.567 176.632 386.67 176.654 386.733 176.65C386.751 176.65 386.769 176.646 386.788 176.646C387.015 176.635 387.441 176.276 387.026 176.298C387.309 176.283 387.877 173.447 387.943 173.208C388.23 172.174 388.534 171.146 388.85 170.119C388.652 170.17 388.453 170.225 388.255 170.277C388.296 170.346 388.332 170.416 388.373 170.486C388.402 170.699 389.022 170.555 388.989 170.324Z" fill="#272525"/>
<path d="M389.63 171.535C388.976 172.342 388.936 173.572 388.731 174.555C388.621 175.094 388.004 176.558 388.342 177.017C388.459 177.178 388.822 177.021 388.914 176.903C388.925 176.888 388.94 176.874 388.951 176.855C389.002 176.789 388.965 176.738 388.91 176.701C388.899 176.694 388.888 176.687 388.877 176.679C388.712 176.566 388.144 176.811 388.386 176.977C388.371 176.947 388.356 176.918 388.342 176.888C388.532 176.852 388.723 176.811 388.914 176.775C388.701 176.485 389.307 174.683 389.391 174.276C389.575 173.388 389.622 172.265 390.206 171.55C390.374 171.337 389.758 171.377 389.63 171.535Z" fill="#272525"/>
<path d="M390.705 172.654C390.261 173.142 390.081 173.861 389.868 174.47C389.567 175.333 389.325 176.213 389.127 177.105C389.087 177.277 389.402 177.237 389.476 177.219C389.505 177.211 389.534 177.208 389.56 177.2C389.648 177.182 389.806 177.112 389.828 177.006C389.835 176.977 389.839 176.947 389.846 176.918C389.89 176.683 389.27 176.786 389.23 176.995C389.222 177.024 389.219 177.054 389.211 177.083C389.3 177.017 389.391 176.954 389.479 176.888C389.45 176.896 389.421 176.899 389.395 176.907C389.512 176.943 389.63 176.984 389.744 177.021C389.894 176.338 390.07 175.663 390.283 174.995C390.496 174.327 390.731 173.267 391.2 172.746C391.442 172.489 390.844 172.5 390.705 172.654Z" fill="#272525"/>
<path d="M392.006 173.887C391.672 174.588 391.386 175.303 391.173 176.052C391.03 176.558 390.634 177.45 390.972 177.916C391.093 178.084 391.691 177.875 391.544 177.673C391.276 177.307 391.705 176.254 391.826 175.846C392.025 175.178 392.281 174.529 392.582 173.902C392.711 173.634 392.094 173.703 392.006 173.887Z" fill="#272525"/>
<path d="M393.694 175.314C393.68 175.215 393.665 175.112 393.65 175.013C393.617 174.789 393.078 174.977 393.034 175.134C392.788 176.011 392.546 176.888 392.3 177.765C392.124 178.396 391.735 179.2 391.768 179.853C391.772 179.901 391.852 179.934 391.889 179.937C391.908 179.941 391.926 179.941 391.944 179.945C392.117 179.967 392.366 179.919 392.443 179.739C392.451 179.725 392.454 179.71 392.462 179.699C392.542 179.504 391.93 179.574 391.845 179.776C391.838 179.791 391.834 179.805 391.827 179.816C391.992 179.747 392.157 179.681 392.326 179.611C392.528 179.637 393.54 175.472 393.658 175.057C393.452 175.098 393.247 175.138 393.041 175.178C393.056 175.277 393.071 175.38 393.085 175.479C393.111 175.688 393.731 175.545 393.694 175.314Z" fill="#272525"/>
<path d="M394.454 176.705C393.717 178.154 393.192 179.673 392.877 181.269C392.829 181.5 393.453 181.401 393.493 181.192C393.801 179.629 394.308 178.139 395.03 176.719C395.159 176.455 394.546 176.525 394.454 176.705Z" fill="#272525"/>
<path d="M395.167 178.33C391.802 185.94 388.57 193.605 385.469 201.329C385.388 201.527 386.005 201.454 386.086 201.252C389.186 193.532 392.419 185.863 395.783 178.253C395.868 178.063 395.259 178.129 395.167 178.33Z" fill="#272525"/>
<path d="M389.703 187.768C389.131 189.745 387.99 191.569 387.149 193.448C386.225 195.513 385.392 197.616 384.636 199.751C384.563 199.957 385.179 199.88 385.252 199.674C386.008 197.542 386.841 195.436 387.766 193.371C388.602 191.499 389.747 189.668 390.32 187.691C390.382 187.474 389.765 187.559 389.703 187.768Z" fill="#272525"/>
<path d="M387.721 188.732C387.986 189.044 387.061 190.703 386.932 191.018C386.584 191.881 386.239 192.739 385.89 193.602C385.197 195.322 384.503 197.047 383.81 198.768C383.729 198.962 384.346 198.892 384.426 198.691C385.223 196.709 386.023 194.732 386.819 192.75C387.2 191.804 387.582 190.857 387.964 189.91C388.129 189.499 388.628 188.89 388.29 188.494C388.158 188.329 387.567 188.549 387.721 188.732Z" fill="#272525"/>
<path d="M386.112 188.887C384.89 191.51 383.764 194.174 382.74 196.882C382.663 197.084 383.279 197.01 383.356 196.805C384.38 194.097 385.503 191.433 386.728 188.81C386.813 188.626 386.204 188.689 386.112 188.887Z" fill="#272525"/>
<path d="M384.866 188.659C384.984 189.18 384.408 189.995 384.209 190.461C383.971 191.03 383.736 191.598 383.512 192.171C383.032 193.4 382.588 194.647 382.173 195.902C382.103 196.111 382.72 196.034 382.789 195.825C383.259 194.402 383.765 192.993 384.323 191.602C384.639 190.813 385.673 189.331 385.483 188.49C385.435 188.281 384.815 188.439 384.866 188.659Z" fill="#272525"/>
<path d="M383.77 188.289C383.003 190.461 382.24 192.637 381.473 194.809C381.399 195.014 382.016 194.937 382.089 194.732C382.856 192.56 383.619 190.384 384.386 188.212C384.46 188.006 383.843 188.083 383.77 188.289Z" fill="#272525"/>
<path d="M396.27 178.998C392.16 186.381 390.593 194.897 386.128 202.103C385.978 202.345 386.594 202.29 386.704 202.118C391.169 194.912 392.736 186.395 396.846 179.013C396.985 178.756 396.369 178.818 396.27 178.998Z" fill="#272525"/>
<path d="M396.88 180.011C393.937 188.135 391.2 196.339 387.083 203.964C386.943 204.22 387.56 204.154 387.659 203.978C391.787 196.324 394.542 188.087 397.496 179.934C397.569 179.729 396.953 179.802 396.88 180.011Z" fill="#272525"/>
<path d="M397.821 180.91C395.986 185.086 394.628 189.441 393.157 193.752C392.449 195.822 391.715 197.887 390.878 199.909C390.372 201.131 389.829 202.342 389.231 203.523C388.978 204.022 388.336 204.76 388.475 205.34C388.493 205.417 388.6 205.428 388.662 205.431C388.923 205.446 389.092 205.384 389.246 205.174C389.275 205.134 389.275 205.086 389.246 205.046C389.227 205.024 389.213 205.006 389.194 204.984C389.062 204.819 388.468 205.035 388.622 205.226C388.802 205.45 390.343 202.445 390.486 202.136C390.912 201.223 391.308 200.302 391.686 199.37C392.511 197.341 393.234 195.275 393.939 193.202C395.348 189.045 396.672 184.862 398.441 180.84C398.521 180.642 397.909 180.708 397.821 180.91Z" fill="#272525"/>
<path d="M398.523 182.323C396.92 186.018 395.419 189.661 394.267 193.521C393.052 197.597 391.522 201.538 389.596 205.336C389.464 205.596 390.08 205.53 390.172 205.351C392.032 201.681 393.552 197.869 394.74 193.932C395.955 189.907 397.47 186.102 399.143 182.246C399.22 182.055 398.611 182.121 398.523 182.323Z" fill="#272525"/>
<path d="M399.592 183.776C399.618 183.772 399.64 183.768 399.665 183.761C399.779 183.739 400.036 183.673 400.018 183.508C400.014 183.475 400.01 183.442 400.007 183.405C399.996 183.302 399.805 183.313 399.739 183.317C398.862 183.379 398.535 184.733 398.308 185.39C397.559 187.562 396.851 189.745 396.088 191.91C394.551 196.273 392.914 200.599 391.186 204.888C391.105 205.086 391.722 205.013 391.802 204.811C393.219 201.292 394.576 197.752 395.864 194.185C396.492 192.446 397.108 190.699 397.706 188.945C398.007 188.069 398.301 187.192 398.59 186.311C398.829 185.588 399.475 184.311 399.398 183.666C399.515 183.581 399.632 183.497 399.75 183.412C399.724 183.416 399.702 183.42 399.676 183.427C399.383 183.486 399.166 183.849 399.592 183.776Z" fill="#272525"/>
<path d="M400.67 184.44C400.666 184.392 400.659 184.344 400.655 184.3C400.644 184.267 400.622 184.245 400.593 184.234C400.119 184.076 399.939 184.267 399.686 184.641C399.143 185.438 398.916 186.836 398.607 187.746C398.226 188.872 397.855 189.998 397.492 191.129C396.127 195.396 394.898 199.707 393.793 204.051C393.738 204.275 394.359 204.184 394.41 203.974C395.269 200.606 396.197 197.256 397.21 193.932C397.69 192.358 398.186 190.791 398.703 189.228C398.989 188.362 399.283 187.496 399.58 186.63C399.793 186.01 399.947 184.807 400.442 184.381C400.277 184.414 400.112 184.447 399.95 184.48C399.987 184.52 400.02 184.564 400.057 184.605C400.071 184.807 400.692 184.674 400.67 184.44Z" fill="#272525"/>
<path d="M400.295 185.331C398.861 191.246 397.261 197.12 395.496 202.947C395.43 203.164 396.05 203.079 396.113 202.87C397.877 197.043 399.477 191.169 400.912 185.254C400.967 185.027 400.347 185.119 400.295 185.331Z" fill="#272525"/>
<path d="M401.096 186.659C399.625 191.998 398.15 197.34 396.678 202.679C396.616 202.899 397.236 202.811 397.295 202.602C398.766 197.263 400.241 191.921 401.712 186.582C401.775 186.362 401.155 186.45 401.096 186.659Z" fill="#272525"/>
<path d="M401.932 188.241C400.817 192.655 399.602 197.04 398.289 201.399C398.223 201.615 398.843 201.531 398.905 201.322C400.219 196.963 401.433 192.578 402.549 188.164C402.604 187.94 401.983 188.032 401.932 188.241Z" fill="#272525"/>
<path d="M402.905 189.665C402.431 191.62 401.918 193.561 401.349 195.491C401.092 196.368 400.824 197.242 400.549 198.111C400.314 198.849 399.852 199.7 399.87 200.478C399.87 200.551 400.01 200.569 400.057 200.569C400.094 200.569 400.127 200.569 400.164 200.569C400.288 200.569 400.56 200.511 400.593 200.357C400.6 200.327 400.604 200.298 400.611 200.272C400.659 200.041 400.039 200.14 399.995 200.349C399.988 200.379 399.984 200.408 399.977 200.434C400.12 200.364 400.263 200.291 400.406 200.221C400.787 200.225 401.965 195.425 402.119 194.89C402.626 193.132 403.088 191.363 403.521 189.588C403.576 189.364 402.956 189.456 402.905 189.665Z" fill="#272525"/>
<path d="M403.548 191.191C403.06 193.888 402.407 196.537 401.585 199.149C401.519 199.362 402.135 199.281 402.201 199.072C403.023 196.46 403.676 193.811 404.164 191.114C404.208 190.879 403.588 190.982 403.548 191.191Z" fill="#272525"/>
<path d="M404.86 192.897C404.853 192.816 404.842 192.739 404.835 192.659C404.809 192.446 404.251 192.611 404.218 192.78C403.958 194.115 403.624 195.432 403.191 196.72C402.993 197.307 402.094 198.687 402.538 199.223C402.673 199.384 403.264 199.168 403.11 198.981C402.802 198.61 403.873 196.471 404.031 195.957C404.361 194.886 404.622 193.8 404.838 192.699C404.633 192.739 404.427 192.78 404.222 192.82C404.229 192.901 404.24 192.978 404.248 193.059C404.266 193.268 404.886 193.132 404.86 192.897Z" fill="#272525"/>
<path d="M404.739 194.259C404.266 195.282 403.899 196.335 403.631 197.432C403.576 197.656 404.196 197.565 404.248 197.355C404.516 196.258 404.883 195.205 405.356 194.182C405.44 193.998 404.831 194.06 404.739 194.259Z" fill="#272525"/>
<path d="M405.939 209.236C406.805 209.214 407.257 209.731 407.451 210.436C407.649 210.37 407.847 210.3 408.046 210.234C407.704 209.992 407.462 209.669 407.319 209.265C407.136 209.343 406.949 209.42 406.765 209.497C406.89 209.592 407.018 209.691 407.143 209.786C407.334 209.706 407.525 209.625 407.715 209.544C407.407 209.192 407.136 208.979 406.732 208.759C406.604 208.689 406.196 208.759 406.178 208.946C406.097 209.717 406.127 210.381 406.273 211.14C406.479 211.085 406.684 211.03 406.89 210.975C406.629 210.08 406.369 209.188 406.108 208.293C406.046 208.077 405.466 208.238 405.492 208.458C405.595 209.376 405.694 210.293 405.796 211.21C406.002 211.155 406.207 211.1 406.413 211.045C405.98 210.263 405.716 209.486 405.584 208.598C405.551 208.381 404.96 208.543 404.967 208.763C404.993 209.691 405.015 210.616 405.041 211.544C405.246 211.489 405.451 211.434 405.657 211.379C405.382 210.37 405.11 209.357 404.835 208.348C404.776 208.124 404.211 208.297 404.219 208.513C404.255 209.684 404.292 210.851 404.325 212.021C404.531 211.966 404.736 211.911 404.941 211.856C404.681 210.612 404.479 209.368 404.343 208.106C404.321 207.893 403.723 208.047 403.727 208.271C403.734 209.541 403.745 210.814 403.753 212.083C403.958 212.028 404.164 211.973 404.369 211.918C404.028 210.942 403.833 209.952 403.661 208.935C403.624 208.73 403.059 208.877 403.045 209.056C402.96 210.124 402.879 211.195 402.795 212.263C402.993 212.212 403.191 212.157 403.389 212.105C403.169 211.797 403.052 211.46 403.037 211.089C402.832 211.144 402.626 211.199 402.421 211.254C402.523 211.746 402.623 212.241 402.725 212.733C402.773 212.96 403.294 212.766 403.342 212.612C403.65 211.61 403.954 210.612 404.263 209.61C404.384 209.218 404.461 208.308 404.993 208.253C405.378 208.212 406.127 209.089 406.35 209.335C406.508 209.24 406.666 209.144 406.827 209.045C406.09 208.81 405.345 207.629 406.688 208.715C406.648 208.686 407.352 209.398 407.29 209.405C407.114 209.423 406.457 208.506 406.589 208.433C406.934 208.238 407.576 209.75 407.62 209.919C407.803 209.842 407.991 209.764 408.174 209.687C407.609 209.442 406.611 208.719 405.936 209.086C405.334 209.412 405.433 210.458 405.65 210.975C405.683 211.052 405.763 211.063 405.837 211.067C406.589 211.115 407.308 210.748 407.961 210.407C407.796 210.388 407.627 210.37 407.462 210.355C407.264 210.931 406.882 211.357 406.317 211.628C406.446 211.691 406.574 211.749 406.699 211.812C407.315 211.43 407.701 210.979 407.991 210.307C408.082 210.087 407.55 210.219 407.492 210.256C406.365 210.906 405.437 211.724 404.644 212.755C404.842 212.744 405.041 212.733 405.239 212.722C405.305 212.061 405.444 211.482 405.686 210.865C405.481 210.891 405.275 210.917 405.07 210.942C405.015 211.606 404.912 212.021 404.575 212.637C404.773 212.612 404.971 212.586 405.169 212.56C405.044 212.285 404.916 212.01 404.791 211.738C404.699 211.537 404.105 211.694 404.175 211.904C404.674 213.445 405.301 214.912 406.072 216.34C406.178 216.538 406.772 216.369 406.688 216.175C406.079 214.769 405.664 213.331 405.437 211.816C405.231 211.871 405.026 211.926 404.82 211.981C405.411 213.412 405.903 214.868 406.299 216.362C406.354 216.574 406.96 216.417 406.916 216.197C406.67 214.978 406.424 213.764 406.178 212.546C405.973 212.601 405.767 212.656 405.562 212.711C405.984 214.608 406.405 216.501 406.827 218.398C407.033 218.343 407.238 218.288 407.444 218.233C406.27 216.006 405.242 213.72 404.358 211.364C404.281 211.155 403.709 211.306 403.742 211.529C403.815 212.014 403.888 212.502 403.962 212.986C404.16 212.92 404.358 212.85 404.556 212.784C404.182 212.373 404.285 211.79 403.617 211.915C403.499 211.937 403.301 211.988 403.265 212.124C403.136 212.637 403.228 213.184 403.25 213.713C403.257 213.907 403.877 213.786 403.866 213.547C403.822 212.509 403.775 211.467 403.731 210.429C403.723 210.23 403.129 210.363 403.114 210.55C403.033 211.65 402.956 212.751 402.876 213.848C403.081 213.808 403.287 213.768 403.492 213.727C403.382 212.579 403.272 211.434 403.158 210.285C402.953 210.341 402.747 210.396 402.542 210.451C402.641 211.148 402.74 211.845 402.839 212.542C402.868 212.744 403.452 212.604 403.455 212.421C403.463 211.724 403.481 209.427 404.182 209.027C405.371 208.344 406.629 209.779 407.359 210.557C407.536 210.465 407.715 210.377 407.892 210.285C407.194 209.871 406.585 209.398 406.013 208.829C405.837 208.921 405.657 209.009 405.481 209.1C406.218 209.489 406.956 209.882 407.697 210.271C407.862 210.172 408.024 210.073 408.189 209.974C407.238 209.537 406.332 209.042 405.444 208.48C405.279 208.579 405.118 208.678 404.952 208.777C405.294 208.906 405.591 209.104 405.848 209.368C406.501 209.955 406.046 210.249 404.483 210.252C404.303 210.164 403.738 210.425 403.991 210.55C404.743 210.924 405.888 211.078 406.567 210.418C407.381 209.629 406.138 208.803 405.444 208.477C405.279 208.4 404.696 208.609 404.952 208.774C405.837 209.335 406.743 209.83 407.697 210.267C407.869 210.348 408.449 210.106 408.189 209.97C407.451 209.581 406.714 209.188 405.973 208.799C405.844 208.73 405.261 208.891 405.44 209.071C406.046 209.669 406.67 210.15 407.4 210.583C407.532 210.66 408.101 210.495 407.932 210.311C407.183 209.515 405.734 207.919 404.446 208.315C402.978 208.766 402.854 211.32 402.839 212.494C403.044 212.454 403.25 212.414 403.455 212.373C403.356 211.676 403.257 210.979 403.158 210.282C403.129 210.073 402.52 210.219 402.542 210.447C402.652 211.595 402.762 212.74 402.876 213.889C402.894 214.09 403.481 213.951 403.492 213.768C403.573 212.667 403.65 211.566 403.731 210.469C403.525 210.509 403.32 210.55 403.114 210.59C403.158 211.628 403.206 212.67 403.25 213.709C403.455 213.654 403.661 213.599 403.866 213.544C403.844 213.074 403.767 212.502 403.881 212.043C403.764 212.113 403.646 212.182 403.529 212.252C403.558 212.249 403.885 212.924 403.976 213.023C404.101 213.162 404.604 213.037 404.571 212.821C404.497 212.337 404.424 211.849 404.351 211.364C404.145 211.419 403.94 211.474 403.734 211.529C404.619 213.885 405.646 216.175 406.82 218.398C406.923 218.589 407.488 218.46 407.437 218.233C407.015 216.336 406.593 214.443 406.171 212.546C406.123 212.333 405.51 212.487 405.554 212.711C405.8 213.929 406.046 215.143 406.292 216.362C406.497 216.307 406.703 216.252 406.908 216.197C406.512 214.703 406.02 213.247 405.429 211.816C405.345 211.61 404.78 211.757 404.813 211.981C405.044 213.496 405.455 214.934 406.064 216.34C406.27 216.285 406.475 216.23 406.681 216.175C405.914 214.751 405.283 213.28 404.784 211.738C404.578 211.794 404.373 211.849 404.167 211.904C404.292 212.179 404.42 212.454 404.545 212.726C404.633 212.916 405.059 212.799 405.14 212.648C405.459 212.065 405.624 211.533 405.679 210.865C405.701 210.594 405.129 210.773 405.063 210.942C404.817 211.559 404.681 212.138 404.615 212.799C404.589 213.074 405.129 212.876 405.209 212.766C405.954 211.794 406.802 211.049 407.866 210.44C407.701 210.421 407.532 210.403 407.367 210.388C407.18 210.931 406.827 211.346 406.31 211.632C405.951 211.856 406.497 211.922 406.692 211.816C407.359 211.445 407.767 210.986 408.071 210.282C408.167 210.062 407.627 210.197 407.572 210.23C407.114 210.682 406.637 210.781 406.141 210.528C405.954 210.12 405.995 209.797 406.259 209.563C406.611 209.365 407.271 209.819 407.679 209.999C407.807 210.054 408.288 209.988 408.233 209.768C407.994 208.821 406.868 207.365 405.826 208.209C405.789 208.238 405.752 208.293 405.763 208.341C405.987 209.229 407.059 210.44 408.013 209.875C408.068 209.842 408.148 209.775 408.13 209.702C407.903 208.737 406.413 207.457 405.385 207.996C405.316 208.033 405.268 208.091 405.268 208.168C405.275 208.862 405.859 209.207 406.446 209.39C406.556 209.427 407.088 209.284 406.923 209.1C406.387 208.517 405.312 207.427 404.428 207.989C404.009 208.253 403.943 208.752 403.8 209.196C403.43 210.359 403.085 211.529 402.725 212.696C402.931 212.656 403.136 212.615 403.342 212.575C403.239 212.083 403.14 211.588 403.037 211.096C402.993 210.884 402.388 211.038 402.421 211.261C402.483 211.702 402.593 211.981 402.817 212.355C402.909 212.509 403.397 212.366 403.411 212.197C403.496 211.129 403.577 210.058 403.661 208.99C403.455 209.031 403.25 209.071 403.045 209.111C403.217 210.128 403.411 211.118 403.753 212.094C403.83 212.318 404.373 212.146 404.369 211.929C404.362 210.66 404.351 209.387 404.343 208.117C404.138 208.172 403.932 208.227 403.727 208.282C403.866 209.544 404.065 210.788 404.325 212.032C404.373 212.252 404.949 212.083 404.941 211.867C404.905 210.696 404.868 209.53 404.835 208.359C404.63 208.414 404.424 208.469 404.219 208.524C404.494 209.533 404.765 210.546 405.041 211.555C405.099 211.779 405.664 211.606 405.657 211.39C405.631 210.462 405.609 209.537 405.584 208.609C405.378 208.664 405.173 208.719 404.967 208.774C405.099 209.658 405.363 210.436 405.796 211.221C405.903 211.416 406.439 211.291 406.413 211.056C406.31 210.139 406.211 209.221 406.108 208.304C405.903 208.359 405.697 208.414 405.492 208.469C405.752 209.365 406.013 210.256 406.273 211.151C406.336 211.364 406.934 211.206 406.89 210.986C406.754 210.278 406.721 209.596 406.794 208.88C406.611 208.943 406.424 209.005 406.24 209.067C406.607 209.232 406.908 209.475 407.139 209.794C407.275 209.948 407.866 209.746 407.712 209.552C407.492 209.276 407.576 209.343 407.249 209.203C407.143 209.159 406.6 209.225 406.695 209.434C406.901 209.878 407.088 210.15 407.466 210.48C407.591 210.59 408.123 210.506 408.06 210.278C407.803 209.357 407.114 208.873 406.171 208.895C405.947 208.891 405.525 209.247 405.939 209.236Z" fill="#272525"/>
<path d="M175.041 452.261C178.895 459.218 185.388 464.884 191.759 469.509C197.202 473.466 203.314 475.333 210.039 474.971C222.002 474.32 238.182 469.444 243.476 457.332C248.427 446.001 231.309 436.75 222.392 443.038C218.24 445.973 219.68 452.753 221.064 456.747C223.739 464.466 230.166 470.057 236.361 474.998C243.374 480.59 251.158 485.011 259.851 487.389C263.074 488.271 265.545 488.457 268.796 488.336C270.681 488.271 275.966 487.603 276.877 489.85C277.09 490.38 278.186 489.237 277.973 488.726C276.923 486.154 271.657 486.887 269.548 486.962C264.347 487.147 259.805 486.014 254.901 484.11C248.668 481.677 243.03 478.221 237.792 474.079C232.377 469.788 226.813 465.144 223.572 458.902C222.076 456.013 221.166 452.846 220.943 449.595C220.822 447.858 221.017 447.868 221.983 445.954C223.126 443.679 222.921 443.66 225.216 443.075C226.73 442.685 228.327 442.499 229.888 442.611C235.284 443.001 242.78 446.892 243.281 452.911C243.848 459.71 236.464 465.264 231.206 468.172C224.946 471.627 217.748 473.215 210.661 473.577C203.862 473.93 197.741 471.952 192.289 467.874C186.159 463.286 179.889 457.89 176.137 451.128C175.84 450.608 174.781 451.787 175.041 452.261Z" fill="#272525"/>
<defs>
<filter id="filter0_d_25_3787" x="-170" y="32" width="829" height="699" filterUnits="userSpaceOnUse" color-interpolation-filters="sRGB">
<feFlood flood-opacity="0" result="BackgroundImageFix"/>
<feColorMatrix in="SourceAlpha" type="matrix" values="0 0 0 0 0 0 0 0 0 0 0 0 0 0 0 0 0 0 127 0" result="hardAlpha"/>
<feOffset dy="20"/>
<feGaussianBlur stdDeviation="25"/>
<feColorMatrix type="matrix" values="0 0 0 0 0 0 0 0 0 0 0 0 0 0 0 0 0 0 0.1 0"/>
<feBlend mode="normal" in2="BackgroundImageFix" result="effect1_dropShadow_25_3787"/>
<feBlend mode="normal" in="SourceGraphic" in2="effect1_dropShadow_25_3787" result="shape"/>
</filter>
<linearGradient id="paint0_linear_25_3787" x1="-227.948" y1="701.766" x2="360.857" y2="-184.695" gradientUnits="userSpaceOnUse">
<stop stop-color="#9796F0"/>
<stop offset="1" stop-color="#FFE0E8"/>
</linearGradient>
</defs>
</svg>
