<svg width="280" height="592" viewBox="0 0 280 592" fill="none" xmlns="http://www.w3.org/2000/svg">
<rect y="-8" width="280" height="600" rx="6" fill="#FAFAFA"/>
<g clip-path="url(#clip0_27_862)">
<path d="M112 537C112 531.477 107.523 527 102 527C96.4771 527 92 531.477 92 537C92 541.991 95.6568 546.128 100.437 546.879V539.891H97.8984V537H100.437V534.797C100.437 532.291 101.93 530.906 104.215 530.906C105.308 530.906 106.453 531.102 106.453 531.102V533.563H105.192C103.95 533.563 103.562 534.333 103.562 535.125V537H106.336L105.893 539.891H103.562V546.879C108.343 546.128 112 541.991 112 537Z" fill="#1877F2"/>
<path d="M105.893 539.891L106.336 537H103.562V535.125C103.562 534.334 103.95 533.562 105.192 533.562H106.453V531.102C106.453 531.102 105.309 530.906 104.215 530.906C101.93 530.906 100.437 532.291 100.437 534.797V537H97.8984V539.891H100.437V546.879C101.473 547.04 102.527 547.04 103.562 546.879V539.891H105.893Z" fill="white"/>
</g>
<g clip-path="url(#clip1_27_862)">
<path d="M140.182 528.801C142.854 528.801 143.17 528.812 144.221 528.859C145.198 528.902 145.725 529.066 146.076 529.203C146.541 529.383 146.877 529.602 147.225 529.949C147.576 530.301 147.791 530.633 147.971 531.098C148.108 531.449 148.272 531.98 148.315 532.953C148.362 534.008 148.373 534.324 148.373 536.992C148.373 539.664 148.362 539.98 148.315 541.031C148.272 542.008 148.108 542.535 147.971 542.887C147.791 543.352 147.572 543.687 147.225 544.035C146.873 544.387 146.541 544.602 146.076 544.781C145.725 544.918 145.194 545.082 144.221 545.125C143.166 545.172 142.85 545.184 140.182 545.184C137.51 545.184 137.194 545.172 136.143 545.125C135.166 545.082 134.639 544.918 134.287 544.781C133.823 544.602 133.487 544.383 133.139 544.035C132.787 543.684 132.573 543.352 132.393 542.887C132.256 542.535 132.092 542.004 132.049 541.031C132.002 539.977 131.99 539.66 131.99 536.992C131.99 534.32 132.002 534.004 132.049 532.953C132.092 531.977 132.256 531.449 132.393 531.098C132.573 530.633 132.791 530.297 133.139 529.949C133.49 529.598 133.823 529.383 134.287 529.203C134.639 529.066 135.17 528.902 136.143 528.859C137.194 528.812 137.51 528.801 140.182 528.801ZM140.182 527C137.467 527 137.127 527.012 136.061 527.059C134.998 527.105 134.268 527.277 133.635 527.523C132.975 527.781 132.416 528.121 131.862 528.68C131.303 529.234 130.963 529.793 130.705 530.449C130.459 531.086 130.287 531.812 130.24 532.875C130.194 533.945 130.182 534.285 130.182 537C130.182 539.715 130.194 540.055 130.24 541.121C130.287 542.184 130.459 542.914 130.705 543.547C130.963 544.207 131.303 544.766 131.862 545.32C132.416 545.875 132.975 546.219 133.631 546.473C134.268 546.719 134.994 546.891 136.057 546.937C137.123 546.984 137.463 546.996 140.178 546.996C142.893 546.996 143.233 546.984 144.299 546.937C145.362 546.891 146.092 546.719 146.725 546.473C147.381 546.219 147.94 545.875 148.494 545.32C149.049 544.766 149.393 544.207 149.647 543.551C149.893 542.914 150.065 542.187 150.112 541.125C150.158 540.059 150.17 539.719 150.17 537.004C150.17 534.289 150.158 533.949 150.112 532.883C150.065 531.82 149.893 531.09 149.647 530.457C149.401 529.793 149.061 529.234 148.502 528.68C147.947 528.125 147.389 527.781 146.733 527.527C146.096 527.281 145.369 527.109 144.307 527.062C143.237 527.012 142.897 527 140.182 527Z" fill="#EC3397"/>
<path d="M140.182 531.863C137.346 531.863 135.045 534.164 135.045 537C135.045 539.836 137.346 542.137 140.182 542.137C143.018 542.137 145.319 539.836 145.319 537C145.319 534.164 143.018 531.863 140.182 531.863ZM140.182 540.332C138.342 540.332 136.85 538.84 136.85 537C136.85 535.16 138.342 533.668 140.182 533.668C142.022 533.668 143.514 535.16 143.514 537C143.514 538.84 142.022 540.332 140.182 540.332Z" fill="#EC3397"/>
<path d="M146.721 531.66C146.721 532.324 146.182 532.859 145.522 532.859C144.858 532.859 144.323 532.32 144.323 531.66C144.323 530.996 144.862 530.461 145.522 530.461C146.182 530.461 146.721 531 146.721 531.66Z" fill="#EC3397"/>
</g>
<g clip-path="url(#clip2_27_862)">
<path d="M186.887 527H169.84C169.448 527 169.073 527.156 168.796 527.432C168.519 527.709 168.364 528.085 168.364 528.476V545.524C168.364 545.915 168.519 546.291 168.796 546.568C169.073 546.844 169.448 547 169.84 547H186.887C187.279 547 187.654 546.844 187.931 546.568C188.208 546.291 188.364 545.915 188.364 545.524V528.476C188.364 528.085 188.208 527.709 187.931 527.432C187.654 527.156 187.279 527 186.887 527ZM174.325 544.037H171.318V534.486H174.325V544.037ZM172.819 533.162C172.478 533.161 172.145 533.058 171.862 532.867C171.58 532.676 171.36 532.405 171.231 532.09C171.102 531.774 171.069 531.427 171.137 531.093C171.205 530.759 171.37 530.452 171.612 530.211C171.854 529.971 172.162 529.808 172.496 529.742C172.831 529.676 173.178 529.711 173.493 529.842C173.808 529.974 174.076 530.195 174.266 530.479C174.455 530.763 174.555 531.096 174.555 531.438C174.558 531.666 174.516 531.893 174.429 532.104C174.343 532.315 174.215 532.507 174.053 532.668C173.891 532.829 173.698 532.956 173.486 533.041C173.274 533.126 173.047 533.167 172.819 533.162ZM185.408 544.046H182.402V538.828C182.402 537.289 181.748 536.814 180.904 536.814C180.012 536.814 179.137 537.486 179.137 538.867V544.046H176.13V534.493H179.022V535.817H179.061C179.351 535.229 180.368 534.225 181.919 534.225C183.597 534.225 185.409 535.221 185.409 538.137L185.408 544.046Z" fill="#0A66C2"/>
</g>
<path d="M121.157 324.2H122.445V334H121.157V329.59H116.397V334H115.095V324.2H116.397V328.358H121.157V324.2ZM130.212 327H131.43V334H130.212V332.796C129.606 333.72 128.724 334.182 127.566 334.182C126.586 334.182 125.751 333.827 125.06 333.118C124.37 332.399 124.024 331.527 124.024 330.5C124.024 329.473 124.37 328.605 125.06 327.896C125.751 327.177 126.586 326.818 127.566 326.818C128.724 326.818 129.606 327.28 130.212 328.204V327ZM127.72 333.006C128.43 333.006 129.022 332.768 129.498 332.292C129.974 331.807 130.212 331.209 130.212 330.5C130.212 329.791 129.974 329.198 129.498 328.722C129.022 328.237 128.43 327.994 127.72 327.994C127.02 327.994 126.432 328.237 125.956 328.722C125.48 329.198 125.242 329.791 125.242 330.5C125.242 331.209 125.48 331.807 125.956 332.292C126.432 332.768 127.02 333.006 127.72 333.006ZM136.454 334.182C135.418 334.182 134.564 333.841 133.892 333.16C133.22 332.479 132.884 331.601 132.884 330.528C132.884 329.333 133.056 328.414 133.402 327.77C133.756 327.126 134.475 326.543 135.558 326.02C135.754 325.927 136.02 325.805 136.356 325.656C136.701 325.507 136.953 325.395 137.112 325.32C137.27 325.236 137.448 325.129 137.644 324.998C137.84 324.858 137.984 324.709 138.078 324.55C138.18 324.382 138.255 324.191 138.302 323.976L139.282 324.536C139.254 324.685 139.216 324.825 139.17 324.956C139.123 325.077 139.053 325.199 138.96 325.32C138.876 325.432 138.801 325.53 138.736 325.614C138.67 325.698 138.558 325.791 138.4 325.894C138.25 325.987 138.138 326.057 138.064 326.104C137.998 326.151 137.863 326.221 137.658 326.314C137.462 326.407 137.326 326.473 137.252 326.51C137.186 326.538 137.032 326.603 136.79 326.706C136.547 326.799 136.398 326.86 136.342 326.888C135.707 327.159 135.24 327.434 134.942 327.714C134.652 327.994 134.442 328.349 134.312 328.778C134.61 328.405 134.984 328.129 135.432 327.952C135.88 327.775 136.328 327.686 136.776 327.686C137.653 327.686 138.395 327.985 139.002 328.582C139.618 329.179 139.926 329.949 139.926 330.892C139.926 331.844 139.599 332.633 138.946 333.258C138.292 333.874 137.462 334.182 136.454 334.182ZM134.816 332.39C135.254 332.801 135.8 333.006 136.454 333.006C137.107 333.006 137.644 332.805 138.064 332.404C138.493 332.003 138.708 331.499 138.708 330.892C138.708 330.267 138.502 329.758 138.092 329.366C137.69 328.965 137.158 328.764 136.496 328.764C135.898 328.764 135.357 328.955 134.872 329.338C134.396 329.711 134.158 330.206 134.158 330.822C134.158 331.457 134.377 331.979 134.816 332.39ZM147.127 333.118C146.408 333.827 145.536 334.182 144.509 334.182C143.482 334.182 142.61 333.827 141.891 333.118C141.182 332.409 140.827 331.536 140.827 330.5C140.827 329.464 141.182 328.591 141.891 327.882C142.61 327.173 143.482 326.818 144.509 326.818C145.536 326.818 146.408 327.173 147.127 327.882C147.846 328.591 148.205 329.464 148.205 330.5C148.205 331.536 147.846 332.409 147.127 333.118ZM144.509 332.992C145.209 332.992 145.797 332.754 146.273 332.278C146.749 331.802 146.987 331.209 146.987 330.5C146.987 329.791 146.749 329.198 146.273 328.722C145.797 328.246 145.209 328.008 144.509 328.008C143.818 328.008 143.235 328.246 142.759 328.722C142.283 329.198 142.045 329.791 142.045 330.5C142.045 331.209 142.283 331.802 142.759 332.278C143.235 332.754 143.818 332.992 144.509 332.992ZM153.505 326.818C154.485 326.818 155.32 327.177 156.011 327.896C156.701 328.605 157.047 329.473 157.047 330.5C157.047 331.527 156.701 332.399 156.011 333.118C155.32 333.827 154.485 334.182 153.505 334.182C152.347 334.182 151.465 333.72 150.859 332.796V336.8H149.641V327H150.859V328.204C151.465 327.28 152.347 326.818 153.505 326.818ZM153.351 333.006C154.051 333.006 154.639 332.768 155.115 332.292C155.591 331.807 155.829 331.209 155.829 330.5C155.829 329.791 155.591 329.198 155.115 328.722C154.639 328.237 154.051 327.994 153.351 327.994C152.641 327.994 152.049 328.237 151.573 328.722C151.097 329.198 150.859 329.791 150.859 330.5C150.859 331.209 151.097 331.807 151.573 332.292C152.049 332.768 152.641 333.006 153.351 333.006ZM161.454 329.52C162.154 329.52 162.733 329.73 163.19 330.15C163.657 330.561 163.89 331.097 163.89 331.76C163.89 332.423 163.657 332.964 163.19 333.384C162.733 333.795 162.154 334 161.454 334H158.5V327H159.718V329.52H161.454ZM164.8 327H166.018V334H164.8V327ZM161.454 332.866C161.8 332.866 162.089 332.768 162.322 332.572C162.565 332.367 162.686 332.096 162.686 331.76C162.686 331.424 162.565 331.153 162.322 330.948C162.089 330.743 161.8 330.64 161.454 330.64H159.718V332.866H161.454Z" fill="#272525"/>
<path d="M101.568 353.2V363H100.266V354.432H95.7583V363H94.4563V353.2H101.568ZM107.409 355.818C108.389 355.818 109.224 356.177 109.915 356.896C110.606 357.605 110.951 358.473 110.951 359.5C110.951 360.527 110.606 361.399 109.915 362.118C109.224 362.827 108.389 363.182 107.409 363.182C106.252 363.182 105.37 362.72 104.763 361.796V365.8H103.545V356H104.763V357.204C105.37 356.28 106.252 355.818 107.409 355.818ZM107.255 362.006C107.955 362.006 108.543 361.768 109.019 361.292C109.495 360.807 109.733 360.209 109.733 359.5C109.733 358.791 109.495 358.198 109.019 357.722C108.543 357.237 107.955 356.994 107.255 356.994C106.546 356.994 105.953 357.237 105.477 357.722C105.001 358.198 104.763 358.791 104.763 359.5C104.763 360.209 105.001 360.807 105.477 361.292C105.953 361.768 106.546 362.006 107.255 362.006ZM118.312 362.118C117.594 362.827 116.721 363.182 115.694 363.182C114.668 363.182 113.795 362.827 113.076 362.118C112.367 361.409 112.012 360.536 112.012 359.5C112.012 358.464 112.367 357.591 113.076 356.882C113.795 356.173 114.668 355.818 115.694 355.818C116.721 355.818 117.594 356.173 118.312 356.882C119.031 357.591 119.39 358.464 119.39 359.5C119.39 360.536 119.031 361.409 118.312 362.118ZM115.694 361.992C116.394 361.992 116.982 361.754 117.458 361.278C117.934 360.802 118.172 360.209 118.172 359.5C118.172 358.791 117.934 358.198 117.458 357.722C116.982 357.246 116.394 357.008 115.694 357.008C115.004 357.008 114.42 357.246 113.944 357.722C113.468 358.198 113.23 358.791 113.23 359.5C113.23 360.209 113.468 360.802 113.944 361.278C114.42 361.754 115.004 361.992 115.694 361.992ZM125.908 356H126.888V363H125.684V358.086L121.806 363H120.826V356H122.03V360.914L125.908 356ZM132.522 359.416C133.297 359.733 133.684 360.289 133.684 361.082C133.684 361.67 133.451 362.169 132.984 362.58C132.518 362.981 131.855 363.182 130.996 363.182C129.596 363.182 128.658 362.622 128.182 361.502L129.204 360.9C129.475 361.665 130.077 362.048 131.01 362.048C131.477 362.048 131.836 361.95 132.088 361.754C132.35 361.549 132.48 361.287 132.48 360.97C132.48 360.69 132.373 360.461 132.158 360.284C131.953 360.107 131.673 360.018 131.318 360.018H130.296V358.912H131.052C131.407 358.912 131.682 358.828 131.878 358.66C132.074 358.483 132.172 358.245 132.172 357.946C132.172 357.647 132.056 357.405 131.822 357.218C131.598 357.031 131.286 356.938 130.884 356.938C130.1 356.938 129.568 357.269 129.288 357.932L128.294 357.358C128.789 356.331 129.652 355.818 130.884 355.818C131.65 355.818 132.252 356.014 132.69 356.406C133.138 356.798 133.362 357.279 133.362 357.848C133.362 358.557 133.082 359.08 132.522 359.416ZM139.666 359.402C140.385 359.701 140.744 360.242 140.744 361.026C140.744 361.605 140.548 362.081 140.156 362.454C139.773 362.818 139.223 363 138.504 363H135.004V356H138.224C138.924 356 139.465 356.177 139.848 356.532C140.231 356.877 140.422 357.335 140.422 357.904C140.422 358.576 140.17 359.075 139.666 359.402ZM138.168 357.092H136.194V358.926H138.168C138.877 358.926 139.232 358.613 139.232 357.988C139.232 357.391 138.877 357.092 138.168 357.092ZM138.434 361.894C138.789 361.894 139.059 361.81 139.246 361.642C139.442 361.474 139.54 361.236 139.54 360.928C139.54 360.639 139.442 360.415 139.246 360.256C139.059 360.088 138.789 360.004 138.434 360.004H136.194V361.894H138.434ZM147.967 362.118C147.248 362.827 146.375 363.182 145.349 363.182C144.322 363.182 143.449 362.827 142.731 362.118C142.021 361.409 141.667 360.536 141.667 359.5C141.667 358.464 142.021 357.591 142.731 356.882C143.449 356.173 144.322 355.818 145.349 355.818C146.375 355.818 147.248 356.173 147.967 356.882C148.685 357.591 149.045 358.464 149.045 359.5C149.045 360.536 148.685 361.409 147.967 362.118ZM145.349 361.992C146.049 361.992 146.637 361.754 147.113 361.278C147.589 360.802 147.827 360.209 147.827 359.5C147.827 358.791 147.589 358.198 147.113 357.722C146.637 357.246 146.049 357.008 145.349 357.008C144.658 357.008 144.075 357.246 143.599 357.722C143.123 358.198 142.885 358.791 142.885 359.5C142.885 360.209 143.123 360.802 143.599 361.278C144.075 361.754 144.658 361.992 145.349 361.992ZM156.227 361.838H157.193V364.876H155.989V363H150.739V364.876H149.535V361.838H150.389C150.837 361.222 151.061 360.359 151.061 359.248V356H156.227V361.838ZM151.775 361.838H155.023V357.134H152.265V359.248C152.265 360.293 152.102 361.157 151.775 361.838ZM161.523 363.182C160.468 363.182 159.591 362.832 158.891 362.132C158.191 361.423 157.841 360.545 157.841 359.5C157.841 358.455 158.191 357.582 158.891 356.882C159.591 356.173 160.468 355.818 161.523 355.818C162.213 355.818 162.834 355.986 163.385 356.322C163.935 356.649 164.346 357.092 164.617 357.652L163.595 358.24C163.417 357.867 163.142 357.568 162.769 357.344C162.405 357.12 161.989 357.008 161.523 357.008C160.823 357.008 160.235 357.246 159.759 357.722C159.292 358.198 159.059 358.791 159.059 359.5C159.059 360.2 159.292 360.788 159.759 361.264C160.235 361.74 160.823 361.978 161.523 361.978C161.989 361.978 162.409 361.871 162.783 361.656C163.156 361.432 163.441 361.133 163.637 360.76L164.673 361.362C164.374 361.913 163.945 362.356 163.385 362.692C162.825 363.019 162.204 363.182 161.523 363.182ZM170.974 356V357.176H168.594V363H167.376V357.176H164.982V356H170.974ZM176.703 359.402C177.422 359.701 177.781 360.242 177.781 361.026C177.781 361.605 177.585 362.081 177.193 362.454C176.811 362.818 176.26 363 175.541 363H172.041V356H175.261C175.961 356 176.503 356.177 176.885 356.532C177.268 356.877 177.459 357.335 177.459 357.904C177.459 358.576 177.207 359.075 176.703 359.402ZM175.205 357.092H173.231V358.926H175.205C175.915 358.926 176.269 358.613 176.269 357.988C176.269 357.391 175.915 357.092 175.205 357.092ZM175.471 361.894C175.826 361.894 176.097 361.81 176.283 361.642C176.479 361.474 176.577 361.236 176.577 360.928C176.577 360.639 176.479 360.415 176.283 360.256C176.097 360.088 175.826 360.004 175.471 360.004H173.231V361.894H175.471ZM185.004 362.118C184.285 362.827 183.413 363.182 182.386 363.182C181.359 363.182 180.487 362.827 179.768 362.118C179.059 361.409 178.704 360.536 178.704 359.5C178.704 358.464 179.059 357.591 179.768 356.882C180.487 356.173 181.359 355.818 182.386 355.818C183.413 355.818 184.285 356.173 185.004 356.882C185.723 357.591 186.082 358.464 186.082 359.5C186.082 360.536 185.723 361.409 185.004 362.118ZM182.386 361.992C183.086 361.992 183.674 361.754 184.15 361.278C184.626 360.802 184.864 360.209 184.864 359.5C184.864 358.791 184.626 358.198 184.15 357.722C183.674 357.246 183.086 357.008 182.386 357.008C181.695 357.008 181.112 357.246 180.636 357.722C180.16 358.198 179.922 358.791 179.922 359.5C179.922 360.209 180.16 360.802 180.636 361.278C181.112 361.754 181.695 361.992 182.386 361.992Z" fill="#272525"/>
<path d="M104.552 392V384.692L99.5121 392H98.4621V382.2H99.7641V389.522L104.804 382.2H105.854V392H104.552ZM112.668 385H113.886V392H112.668V389.074H109.042V392H107.824V385H109.042V387.912H112.668V385ZM122.768 386.05C123.422 386.722 123.748 387.539 123.748 388.5C123.748 389.461 123.422 390.278 122.768 390.95C122.115 391.622 121.242 392.019 120.15 392.14V394.8H118.946V392.14C117.854 392.019 116.982 391.622 116.328 390.95C115.675 390.278 115.348 389.461 115.348 388.5C115.348 387.539 115.675 386.722 116.328 386.05C116.982 385.378 117.854 384.981 118.946 384.86V382.2H120.15V384.86C121.242 384.981 122.115 385.378 122.768 386.05ZM116.552 388.5C116.552 389.144 116.762 389.69 117.182 390.138C117.612 390.586 118.2 390.861 118.946 390.964V386.036C118.2 386.129 117.612 386.4 117.182 386.848C116.762 387.296 116.552 387.847 116.552 388.5ZM120.15 390.964C120.897 390.861 121.48 390.586 121.9 390.138C122.32 389.69 122.53 389.144 122.53 388.5C122.53 387.856 122.32 387.31 121.9 386.862C121.48 386.414 120.897 386.139 120.15 386.036V390.964ZM131.096 391.118C130.377 391.827 129.504 392.182 128.478 392.182C127.451 392.182 126.578 391.827 125.86 391.118C125.15 390.409 124.796 389.536 124.796 388.5C124.796 387.464 125.15 386.591 125.86 385.882C126.578 385.173 127.451 384.818 128.478 384.818C129.504 384.818 130.377 385.173 131.096 385.882C131.814 386.591 132.174 387.464 132.174 388.5C132.174 389.536 131.814 390.409 131.096 391.118ZM128.478 390.992C129.178 390.992 129.766 390.754 130.242 390.278C130.718 389.802 130.956 389.209 130.956 388.5C130.956 387.791 130.718 387.198 130.242 386.722C129.766 386.246 129.178 386.008 128.478 386.008C127.787 386.008 127.204 386.246 126.728 386.722C126.252 387.198 126.014 387.791 126.014 388.5C126.014 389.209 126.252 389.802 126.728 390.278C127.204 390.754 127.787 390.992 128.478 390.992ZM137.474 384.818C138.454 384.818 139.289 385.177 139.98 385.896C140.67 386.605 141.016 387.473 141.016 388.5C141.016 389.527 140.67 390.399 139.98 391.118C139.289 391.827 138.454 392.182 137.474 392.182C136.316 392.182 135.434 391.72 134.828 390.796V394.8H133.61V385H134.828V386.204C135.434 385.28 136.316 384.818 137.474 384.818ZM137.32 391.006C138.02 391.006 138.608 390.768 139.084 390.292C139.56 389.807 139.798 389.209 139.798 388.5C139.798 387.791 139.56 387.198 139.084 386.722C138.608 386.237 138.02 385.994 137.32 385.994C136.61 385.994 136.018 386.237 135.542 386.722C135.066 387.198 134.828 387.791 134.828 388.5C134.828 389.209 135.066 389.807 135.542 390.292C136.018 390.768 136.61 391.006 137.32 391.006ZM149.469 385V392H148.279V386.918L146.053 390.502H145.899L143.673 386.918V392H142.469V385H143.771L145.969 388.542L148.167 385H149.469ZM157.124 385H158.342V392H157.124V390.796C156.518 391.72 155.636 392.182 154.478 392.182C153.498 392.182 152.663 391.827 151.972 391.118C151.282 390.399 150.936 389.527 150.936 388.5C150.936 387.473 151.282 386.605 151.972 385.896C152.663 385.177 153.498 384.818 154.478 384.818C155.636 384.818 156.518 385.28 157.124 386.204V385ZM154.632 391.006C155.342 391.006 155.934 390.768 156.41 390.292C156.886 389.807 157.124 389.209 157.124 388.5C157.124 387.791 156.886 387.198 156.41 386.722C155.934 386.237 155.342 385.994 154.632 385.994C153.932 385.994 153.344 386.237 152.868 386.722C152.392 387.198 152.154 387.791 152.154 388.5C152.154 389.209 152.392 389.807 152.868 390.292C153.344 390.768 153.932 391.006 154.632 391.006ZM166.068 390.838H167.216V393.876H166.012V392H160.188V385H161.406V390.838H164.85V385H166.068V390.838ZM173.596 385H174.576V392H173.372V387.086L169.494 392H168.514V385H169.718V389.914L173.596 385ZM181.666 385V392H180.462V389.48H179.44L177.48 392H175.996L178.04 389.41C177.517 389.279 177.093 389.018 176.766 388.626C176.439 388.234 176.276 387.777 176.276 387.254C176.276 386.61 176.505 386.073 176.962 385.644C177.419 385.215 177.993 385 178.684 385H181.666ZM178.726 388.388H180.462V386.134H178.726C178.381 386.134 178.087 386.237 177.844 386.442C177.601 386.647 177.48 386.923 177.48 387.268C177.48 387.604 177.601 387.875 177.844 388.08C178.087 388.285 178.381 388.388 178.726 388.388Z" fill="#272525"/>
<path d="M160.02 155.84C160.796 155.84 161.44 156.084 161.952 156.572C162.464 157.06 162.72 157.676 162.72 158.42C162.72 159.164 162.464 159.78 161.952 160.268C161.44 160.756 160.796 161 160.02 161H156.84V152.6H162V153.92H158.22V155.84H160.02ZM160.02 159.704C160.396 159.704 160.708 159.588 160.956 159.356C161.212 159.116 161.34 158.804 161.34 158.42C161.34 158.036 161.212 157.728 160.956 157.496C160.708 157.256 160.396 157.136 160.02 157.136H158.22V159.704H160.02ZM168.528 155H169.824V161H168.528V160.136C168.04 160.816 167.34 161.156 166.428 161.156C165.604 161.156 164.9 160.852 164.316 160.244C163.732 159.628 163.44 158.88 163.44 158C163.44 157.112 163.732 156.364 164.316 155.756C164.9 155.148 165.604 154.844 166.428 154.844C167.34 154.844 168.04 155.18 168.528 155.852V155ZM165.276 159.38C165.636 159.74 166.088 159.92 166.632 159.92C167.176 159.92 167.628 159.74 167.988 159.38C168.348 159.012 168.528 158.552 168.528 158C168.528 157.448 168.348 156.992 167.988 156.632C167.628 156.264 167.176 156.08 166.632 156.08C166.088 156.08 165.636 156.264 165.276 156.632C164.916 156.992 164.736 157.448 164.736 158C164.736 158.552 164.916 159.012 165.276 159.38ZM175.378 155H176.674V161H175.378V158.612H172.63V161H171.334V155H172.63V157.388H175.378V155ZM182.93 155H184.226V161H182.93V160.136C182.442 160.816 181.742 161.156 180.83 161.156C180.006 161.156 179.302 160.852 178.718 160.244C178.134 159.628 177.842 158.88 177.842 158C177.842 157.112 178.134 156.364 178.718 155.756C179.302 155.148 180.006 154.844 180.83 154.844C181.742 154.844 182.442 155.18 182.93 155.852V155ZM179.678 159.38C180.038 159.74 180.49 159.92 181.034 159.92C181.578 159.92 182.03 159.74 182.39 159.38C182.75 159.012 182.93 158.552 182.93 158C182.93 157.448 182.75 156.992 182.39 156.632C182.03 156.264 181.578 156.08 181.034 156.08C180.49 156.08 180.038 156.264 179.678 156.632C179.318 156.992 179.138 157.448 179.138 158C179.138 158.552 179.318 159.012 179.678 159.38ZM189.78 155H191.076V161H189.78V158.612H187.032V161H185.736V155H187.032V157.388H189.78V155ZM197.884 161H196.336L193.876 158.228V161H192.58V155H193.876V157.652L196.204 155H197.788L195.148 157.94L197.884 161ZM203.1 155H204.096V161H202.824V157.184L199.752 161H198.756V155H200.028V158.804L203.1 155Z" fill="#8E8E8E"/>
<path d="M159.984 179.444C161.248 179.444 162.288 179.864 163.104 180.704C163.928 181.536 164.34 182.568 164.34 183.8C164.34 185.032 163.928 186.068 163.104 186.908C162.288 187.74 161.248 188.156 159.984 188.156C159.216 188.156 158.508 187.976 157.86 187.616C157.22 187.248 156.72 186.756 156.36 186.14L157.56 185.456C157.784 185.872 158.112 186.204 158.544 186.452C158.976 186.692 159.456 186.812 159.984 186.812C160.76 186.812 161.408 186.596 161.928 186.164C162.448 185.732 162.772 185.16 162.9 184.448H158.868V183.152H162.9C162.772 182.44 162.448 181.868 161.928 181.436C161.408 181.004 160.76 180.788 159.984 180.788C159.456 180.788 158.976 180.912 158.544 181.16C158.112 181.4 157.784 181.728 157.56 182.144L156.36 181.448C156.72 180.832 157.22 180.344 157.86 179.984C158.508 179.624 159.216 179.444 159.984 179.444ZM170.826 188H169.278L166.818 185.228V188H165.522V182H166.818V184.652L169.146 182H170.73L168.09 184.94L170.826 188ZM174.049 188.156C173.169 188.156 172.421 187.852 171.805 187.244C171.189 186.636 170.881 185.888 170.881 185C170.881 184.112 171.189 183.364 171.805 182.756C172.421 182.148 173.169 181.844 174.049 181.844C174.937 181.844 175.685 182.148 176.293 182.756C176.909 183.364 177.217 184.112 177.217 185C177.217 185.888 176.909 186.636 176.293 187.244C175.685 187.852 174.937 188.156 174.049 188.156ZM172.717 186.356C173.077 186.716 173.521 186.896 174.049 186.896C174.577 186.896 175.021 186.716 175.381 186.356C175.741 185.996 175.921 185.544 175.921 185C175.921 184.456 175.741 184.004 175.381 183.644C175.021 183.284 174.577 183.104 174.049 183.104C173.521 183.104 173.077 183.284 172.717 183.644C172.357 184.004 172.177 184.456 172.177 185C172.177 185.544 172.357 185.996 172.717 186.356ZM178.473 184.976V183.728H182.913V184.976H178.473ZM187.338 188.156C186.434 188.156 185.678 187.852 185.07 187.244C184.47 186.636 184.17 185.888 184.17 185C184.17 184.104 184.47 183.356 185.07 182.756C185.678 182.148 186.434 181.844 187.338 181.844C187.922 181.844 188.454 181.984 188.934 182.264C189.414 182.544 189.774 182.92 190.014 183.392L188.898 184.04C188.762 183.752 188.554 183.528 188.274 183.368C188.002 183.2 187.686 183.116 187.326 183.116C186.798 183.116 186.354 183.296 185.994 183.656C185.642 184.016 185.466 184.464 185.466 185C185.466 185.536 185.642 185.984 185.994 186.344C186.354 186.704 186.798 186.884 187.326 186.884C187.678 186.884 187.994 186.8 188.274 186.632C188.562 186.464 188.778 186.24 188.922 185.96L190.038 186.596C189.782 187.076 189.414 187.456 188.934 187.736C188.454 188.016 187.922 188.156 187.338 188.156ZM194.82 182H196.2L193.896 188.192C193.616 188.952 193.224 189.52 192.72 189.896C192.216 190.272 191.632 190.44 190.968 190.4V189.188C191.376 189.212 191.704 189.128 191.952 188.936C192.208 188.752 192.412 188.452 192.564 188.036L192.6 187.952L190.08 182H191.46L193.284 186.368L194.82 182ZM203.13 182V188H201.87V184.052L200.142 186.8H199.986L198.27 184.064V188H197.01V182H198.33L200.07 184.772L201.81 182H203.13ZM209.931 188H208.383L205.923 185.228V188H204.627V182H205.923V184.652L208.251 182H209.835L207.195 184.94L209.931 188ZM215.147 182H216.143V188H214.871V184.184L211.799 188H210.803V182H212.075V185.804L215.147 182ZM217.971 189.2H217.311L222.111 178.4H222.771L217.971 189.2ZM165.12 192.6H166.5V201H156.84V192.6H158.22V199.68H160.98V192.6H162.36V199.68H165.12V192.6ZM170.932 201.156C170.052 201.156 169.304 200.852 168.688 200.244C168.072 199.636 167.764 198.888 167.764 198C167.764 197.112 168.072 196.364 168.688 195.756C169.304 195.148 170.052 194.844 170.932 194.844C171.82 194.844 172.568 195.148 173.176 195.756C173.792 196.364 174.1 197.112 174.1 198C174.1 198.888 173.792 199.636 173.176 200.244C172.568 200.852 171.82 201.156 170.932 201.156ZM169.6 199.356C169.96 199.716 170.404 199.896 170.932 199.896C171.46 199.896 171.904 199.716 172.264 199.356C172.624 198.996 172.804 198.544 172.804 198C172.804 197.456 172.624 197.004 172.264 196.644C171.904 196.284 171.46 196.104 170.932 196.104C170.404 196.104 169.96 196.284 169.6 196.644C169.24 197.004 169.06 197.456 169.06 198C169.06 198.544 169.24 198.996 169.6 199.356ZM180.612 195V201H179.316V196.224H176.568V201H175.272V195H180.612ZM187.455 195V201H186.159V196.224H183.411V201H182.115V195H187.455ZM189.979 198.552C190.075 199.008 190.295 199.36 190.639 199.608C190.983 199.848 191.403 199.968 191.899 199.968C192.587 199.968 193.103 199.72 193.447 199.224L194.515 199.848C193.923 200.72 193.047 201.156 191.887 201.156C190.911 201.156 190.123 200.86 189.523 200.268C188.923 199.668 188.623 198.912 188.623 198C188.623 197.104 188.919 196.356 189.511 195.756C190.103 195.148 190.863 194.844 191.791 194.844C192.671 194.844 193.391 195.152 193.951 195.768C194.519 196.384 194.803 197.132 194.803 198.012C194.803 198.148 194.787 198.328 194.755 198.552H189.979ZM189.967 197.496H193.495C193.407 197.008 193.203 196.64 192.883 196.392C192.571 196.144 192.203 196.02 191.779 196.02C191.299 196.02 190.899 196.152 190.579 196.416C190.259 196.68 190.055 197.04 189.967 197.496ZM199.34 194.844C200.164 194.844 200.868 195.152 201.452 195.768C202.036 196.376 202.328 197.12 202.328 198C202.328 198.888 202.036 199.636 201.452 200.244C200.868 200.852 200.164 201.156 199.34 201.156C198.428 201.156 197.728 200.82 197.24 200.148V203.4H195.944V195H197.24V195.864C197.728 195.184 198.428 194.844 199.34 194.844ZM197.78 199.38C198.14 199.74 198.592 199.92 199.136 199.92C199.68 199.92 200.132 199.74 200.492 199.38C200.852 199.012 201.032 198.552 201.032 198C201.032 197.448 200.852 196.992 200.492 196.632C200.132 196.264 199.68 196.08 199.136 196.08C198.592 196.08 198.14 196.264 197.78 196.632C197.42 196.992 197.24 197.448 197.24 198C197.24 198.552 197.42 199.012 197.78 199.38ZM206.118 197.04C206.758 197.04 207.282 197.224 207.69 197.592C208.098 197.952 208.302 198.428 208.302 199.02C208.302 199.604 208.098 200.08 207.69 200.448C207.282 200.816 206.758 201 206.118 201H203.502V195H204.798V197.04H206.118ZM209.022 195H210.318V201H209.022V195ZM206.13 199.836C206.386 199.836 206.598 199.76 206.766 199.608C206.942 199.456 207.03 199.26 207.03 199.02C207.03 198.772 206.942 198.576 206.766 198.432C206.598 198.28 206.386 198.204 206.13 198.204H204.798V199.836H206.13Z" fill="#8E8E8E"/>
<path d="M163.02 221.6V230H161.64V222.92H158.22V230H156.84V221.6H163.02ZM169.683 224V230H168.387V225.248H166.383V227.48C166.383 228.432 166.175 229.108 165.759 229.508C165.343 229.908 164.751 230.072 163.983 230V228.788C164.351 228.852 164.627 228.776 164.811 228.56C164.995 228.344 165.087 227.964 165.087 227.42V224H169.683ZM172.214 227.552C172.31 228.008 172.53 228.36 172.874 228.608C173.218 228.848 173.638 228.968 174.134 228.968C174.822 228.968 175.338 228.72 175.682 228.224L176.75 228.848C176.158 229.72 175.282 230.156 174.122 230.156C173.146 230.156 172.358 229.86 171.758 229.268C171.158 228.668 170.858 227.912 170.858 227C170.858 226.104 171.154 225.356 171.746 224.756C172.338 224.148 173.098 223.844 174.026 223.844C174.906 223.844 175.626 224.152 176.186 224.768C176.754 225.384 177.038 226.132 177.038 227.012C177.038 227.148 177.022 227.328 176.99 227.552H172.214ZM172.201 226.496H175.73C175.642 226.008 175.438 225.64 175.118 225.392C174.806 225.144 174.438 225.02 174.014 225.02C173.534 225.02 173.134 225.152 172.814 225.416C172.494 225.68 172.29 226.04 172.201 226.496ZM183.224 228.776H184.028V231.608H182.756V230H178.64V231.608H177.368V228.776H178.1C178.468 228.256 178.652 227.532 178.652 226.604V224H183.224V228.776ZM179.528 228.776H181.952V225.188H179.924V226.604C179.924 227.46 179.792 228.184 179.528 228.776ZM187.696 226.04C188.336 226.04 188.86 226.224 189.268 226.592C189.676 226.952 189.88 227.428 189.88 228.02C189.88 228.604 189.676 229.08 189.268 229.448C188.86 229.816 188.336 230 187.696 230H185.08V224H186.376V226.04H187.696ZM190.6 224H191.896V230H190.6V224ZM187.708 228.836C187.964 228.836 188.176 228.76 188.344 228.608C188.52 228.456 188.608 228.26 188.608 228.02C188.608 227.772 188.52 227.576 188.344 227.432C188.176 227.28 187.964 227.204 187.708 227.204H186.376V228.836H187.708Z" fill="#8E8E8E"/>
<path d="M161.82 248.6H163.2V257H161.82V253.364H158.22V257H156.84V248.6H158.22V252.044H161.82V248.6ZM167.627 257.156C166.747 257.156 165.999 256.852 165.383 256.244C164.767 255.636 164.459 254.888 164.459 254C164.459 253.112 164.767 252.364 165.383 251.756C165.999 251.148 166.747 250.844 167.627 250.844C168.515 250.844 169.263 251.148 169.871 251.756C170.487 252.364 170.795 253.112 170.795 254C170.795 254.888 170.487 255.636 169.871 256.244C169.263 256.852 168.515 257.156 167.627 257.156ZM166.295 255.356C166.655 255.716 167.099 255.896 167.627 255.896C168.155 255.896 168.599 255.716 168.959 255.356C169.319 254.996 169.499 254.544 169.499 254C169.499 253.456 169.319 253.004 168.959 252.644C168.599 252.284 168.155 252.104 167.627 252.104C167.099 252.104 166.655 252.284 166.295 252.644C165.935 253.004 165.755 253.456 165.755 254C165.755 254.544 165.935 254.996 166.295 255.356ZM174.799 257.156C173.895 257.156 173.139 256.852 172.531 256.244C171.931 255.636 171.631 254.888 171.631 254C171.631 253.104 171.931 252.356 172.531 251.756C173.139 251.148 173.895 250.844 174.799 250.844C175.383 250.844 175.915 250.984 176.395 251.264C176.875 251.544 177.235 251.92 177.475 252.392L176.359 253.04C176.223 252.752 176.015 252.528 175.735 252.368C175.463 252.2 175.147 252.116 174.787 252.116C174.259 252.116 173.815 252.296 173.455 252.656C173.103 253.016 172.927 253.464 172.927 254C172.927 254.536 173.103 254.984 173.455 255.344C173.815 255.704 174.259 255.884 174.787 255.884C175.139 255.884 175.455 255.8 175.735 255.632C176.023 255.464 176.239 255.24 176.383 254.96L177.499 255.596C177.243 256.076 176.875 256.456 176.395 256.736C175.915 257.016 175.383 257.156 174.799 257.156ZM183.775 257H182.227L179.767 254.228V257H178.471V251H179.767V253.652L182.095 251H183.679L181.039 253.94L183.775 257ZM188.991 251H189.987V257H188.715V253.184L185.643 257H184.647V251H185.919V254.804L188.991 251Z" fill="#8E8E8E"/>
<path d="M164.88 275.6V284H163.5V278.012L160.944 282.236H160.776L158.22 278V284H156.84V275.6H158.328L160.86 279.8L163.404 275.6H164.88ZM171.223 278H172.519V284H171.223V283.136C170.735 283.816 170.035 284.156 169.123 284.156C168.299 284.156 167.595 283.852 167.011 283.244C166.427 282.628 166.135 281.88 166.135 281C166.135 280.112 166.427 279.364 167.011 278.756C167.595 278.148 168.299 277.844 169.123 277.844C170.035 277.844 170.735 278.18 171.223 278.852V278ZM167.971 282.38C168.331 282.74 168.783 282.92 169.327 282.92C169.871 282.92 170.323 282.74 170.683 282.38C171.043 282.012 171.223 281.552 171.223 281C171.223 280.448 171.043 279.992 170.683 279.632C170.323 279.264 169.871 279.08 169.327 279.08C168.783 279.08 168.331 279.264 167.971 279.632C167.611 279.992 167.431 280.448 167.431 281C167.431 281.552 167.611 282.012 167.971 282.38ZM176.861 284.156C175.957 284.156 175.201 283.852 174.593 283.244C173.993 282.636 173.693 281.888 173.693 281C173.693 280.104 173.993 279.356 174.593 278.756C175.201 278.148 175.957 277.844 176.861 277.844C177.445 277.844 177.977 277.984 178.457 278.264C178.937 278.544 179.297 278.92 179.537 279.392L178.421 280.04C178.285 279.752 178.077 279.528 177.797 279.368C177.525 279.2 177.209 279.116 176.849 279.116C176.321 279.116 175.877 279.296 175.517 279.656C175.165 280.016 174.989 280.464 174.989 281C174.989 281.536 175.165 281.984 175.517 282.344C175.877 282.704 176.321 282.884 176.849 282.884C177.201 282.884 177.517 282.8 177.797 282.632C178.085 282.464 178.301 282.24 178.445 281.96L179.561 282.596C179.305 283.076 178.937 283.456 178.457 283.736C177.977 284.016 177.445 284.156 176.861 284.156ZM185.837 284H184.289L181.829 281.228V284H180.533V278H181.829V280.652L184.157 278H185.741L183.101 280.94L185.837 284ZM191.053 278H192.049V284H190.777V280.184L187.705 284H186.709V278H187.981V281.804L191.053 278Z" fill="#8E8E8E"/>
<path d="M68.336 152.6V154.184H66.068V161H64.412V154.184H62.156V152.6H68.336ZM73.2106 160.256C72.5946 160.864 71.8426 161.168 70.9546 161.168C70.0666 161.168 69.3146 160.864 68.6986 160.256C68.0906 159.64 67.7866 158.888 67.7866 158C67.7866 157.112 68.0906 156.364 68.6986 155.756C69.3146 155.14 70.0666 154.832 70.9546 154.832C71.8426 154.832 72.5946 155.14 73.2106 155.756C73.8266 156.364 74.1346 157.112 74.1346 158C74.1346 158.888 73.8266 159.64 73.2106 160.256ZM69.7906 159.188C70.1026 159.5 70.4906 159.656 70.9546 159.656C71.4186 159.656 71.8066 159.5 72.1186 159.188C72.4306 158.876 72.5866 158.48 72.5866 158C72.5866 157.52 72.4306 157.124 72.1186 156.812C71.8066 156.5 71.4186 156.344 70.9546 156.344C70.4906 156.344 70.1026 156.5 69.7906 156.812C69.4866 157.124 69.3346 157.52 69.3346 158C69.3346 158.48 69.4866 158.876 69.7906 159.188ZM80.2193 155V161H78.6713V156.488H77.0153V158.492C77.0153 160.348 76.1713 161.184 74.4833 161V159.548C74.8033 159.628 75.0473 159.576 75.2153 159.392C75.3833 159.2 75.4673 158.872 75.4673 158.408V155H80.2193ZM84.4781 161.168C83.5741 161.168 82.8181 160.864 82.2101 160.256C81.6101 159.648 81.3101 158.896 81.3101 158C81.3101 157.104 81.6101 156.352 82.2101 155.744C82.8181 155.136 83.5741 154.832 84.4781 154.832C85.0621 154.832 85.5941 154.972 86.0741 155.252C86.5541 155.532 86.9181 155.908 87.1661 156.38L85.8341 157.16C85.7141 156.912 85.5301 156.716 85.2821 156.572C85.0421 156.428 84.7701 156.356 84.4661 156.356C84.0021 156.356 83.6181 156.512 83.3141 156.824C83.0101 157.128 82.8581 157.52 82.8581 158C82.8581 158.472 83.0101 158.864 83.3141 159.176C83.6181 159.48 84.0021 159.632 84.4661 159.632C84.7781 159.632 85.0541 159.564 85.2941 159.428C85.5421 159.284 85.7261 159.088 85.8461 158.84L87.1901 159.608C86.9261 160.08 86.5541 160.46 86.0741 160.748C85.5941 161.028 85.0621 161.168 84.4781 161.168ZM92.7016 155V156.488H90.8296V161H89.2816V156.488H87.3856V155H92.7016ZM98.4059 160.256C97.7899 160.864 97.0379 161.168 96.1499 161.168C95.2619 161.168 94.5099 160.864 93.8939 160.256C93.2859 159.64 92.9819 158.888 92.9819 158C92.9819 157.112 93.2859 156.364 93.8939 155.756C94.5099 155.14 95.2619 154.832 96.1499 154.832C97.0379 154.832 97.7899 155.14 98.4059 155.756C99.0219 156.364 99.3299 157.112 99.3299 158C99.3299 158.888 99.0219 159.64 98.4059 160.256ZM94.9859 159.188C95.2979 159.5 95.6859 159.656 96.1499 159.656C96.6139 159.656 97.0019 159.5 97.3139 159.188C97.6259 158.876 97.7819 158.48 97.7819 158C97.7819 157.52 97.6259 157.124 97.3139 156.812C97.0019 156.5 96.6139 156.344 96.1499 156.344C95.6859 156.344 95.2979 156.5 94.9859 156.812C94.6819 157.124 94.5299 157.52 94.5299 158C94.5299 158.48 94.6819 158.876 94.9859 159.188ZM104.739 157.928C105.299 158.2 105.579 158.656 105.579 159.296C105.579 159.8 105.403 160.212 105.051 160.532C104.707 160.844 104.215 161 103.575 161H100.419V155H103.335C103.967 155 104.455 155.156 104.799 155.468C105.151 155.78 105.327 156.188 105.327 156.692C105.327 157.22 105.131 157.632 104.739 157.928ZM103.191 156.272H101.871V157.352H103.191C103.631 157.352 103.851 157.172 103.851 156.812C103.851 156.452 103.631 156.272 103.191 156.272ZM103.395 159.692C103.843 159.692 104.067 159.5 104.067 159.116C104.067 158.948 104.007 158.816 103.887 158.72C103.767 158.624 103.603 158.576 103.395 158.576H101.871V159.692H103.395ZM112.08 161H110.28L108.096 158.276V161H106.548V155H108.096V157.64L110.16 155H112.008L109.596 157.964L112.08 161ZM117.185 155H118.337V161H116.825V157.592L114.005 161H112.853V155H114.365V158.408L117.185 155Z" fill="#272525"/>
<path d="M66.812 188.156C65.548 188.156 64.5 187.74 63.668 186.908C62.836 186.068 62.42 185.032 62.42 183.8C62.42 182.568 62.836 181.536 63.668 180.704C64.5 179.864 65.548 179.444 66.812 179.444C67.572 179.444 68.272 179.624 68.912 179.984C69.56 180.344 70.064 180.832 70.424 181.448L69.224 182.144C69 181.728 68.672 181.4 68.24 181.16C67.816 180.912 67.34 180.788 66.812 180.788C65.916 180.788 65.188 181.072 64.628 181.64C64.076 182.208 63.8 182.928 63.8 183.8C63.8 184.672 64.076 185.392 64.628 185.96C65.188 186.528 65.916 186.812 66.812 186.812C67.34 186.812 67.82 186.692 68.252 186.452C68.684 186.204 69.008 185.872 69.224 185.456L70.424 186.14C70.072 186.756 69.572 187.248 68.924 187.616C68.284 187.976 67.58 188.156 66.812 188.156ZM75.6971 184.916C76.2891 185.188 76.5851 185.648 76.5851 186.296C76.5851 186.8 76.4131 187.212 76.0691 187.532C75.7331 187.844 75.2491 188 74.6171 188H71.5451V182H74.3771C74.9931 182 75.4691 182.156 75.8051 182.468C76.1491 182.772 76.3211 183.168 76.3211 183.656C76.3211 184.224 76.1131 184.644 75.6971 184.916ZM74.2811 183.104H72.7811V184.436H74.2811C74.8091 184.436 75.0731 184.212 75.0731 183.764C75.0731 183.324 74.8091 183.104 74.2811 183.104ZM74.4971 186.872C75.0411 186.872 75.3131 186.636 75.3131 186.164C75.3131 185.956 75.2411 185.796 75.0971 185.684C74.9531 185.564 74.7531 185.504 74.4971 185.504H72.7811V186.872H74.4971ZM81.9828 182H82.9788V188H81.7068V184.184L78.6348 188H77.6388V182H78.9108V185.804L81.9828 182ZM89.0666 182V183.248H87.1106V188H85.8146V183.248H83.8466V182H89.0666ZM97.0475 182H98.3435V188H89.9435V182H91.2395V186.776H93.4955V182H94.7915V186.776H97.0475V182ZM102.678 188.156C101.798 188.156 101.05 187.852 100.434 187.244C99.8178 186.636 99.5098 185.888 99.5098 185C99.5098 184.112 99.8178 183.364 100.434 182.756C101.05 182.148 101.798 181.844 102.678 181.844C103.566 181.844 104.314 182.148 104.922 182.756C105.538 183.364 105.846 184.112 105.846 185C105.846 185.888 105.538 186.636 104.922 187.244C104.314 187.852 103.566 188.156 102.678 188.156ZM101.346 186.356C101.706 186.716 102.15 186.896 102.678 186.896C103.206 186.896 103.65 186.716 104.01 186.356C104.37 185.996 104.55 185.544 104.55 185C104.55 184.456 104.37 184.004 104.01 183.644C103.65 183.284 103.206 183.104 102.678 183.104C102.15 183.104 101.706 183.284 101.346 183.644C100.986 184.004 100.806 184.456 100.806 185C100.806 185.544 100.986 185.996 101.346 186.356ZM111.367 182V183.248H109.411V188H108.115V183.248H106.147V182H111.367ZM114.86 184.04C115.5 184.04 116.024 184.224 116.432 184.592C116.84 184.952 117.044 185.428 117.044 186.02C117.044 186.604 116.84 187.08 116.432 187.448C116.024 187.816 115.5 188 114.86 188H112.244V182H113.54V184.04H114.86ZM117.764 182H119.06V188H117.764V182ZM114.872 186.836C115.128 186.836 115.34 186.76 115.508 186.608C115.684 186.456 115.772 186.26 115.772 186.02C115.772 185.772 115.684 185.576 115.508 185.432C115.34 185.28 115.128 185.204 114.872 185.204H113.54V186.836H114.872Z" fill="#8E8E8E"/>
<path d="M70.4 208.472C71.112 209.056 71.468 209.832 71.468 210.8C71.468 211.768 71.112 212.548 70.4 213.14C69.696 213.724 68.752 214.064 67.568 214.16V215.12H66.212V214.16C65.02 214.064 64.068 213.724 63.356 213.14C62.652 212.548 62.3 211.768 62.3 210.8C62.3 209.832 62.652 209.056 63.356 208.472C64.068 207.88 65.02 207.536 66.212 207.44V206.48H67.568V207.44C68.752 207.536 69.696 207.88 70.4 208.472ZM63.68 210.8C63.68 211.424 63.896 211.912 64.328 212.264C64.768 212.616 65.396 212.828 66.212 212.9V208.7C64.524 208.852 63.68 209.552 63.68 210.8ZM67.568 212.9C69.248 212.732 70.088 212.032 70.088 210.8C70.088 209.552 69.248 208.852 67.568 208.7V212.9ZM76.4563 209H77.8363L75.5323 215.192C75.2523 215.952 74.8603 216.52 74.3563 216.896C73.8523 217.272 73.2683 217.44 72.6043 217.4V216.188C73.0123 216.212 73.3403 216.128 73.5883 215.936C73.8443 215.752 74.0483 215.452 74.2003 215.036L74.2363 214.952L71.7163 209H73.0963L74.9203 213.368L76.4563 209ZM83.2892 209V210.248H81.3332V215H80.0372V210.248H78.0692V209H83.2892ZM86.7158 215.156C85.7958 215.156 85.0438 214.86 84.4598 214.268C83.8838 213.668 83.5958 212.904 83.5958 211.976C83.5958 210.96 83.7478 210.176 84.0518 209.624C84.3558 209.064 84.9718 208.556 85.8998 208.1C86.0518 208.028 86.2758 207.924 86.5718 207.788C86.8758 207.652 87.0838 207.556 87.1958 207.5C87.3078 207.436 87.4478 207.348 87.6158 207.236C87.7838 207.116 87.9078 206.992 87.9878 206.864C88.0678 206.728 88.1318 206.568 88.1798 206.384L89.2358 206.996C89.2038 207.172 89.1518 207.336 89.0798 207.488C89.0078 207.632 88.9038 207.768 88.7678 207.896C88.6318 208.024 88.5118 208.128 88.4078 208.208C88.3118 208.288 88.1478 208.384 87.9158 208.496C87.6838 208.608 87.5118 208.688 87.3998 208.736C87.2958 208.784 87.0958 208.868 86.7998 208.988C86.2718 209.196 85.8838 209.412 85.6358 209.636C85.3958 209.852 85.2278 210.124 85.1318 210.452C85.6118 209.908 86.2638 209.636 87.0878 209.636C87.7918 209.636 88.4038 209.888 88.9238 210.392C89.4518 210.896 89.7158 211.548 89.7158 212.348C89.7158 213.164 89.4358 213.836 88.8758 214.364C88.3238 214.892 87.6038 215.156 86.7158 215.156ZM86.7038 213.944C87.2078 213.944 87.6198 213.796 87.9398 213.5C88.2598 213.196 88.4198 212.812 88.4198 212.348C88.4198 211.876 88.2598 211.488 87.9398 211.184C87.6278 210.88 87.2198 210.728 86.7158 210.728C86.2678 210.728 85.8638 210.872 85.5038 211.16C85.1438 211.44 84.9638 211.816 84.9638 212.288C84.9638 212.768 85.1318 213.164 85.4678 213.476C85.8038 213.788 86.2158 213.944 86.7038 213.944ZM93.5724 215.156C92.6924 215.156 91.9444 214.852 91.3284 214.244C90.7124 213.636 90.4044 212.888 90.4044 212C90.4044 211.112 90.7124 210.364 91.3284 209.756C91.9444 209.148 92.6924 208.844 93.5724 208.844C94.4604 208.844 95.2084 209.148 95.8164 209.756C96.4324 210.364 96.7404 211.112 96.7404 212C96.7404 212.888 96.4324 213.636 95.8164 214.244C95.2084 214.852 94.4604 215.156 93.5724 215.156ZM92.2404 213.356C92.6004 213.716 93.0444 213.896 93.5724 213.896C94.1004 213.896 94.5444 213.716 94.9044 213.356C95.2644 212.996 95.4444 212.544 95.4444 212C95.4444 211.456 95.2644 211.004 94.9044 210.644C94.5444 210.284 94.1004 210.104 93.5724 210.104C93.0444 210.104 92.6004 210.284 92.2404 210.644C91.8804 211.004 91.7004 211.456 91.7004 212C91.7004 212.544 91.8804 212.996 92.2404 213.356ZM102.8 209V215H101.504V210.248H99.5005V212.48C99.5005 213.432 99.2925 214.108 98.8765 214.508C98.4605 214.908 97.8685 215.072 97.1005 215V213.788C97.4685 213.852 97.7445 213.776 97.9285 213.56C98.1125 213.344 98.2045 212.964 98.2045 212.42V209H102.8ZM109.615 215H108.067L105.607 212.228V215H104.311V209H105.607V211.652L107.935 209H109.519L106.879 211.94L109.615 215ZM114.83 209H115.826V215H114.554V211.184L111.482 215H110.486V209H111.758V212.804L114.83 209Z" fill="#8E8E8E"/>
<path d="M69.02 233.6V242H67.64V234.92H64.22V242H62.84V233.6H69.02ZM73.4513 242.156C72.5713 242.156 71.8233 241.852 71.2073 241.244C70.5913 240.636 70.2833 239.888 70.2833 239C70.2833 238.112 70.5913 237.364 71.2073 236.756C71.8233 236.148 72.5713 235.844 73.4513 235.844C74.3393 235.844 75.0873 236.148 75.6953 236.756C76.3113 237.364 76.6193 238.112 76.6193 239C76.6193 239.888 76.3113 240.636 75.6953 241.244C75.0873 241.852 74.3393 242.156 73.4513 242.156ZM72.1193 240.356C72.4793 240.716 72.9233 240.896 73.4513 240.896C73.9793 240.896 74.4233 240.716 74.7833 240.356C75.1433 239.996 75.3233 239.544 75.3233 239C75.3233 238.456 75.1433 238.004 74.7833 237.644C74.4233 237.284 73.9793 237.104 73.4513 237.104C72.9233 237.104 72.4793 237.284 72.1193 237.644C71.7593 238.004 71.5793 238.456 71.5793 239C71.5793 239.544 71.7593 239.996 72.1193 240.356ZM82.6794 236V242H81.3834V237.248H79.3794V239.48C79.3794 240.432 79.1714 241.108 78.7554 241.508C78.3394 241.908 77.7474 242.072 76.9794 242V240.788C77.3474 240.852 77.6234 240.776 77.8074 240.56C77.9914 240.344 78.0834 239.964 78.0834 239.42V236H82.6794ZM87.0216 242.156C86.1416 242.156 85.3936 241.852 84.7776 241.244C84.1616 240.636 83.8536 239.888 83.8536 239C83.8536 238.112 84.1616 237.364 84.7776 236.756C85.3936 236.148 86.1416 235.844 87.0216 235.844C87.9096 235.844 88.6576 236.148 89.2656 236.756C89.8816 237.364 90.1896 238.112 90.1896 239C90.1896 239.888 89.8816 240.636 89.2656 241.244C88.6576 241.852 87.9096 242.156 87.0216 242.156ZM85.6896 240.356C86.0496 240.716 86.4936 240.896 87.0216 240.896C87.5496 240.896 87.9936 240.716 88.3536 240.356C88.7136 239.996 88.8936 239.544 88.8936 239C88.8936 238.456 88.7136 238.004 88.3536 237.644C87.9936 237.284 87.5496 237.104 87.0216 237.104C86.4936 237.104 86.0496 237.284 85.6896 237.644C85.3296 238.004 85.1496 238.456 85.1496 239C85.1496 239.544 85.3296 239.996 85.6896 240.356Z" fill="#8E8E8E"/>
<path d="M72.452 269H70.904L68.012 265.064V269H66.632V265.064L63.74 269H62.18L65.324 264.704L62.3 260.6H63.86L66.632 264.416V260.6H68.012V264.416L70.784 260.6H72.332L69.32 264.704L72.452 269ZM77.7289 263H78.7249V269H77.4529V265.184L74.3809 269H73.3849V263H74.6569V266.804L77.7289 263ZM85.2927 263V269H83.9967V264.248H81.9927V266.48C81.9927 267.432 81.7847 268.108 81.3687 268.508C80.9527 268.908 80.3607 269.072 79.5927 269V267.788C79.9607 267.852 80.2367 267.776 80.4207 267.56C80.6047 267.344 80.6967 266.964 80.6967 266.42V263H85.2927ZM87.8229 266.552C87.9189 267.008 88.1389 267.36 88.4829 267.608C88.8269 267.848 89.2469 267.968 89.7429 267.968C90.4309 267.968 90.9469 267.72 91.2909 267.224L92.3589 267.848C91.7669 268.72 90.8909 269.156 89.7309 269.156C88.7549 269.156 87.9669 268.86 87.3669 268.268C86.7669 267.668 86.4669 266.912 86.4669 266C86.4669 265.104 86.7629 264.356 87.3549 263.756C87.9469 263.148 88.7069 262.844 89.6349 262.844C90.5149 262.844 91.2349 263.152 91.7949 263.768C92.3629 264.384 92.6469 265.132 92.6469 266.012C92.6469 266.148 92.6309 266.328 92.5989 266.552H87.8229ZM87.8109 265.496H91.3389C91.2509 265.008 91.0469 264.64 90.7269 264.392C90.4149 264.144 90.0469 264.02 89.6229 264.02C89.1429 264.02 88.7429 264.152 88.4229 264.416C88.1029 264.68 87.8989 265.04 87.8109 265.496ZM98.1369 263V264.248H96.1809V269H94.8849V264.248H92.9169V263H98.1369ZM104.318 269H102.77L100.31 266.228V269H99.0138V263H100.31V265.652L102.638 263H104.222L101.582 265.94L104.318 269ZM109.534 263H110.53V269H109.258V265.184L106.186 269H105.19V263H106.462V266.804L109.534 263Z" fill="#8E8E8E"/>
<path d="M65.936 287.6C66.728 287.6 67.388 287.864 67.916 288.392C68.452 288.92 68.72 289.576 68.72 290.36C68.72 291.136 68.452 291.792 67.916 292.328C67.388 292.856 66.728 293.12 65.936 293.12H64.22V296H62.84V287.6H65.936ZM65.936 291.824C66.344 291.824 66.68 291.688 66.944 291.416C67.208 291.136 67.34 290.784 67.34 290.36C67.34 289.936 67.208 289.588 66.944 289.316C66.68 289.036 66.344 288.896 65.936 288.896H64.22V291.824H65.936ZM75.1861 289.844C76.0661 289.844 76.8141 290.148 77.4301 290.756C78.0461 291.364 78.3541 292.112 78.3541 293C78.3541 293.888 78.0461 294.636 77.4301 295.244C76.8141 295.852 76.0661 296.156 75.1861 296.156C74.4101 296.156 73.7381 295.92 73.1701 295.448C72.6101 294.968 72.2621 294.356 72.1261 293.612H71.1301V296H69.8341V290H71.1301V292.388H72.1261C72.2621 291.644 72.6101 291.036 73.1701 290.564C73.7381 290.084 74.4101 289.844 75.1861 289.844ZM73.8541 294.356C74.2141 294.716 74.6581 294.896 75.1861 294.896C75.7141 294.896 76.1581 294.716 76.5181 294.356C76.8781 293.996 77.0581 293.544 77.0581 293C77.0581 292.456 76.8781 292.004 76.5181 291.644C76.1581 291.284 75.7141 291.104 75.1861 291.104C74.6581 291.104 74.2141 291.284 73.8541 291.644C73.4941 292.004 73.3141 292.456 73.3141 293C73.3141 293.544 73.4941 293.996 73.8541 294.356ZM84.8295 296H83.2815L80.8215 293.228V296H79.5255V290H80.8215V292.652L83.1495 290H84.7335L82.0935 292.94L84.8295 296ZM88.7921 292.928C89.4321 293.216 89.7521 293.692 89.7521 294.356C89.7521 294.868 89.5441 295.296 89.1281 295.64C88.7121 295.984 88.1321 296.156 87.3881 296.156C86.1801 296.156 85.3641 295.676 84.9401 294.716L85.9961 294.092C86.2121 294.692 86.6801 294.992 87.4001 294.992C87.7361 294.992 88.0001 294.924 88.1921 294.788C88.3841 294.644 88.4801 294.456 88.4801 294.224C88.4801 294.016 88.4041 293.852 88.2521 293.732C88.1001 293.604 87.8881 293.54 87.6161 293.54H86.7641V292.4H87.4001C87.6641 292.4 87.8681 292.34 88.0121 292.22C88.1641 292.092 88.2401 291.92 88.2401 291.704C88.2401 291.496 88.1561 291.328 87.9881 291.2C87.8201 291.064 87.5961 290.996 87.3161 290.996C86.7161 290.996 86.3001 291.26 86.0681 291.788L85.0121 291.188C85.4601 290.292 86.2201 289.844 87.2921 289.844C87.9641 289.844 88.4961 290.016 88.8881 290.36C89.2881 290.696 89.4881 291.108 89.4881 291.596C89.4881 292.196 89.2561 292.64 88.7921 292.928ZM95.5627 290H96.8587V296H95.5627V295.136C95.0747 295.816 94.3747 296.156 93.4627 296.156C92.6387 296.156 91.9347 295.852 91.3507 295.244C90.7667 294.628 90.4747 293.88 90.4747 293C90.4747 292.112 90.7667 291.364 91.3507 290.756C91.9347 290.148 92.6387 289.844 93.4627 289.844C94.3747 289.844 95.0747 290.18 95.5627 290.852V290ZM92.3107 294.38C92.6707 294.74 93.1227 294.92 93.6667 294.92C94.2107 294.92 94.6627 294.74 95.0227 294.38C95.3827 294.012 95.5627 293.552 95.5627 293C95.5627 292.448 95.3827 291.992 95.0227 291.632C94.6627 291.264 94.2107 291.08 93.6667 291.08C93.1227 291.08 92.6707 291.264 92.3107 291.632C91.9507 291.992 91.7707 292.448 91.7707 293C91.7707 293.552 91.9507 294.012 92.3107 294.38ZM103.673 296H102.125L99.6653 293.228V296H98.3693V290H99.6653V292.652L101.993 290H103.577L100.937 292.94L103.673 296ZM108.889 290H109.885V296H108.613V292.184L105.541 296H104.545V290H105.817V293.804L108.889 290Z" fill="#8E8E8E"/>
<path d="M78.4601 443.832C79.4961 443.832 80.3314 444.201 80.9661 444.938C81.6101 445.666 81.9321 446.529 81.9321 447.528C81.9321 447.631 81.9228 447.775 81.9041 447.962H75.7581C75.8514 448.671 76.1501 449.236 76.6541 449.656C77.1674 450.067 77.7974 450.272 78.5441 450.272C79.0761 450.272 79.5334 450.165 79.9161 449.95C80.3081 449.726 80.6021 449.437 80.7981 449.082L81.6101 449.558C81.3021 450.053 80.8821 450.445 80.3501 450.734C79.8181 451.023 79.2114 451.168 78.5301 451.168C77.4288 451.168 76.5328 450.823 75.8421 450.132C75.1514 449.441 74.8061 448.564 74.8061 447.5C74.8061 446.455 75.1468 445.582 75.8281 444.882C76.5094 444.182 77.3868 443.832 78.4601 443.832ZM78.4601 444.728C77.7321 444.728 77.1208 444.947 76.6261 445.386C76.1408 445.815 75.8514 446.375 75.7581 447.066H80.9801C80.8868 446.329 80.6021 445.755 80.1261 445.344C79.6501 444.933 79.0948 444.728 78.4601 444.728ZM89.0084 451H87.9024L85.7184 448.116L83.5344 451H82.4284L85.1724 447.374L82.6104 444H83.7164L85.7184 446.646L87.7204 444H88.8264L86.2784 447.374L89.0084 451ZM95.793 444H96.717V451H95.793V449.628C95.149 450.655 94.2063 451.168 92.965 451.168C91.9663 451.168 91.1123 450.813 90.403 450.104C89.703 449.395 89.353 448.527 89.353 447.5C89.353 446.473 89.703 445.605 90.403 444.896C91.1123 444.187 91.9663 443.832 92.965 443.832C94.2063 443.832 95.149 444.345 95.793 445.372V444ZM91.075 449.474C91.607 450.006 92.2603 450.272 93.035 450.272C93.8096 450.272 94.463 450.006 94.995 449.474C95.527 448.933 95.793 448.275 95.793 447.5C95.793 446.725 95.527 446.072 94.995 445.54C94.463 444.999 93.8096 444.728 93.035 444.728C92.2603 444.728 91.607 444.999 91.075 445.54C90.543 446.072 90.277 446.725 90.277 447.5C90.277 448.275 90.543 448.933 91.075 449.474ZM106.135 443.832C106.919 443.832 107.549 444.084 108.025 444.588C108.511 445.092 108.753 445.773 108.753 446.632V451H107.829V446.632C107.829 446.025 107.671 445.559 107.353 445.232C107.045 444.896 106.635 444.728 106.121 444.728C105.543 444.728 105.071 444.924 104.707 445.316C104.353 445.699 104.175 446.301 104.175 447.122V451H103.251V446.632C103.251 446.016 103.102 445.545 102.803 445.218C102.514 444.891 102.117 444.728 101.613 444.728C101.053 444.728 100.577 444.924 100.185 445.316C99.7934 445.708 99.5974 446.31 99.5974 447.122V451H98.6734V444H99.5974V445.022C100.101 444.229 100.815 443.832 101.739 443.832C102.747 443.832 103.457 444.257 103.867 445.106C104.371 444.257 105.127 443.832 106.135 443.832ZM114.293 443.832C115.291 443.832 116.141 444.187 116.841 444.896C117.55 445.605 117.905 446.473 117.905 447.5C117.905 448.527 117.55 449.395 116.841 450.104C116.141 450.813 115.291 451.168 114.293 451.168C113.051 451.168 112.109 450.655 111.465 449.628V453.8H110.541V444H111.465V445.372C112.109 444.345 113.051 443.832 114.293 443.832ZM112.263 449.474C112.795 450.006 113.448 450.272 114.223 450.272C114.997 450.272 115.651 450.006 116.183 449.474C116.715 448.933 116.981 448.275 116.981 447.5C116.981 446.725 116.715 446.072 116.183 445.54C115.651 444.999 114.997 444.728 114.223 444.728C113.448 444.728 112.795 444.999 112.263 445.54C111.731 446.072 111.465 446.725 111.465 447.5C111.465 448.275 111.731 448.933 112.263 449.474ZM119.441 451V440.78H120.365V451H119.441ZM125.56 443.832C126.596 443.832 127.431 444.201 128.066 444.938C128.71 445.666 129.032 446.529 129.032 447.528C129.032 447.631 129.022 447.775 129.004 447.962H122.858C122.951 448.671 123.25 449.236 123.754 449.656C124.267 450.067 124.897 450.272 125.644 450.272C126.176 450.272 126.633 450.165 127.016 449.95C127.408 449.726 127.702 449.437 127.898 449.082L128.71 449.558C128.402 450.053 127.982 450.445 127.45 450.734C126.918 451.023 126.311 451.168 125.63 451.168C124.528 451.168 123.632 450.823 122.942 450.132C122.251 449.441 121.906 448.564 121.906 447.5C121.906 446.455 122.246 445.582 122.928 444.882C123.609 444.182 124.486 443.832 125.56 443.832ZM125.56 444.728C124.832 444.728 124.22 444.947 123.726 445.386C123.24 445.815 122.951 446.375 122.858 447.066H128.08C127.986 446.329 127.702 445.755 127.226 445.344C126.75 444.933 126.194 444.728 125.56 444.728ZM135.177 442.432C136.167 442.432 137.044 442.675 137.809 443.16C138.575 443.636 139.144 444.233 139.517 444.952C139.891 445.671 140.077 446.427 140.077 447.22C140.077 448.209 139.877 448.951 139.475 449.446C139.074 449.941 138.603 450.188 138.061 450.188C137.669 450.188 137.333 450.09 137.053 449.894C136.773 449.689 136.587 449.385 136.493 448.984C136.092 449.488 135.574 449.74 134.939 449.74C134.295 449.74 133.754 449.525 133.315 449.096C132.886 448.667 132.671 448.135 132.671 447.5C132.671 446.865 132.886 446.333 133.315 445.904C133.754 445.475 134.295 445.26 134.939 445.26C135.537 445.26 136.031 445.484 136.423 445.932V445.358H137.291V448.382C137.291 449.278 137.595 449.726 138.201 449.726C138.612 449.726 138.957 449.525 139.237 449.124C139.517 448.713 139.657 448.079 139.657 447.22C139.657 445.969 139.223 444.924 138.355 444.084C137.497 443.244 136.437 442.824 135.177 442.824C133.88 442.824 132.774 443.272 131.859 444.168C130.954 445.064 130.501 446.175 130.501 447.5C130.501 448.853 130.968 449.973 131.901 450.86C132.835 451.737 134.011 452.176 135.429 452.176C136.372 452.176 137.184 452.041 137.865 451.77V452.19C137.165 452.442 136.353 452.568 135.429 452.568C133.899 452.568 132.625 452.087 131.607 451.126C130.59 450.174 130.081 448.965 130.081 447.5C130.081 446.091 130.567 444.896 131.537 443.916C132.517 442.927 133.731 442.432 135.177 442.432ZM133.959 448.522C134.249 448.774 134.594 448.9 134.995 448.9C135.397 448.9 135.733 448.774 136.003 448.522C136.283 448.261 136.423 447.92 136.423 447.5C136.423 447.08 136.283 446.744 136.003 446.492C135.733 446.231 135.397 446.1 134.995 446.1C134.594 446.1 134.249 446.231 133.959 446.492C133.679 446.744 133.539 447.08 133.539 447.5C133.539 447.92 133.679 448.261 133.959 448.522ZM147.637 444H148.561V450.72C148.561 451.728 148.215 452.521 147.525 453.1C146.834 453.679 146.008 453.968 145.047 453.968C143.404 453.968 142.298 453.399 141.729 452.26L142.541 451.798C142.961 452.647 143.796 453.072 145.047 453.072C145.849 453.072 146.479 452.857 146.937 452.428C147.403 452.008 147.637 451.439 147.637 450.72V449.628C146.993 450.655 146.05 451.168 144.809 451.168C143.81 451.168 142.956 450.813 142.247 450.104C141.547 449.395 141.197 448.527 141.197 447.5C141.197 446.473 141.547 445.605 142.247 444.896C142.956 444.187 143.81 443.832 144.809 443.832C146.05 443.832 146.993 444.345 147.637 445.372V444ZM142.919 449.474C143.451 450.006 144.104 450.272 144.879 450.272C145.653 450.272 146.307 450.006 146.839 449.474C147.371 448.933 147.637 448.275 147.637 447.5C147.637 446.725 147.371 446.072 146.839 445.54C146.307 444.999 145.653 444.728 144.879 444.728C144.104 444.728 143.451 444.999 142.919 445.54C142.387 446.072 142.121 446.725 142.121 447.5C142.121 448.275 142.387 448.933 142.919 449.474ZM157.979 443.832C158.763 443.832 159.393 444.084 159.869 444.588C160.354 445.092 160.597 445.773 160.597 446.632V451H159.673V446.632C159.673 446.025 159.514 445.559 159.197 445.232C158.889 444.896 158.478 444.728 157.965 444.728C157.386 444.728 156.915 444.924 156.551 445.316C156.196 445.699 156.019 446.301 156.019 447.122V451H155.095V446.632C155.095 446.016 154.946 445.545 154.647 445.218C154.358 444.891 153.961 444.728 153.457 444.728C152.897 444.728 152.421 444.924 152.029 445.316C151.637 445.708 151.441 446.31 151.441 447.122V451H150.517V444H151.441V445.022C151.945 444.229 152.659 443.832 153.583 443.832C154.591 443.832 155.3 444.257 155.711 445.106C156.215 444.257 156.971 443.832 157.979 443.832ZM168.404 444H169.328V451H168.404V449.628C167.76 450.655 166.818 451.168 165.576 451.168C164.578 451.168 163.724 450.813 163.014 450.104C162.314 449.395 161.964 448.527 161.964 447.5C161.964 446.473 162.314 445.605 163.014 444.896C163.724 444.187 164.578 443.832 165.576 443.832C166.818 443.832 167.76 444.345 168.404 445.372V444ZM163.686 449.474C164.218 450.006 164.872 450.272 165.646 450.272C166.421 450.272 167.074 450.006 167.606 449.474C168.138 448.933 168.404 448.275 168.404 447.5C168.404 446.725 168.138 446.072 167.606 445.54C167.074 444.999 166.421 444.728 165.646 444.728C164.872 444.728 164.218 444.999 163.686 445.54C163.154 446.072 162.888 446.725 162.888 447.5C162.888 448.275 163.154 448.933 163.686 449.474ZM172.223 442.32C172.092 442.451 171.933 442.516 171.747 442.516C171.56 442.516 171.401 442.451 171.271 442.32C171.14 442.189 171.075 442.031 171.075 441.844C171.075 441.657 171.14 441.499 171.271 441.368C171.401 441.237 171.56 441.172 171.747 441.172C171.933 441.172 172.092 441.237 172.223 441.368C172.353 441.499 172.419 441.657 172.419 441.844C172.419 442.031 172.353 442.189 172.223 442.32ZM171.285 451V444H172.209V451H171.285ZM174.169 451V440.78H175.093V451H174.169ZM178.23 450.916C178.081 451.065 177.899 451.14 177.684 451.14C177.47 451.14 177.288 451.065 177.138 450.916C176.989 450.767 176.914 450.585 176.914 450.37C176.914 450.155 176.989 449.973 177.138 449.824C177.288 449.675 177.47 449.6 177.684 449.6C177.899 449.6 178.081 449.675 178.23 449.824C178.38 449.973 178.454 450.155 178.454 450.37C178.454 450.585 178.38 450.767 178.23 450.916ZM182.982 451.168C181.928 451.168 181.05 450.818 180.35 450.118C179.65 449.409 179.3 448.536 179.3 447.5C179.3 446.464 179.65 445.596 180.35 444.896C181.05 444.187 181.928 443.832 182.982 443.832C183.673 443.832 184.294 444 184.844 444.336C185.395 444.663 185.796 445.106 186.048 445.666L185.292 446.1C185.106 445.68 184.802 445.349 184.382 445.106C183.972 444.854 183.505 444.728 182.982 444.728C182.208 444.728 181.554 444.999 181.022 445.54C180.49 446.072 180.224 446.725 180.224 447.5C180.224 448.275 180.49 448.933 181.022 449.474C181.554 450.006 182.208 450.272 182.982 450.272C183.505 450.272 183.972 450.151 184.382 449.908C184.793 449.656 185.115 449.32 185.348 448.9L186.118 449.348C185.829 449.908 185.404 450.351 184.844 450.678C184.284 451.005 183.664 451.168 182.982 451.168ZM193.242 450.118C192.533 450.818 191.665 451.168 190.638 451.168C189.612 451.168 188.739 450.818 188.02 450.118C187.311 449.409 186.956 448.536 186.956 447.5C186.956 446.464 187.311 445.596 188.02 444.896C188.739 444.187 189.612 443.832 190.638 443.832C191.665 443.832 192.533 444.187 193.242 444.896C193.961 445.596 194.32 446.464 194.32 447.5C194.32 448.536 193.961 449.409 193.242 450.118ZM188.678 449.474C189.21 450.006 189.864 450.272 190.638 450.272C191.413 450.272 192.066 450.006 192.598 449.474C193.13 448.933 193.396 448.275 193.396 447.5C193.396 446.725 193.13 446.072 192.598 445.54C192.066 444.999 191.413 444.728 190.638 444.728C189.864 444.728 189.21 444.999 188.678 445.54C188.146 446.072 187.88 446.725 187.88 447.5C187.88 448.275 188.146 448.933 188.678 449.474ZM203.329 443.832C204.113 443.832 204.743 444.084 205.219 444.588C205.704 445.092 205.947 445.773 205.947 446.632V451H205.023V446.632C205.023 446.025 204.864 445.559 204.547 445.232C204.239 444.896 203.828 444.728 203.315 444.728C202.736 444.728 202.265 444.924 201.901 445.316C201.546 445.699 201.369 446.301 201.369 447.122V451H200.445V446.632C200.445 446.016 200.295 445.545 199.997 445.218C199.707 444.891 199.311 444.728 198.807 444.728C198.247 444.728 197.771 444.924 197.379 445.316C196.987 445.708 196.791 446.31 196.791 447.122V451H195.867V444H196.791V445.022C197.295 444.229 198.009 443.832 198.933 443.832C199.941 443.832 200.65 444.257 201.061 445.106C201.565 444.257 202.321 443.832 203.329 443.832Z" fill="#454747"/>
<path d="M74.2461 453.8H206.759V454.5H74.2461V453.8Z" fill="#454747"/>
<defs>
<clipPath id="clip0_27_862">
<rect width="20" height="20" fill="white" transform="translate(92 527)"/>
</clipPath>
<clipPath id="clip1_27_862">
<rect width="20" height="20" fill="white" transform="translate(130.182 527)"/>
</clipPath>
<clipPath id="clip2_27_862">
<rect width="20" height="20" fill="white" transform="translate(168.364 527)"/>
</clipPath>
</defs>
</svg>
